<?xml version="1.0" encoding="UTF-8" standalone="no"?>
<svg
   enable-background="new 0 0 1077 220"
   viewBox="0 0 128 128"
   version="1.1"
   id="svg9"
   width="128"
   height="128"
   xml:space="preserve"
   xmlns="http://www.w3.org/2000/svg"
   xmlns:svg="http://www.w3.org/2000/svg"><defs
     id="defs9" /><g
     id="g9"
     transform="matrix(5.4149983,0,0,8.8483329,461.98729,-265.70715)"><g
       id="g10"
       transform="matrix(0.19124635,0,0,0.11703885,-85.727418,29.771578)"><path
         fill="#9b4f96"
         d="M 115.4,30.7 67.1,2.9 C 66.3,2.4 65.2,2.2 64,2.2 c -1.2,0 -2.3,0.3 -3.1,0.7 l -48,27.9 c -1.7,1 -2.9,3.5 -2.9,5.4 v 55.7 c 0,1.1 0.2,2.4 1,3.5 l 106.8,-62 c -0.6,-1.2 -1.5,-2.1 -2.4,-2.7 z"
         id="path1" /><path
         fill="#68217a"
         d="m 10.7,95.3 c 0.5,0.8 1.2,1.5 1.9,1.9 l 48.2,27.9 c 0.8,0.5 1.9,0.7 3.1,0.7 1.2,0 2.3,-0.3 3.1,-0.7 l 48,-27.9 c 1.7,-1 2.9,-3.5 2.9,-5.4 V 36.1 c 0,-0.9 -0.1,-1.9 -0.6,-2.8 z"
         id="path2" /><path
         fill="#ffffff"
         d="M 85.3,76.1 C 81.1,83.5 73.1,88.5 64,88.5 50.5,88.5 39.5,77.5 39.5,64 c 0,-13.5 11,-24.5 24.5,-24.5 9.1,0 17.1,5 21.3,12.5 l 13,-7.5 C 91.5,32.6 78.7,24.5 64,24.5 42.2,24.5 24.5,42.2 24.5,64 c 0,21.8 17.7,39.5 39.5,39.5 14.6,0 27.4,-8 34.2,-19.8 z M 97,66.2 97.9,61.9 h -4.2 v -4.7 h 5.1 L 100,51 h 4.9 l -1.2,6.1 h 3.8 l 1.2,-6.1 h 4.8 l -1.2,6.1 h 2.4 v 4.7 h -3.3 l -0.9,4.3 h 4.2 v 4.7 h -5.1 l -1.2,6 h -4.9 l 1.2,-6 h -3.8 l -1.2,6 h -4.8 l 1.2,-6 H 93.7 V 66.1 H 97 Z m 4.8,0 h 3.8 l 0.9,-4.3 h -3.8 z"
         id="path3" /></g></g></svg>
