<svg xmlns="http://www.w3.org/2000/svg" enable-background="new 0 0 64 64" viewBox="0 0 64 64" id="cv">
    <path d="M54.14,64H9.86c-1.65,0-3-1.35-3-3V3c0-1.65,1.35-3,3-3h44.28c1.65,0,3,1.35,3,3v58C57.14,62.65,55.79,64,54.14,64z
			 M9.86,0.98c-1.11,0-2.01,0.9-2.01,2.01v58c0,1.11,0.9,2.01,2.01,2.01h44.28c1.11,0,2.01-0.9,2.01-2.01V3
			c0-1.11-0.9-2.01-2.01-2.01H9.86z"></path>
    <path d="M28.86 64c-.27 0-.49-.22-.49-.49V.49c0-.27.22-.49.49-.49.27 0 .49.22.49.49v63.02C29.36 63.78 29.14 64 28.86 64zM23.97 48.79h-11.5c-.78 0-1.41-.63-1.41-1.41v-3.15c0-.78.63-1.41 1.41-1.41h11.5c.78 0 1.41.63 1.41 1.41v3.15C25.38 48.16 24.75 48.79 23.97 48.79zM12.47 43.81c-.23 0-.43.19-.43.43v3.15c0 .23.19.43.43.43h11.5c.23 0 .43-.19.43-.43v-3.15c0-.23-.19-.43-.43-.43H12.47zM23.97 58.96h-11.5c-.78 0-1.41-.63-1.41-1.41V54.4c0-.78.63-1.41 1.41-1.41h11.5c.78 0 1.41.63 1.41 1.41v3.15C25.38 58.33 24.75 58.96 23.97 58.96zM12.47 53.97c-.23 0-.43.19-.43.43v3.15c0 .23.19.43.43.43h11.5c.23 0 .43-.19.43-.43V54.4c0-.23-.19-.43-.43-.43H12.47zM25.73 21.18H10.71c-.27 0-.49-.22-.49-.49V5.35c0-.27.22-.49.49-.49h15.01c.27 0 .49.22.49.49v15.34C26.22 20.96 26 21.18 25.73 21.18zM11.21 20.19h14.03V5.84H11.21V20.19zM38.58 15.07c-2.57 0-4.66-2.09-4.66-4.66 0-2.57 2.09-4.66 4.66-4.66 1.14 0 2.25.42 3.11 1.2.2.18.22.49.04.7-.18.2-.49.22-.7.04-.68-.61-1.55-.94-2.45-.94-2.02 0-3.67 1.65-3.67 3.67 0 2.02 1.65 3.67 3.67 3.67.9 0 1.77-.34 2.45-.94.2-.18.51-.16.7.04.18.2.16.51-.04.7C40.83 14.64 39.73 15.07 38.58 15.07zM48.42 15.07c-.2 0-.39-.13-.46-.32l-3.14-8.33c-.1-.25.03-.54.29-.63.25-.1.54.03.63.29l2.68 7.1 2.65-7.1c.1-.25.38-.38.63-.29.25.1.38.38.29.63l-3.1 8.33C48.81 14.94 48.65 15.07 48.42 15.07zM23.74 38.61H12.7c-.89 0-1.61-.72-1.61-1.61v-4.66c0-.27.22-.49.49-.49.27 0 .49.22.49.49V37c0 .34.28.62.62.62h11.05c.34 0 .62-.28.62-.62v-4.66c0-.27.22-.49.49-.49.27 0 .49.22.49.49V37C25.35 37.88 24.63 38.61 23.74 38.61z"></path>
    <path d="M16.96,34.16c-0.04,0-0.08,0-0.12-0.01l-5.02-1.23c-0.94-0.23-1.59-1.06-1.59-2.01v-2.83c0-1.01,0.81-1.84,1.81-1.84
				h12.37c1,0,1.81,0.82,1.81,1.84v2.83c0,0.95-0.65,1.78-1.59,2.01l-5.03,1.23c-0.27,0.06-0.53-0.1-0.6-0.36
				c-0.06-0.26,0.1-0.53,0.36-0.6l5.03-1.23c0.49-0.12,0.84-0.56,0.84-1.05v-2.83c0-0.47-0.37-0.85-0.83-0.85H12.03
				c-0.46,0-0.83,0.38-0.83,0.85v2.83c0,0.5,0.35,0.93,0.84,1.05l5.02,1.23c0.26,0.06,0.43,0.33,0.36,0.6
				C17.38,34.01,17.18,34.16,16.96,34.16z"></path>
    <path d="M18.97 35.9h-1.5c-.55 0-1.01-.45-1.01-1.01v-1.85c0-.55.45-1.01 1.01-1.01h1.5c.55 0 1.01.45 1.01 1.01v1.85C19.98 35.45 19.53 35.9 18.97 35.9zM17.47 33.03l-.02 1.87 1.52.02c.01 0 .02-.01.02-.02v-1.85L17.47 33.03zM20.47 27.23c-.27 0-.49-.22-.49-.49V25.3l-3.55-.02.03 1.46c0 .27-.22.49-.49.49-.27 0-.49-.22-.49-.49V25.3c0-.56.43-1.01.95-1.01h3.59c.52 0 .95.45.95 1.01v1.43C20.97 27.01 20.74 27.23 20.47 27.23zM52.31 23.25H33.64c-.27 0-.49-.22-.49-.49 0-.27.22-.49.49-.49h18.67c.27 0 .49.22.49.49C52.8 23.03 52.58 23.25 52.31 23.25zM52.31 31.33H33.64c-.27 0-.49-.22-.49-.49s.22-.49.49-.49h18.67c.27 0 .49.22.49.49S52.58 31.33 52.31 31.33zM52.31 39.41H33.64c-.27 0-.49-.22-.49-.49s.22-.49.49-.49h18.67c.27 0 .49.22.49.49S52.58 39.41 52.31 39.41z"></path>
    <g>
        <path d="M52.31,47.49H33.64c-0.27,0-0.49-0.22-0.49-0.49c0-0.27,0.22-0.49,0.49-0.49h18.67c0.27,0,0.49,0.22,0.49,0.49
			C52.8,47.26,52.58,47.49,52.31,47.49z"></path>
    </g>
    <g>
        <path d="M52.31,55.56H33.64c-0.27,0-0.49-0.22-0.49-0.49s0.22-0.49,0.49-0.49h18.67c0.27,0,0.49,0.22,0.49,0.49
			S52.58,55.56,52.31,55.56z"></path>
    </g>
    <g>
        <path d="M18.22,14.58c-1.9,0-3.45-1.55-3.45-3.45c0-1.9,1.55-3.45,3.45-3.45c1.9,0,3.44,1.55,3.44,3.45
			C21.67,13.03,20.12,14.58,18.22,14.58z M18.22,8.67c-1.36,0-2.46,1.1-2.46,2.46c0,1.36,1.1,2.46,2.46,2.46
			c1.36,0,2.46-1.1,2.46-2.46C20.68,9.77,19.58,8.67,18.22,8.67z"></path>
    </g>
    <g>
        <path d="M24.33,21.18c-0.27,0-0.49-0.22-0.49-0.49v-0.47c0-1.92-1.56-3.48-3.48-3.48h-4.28c-1.92,0-3.48,1.56-3.48,3.48v0.47
				c0,0.27-0.22,0.49-0.49,0.49c-0.27,0-0.49-0.22-0.49-0.49v-0.47c0-2.46,2-4.46,4.46-4.46h4.28c2.46,0,4.46,2,4.46,4.46v0.47
				C24.82,20.96,24.6,21.18,24.33,21.18z"></path>
    </g>
</svg>