<?xml version="1.0" encoding="UTF-8" standalone="no"?>
<svg
   enable-background="new 0 0 1077 220"
   viewBox="0 0 128 128"
   version="1.1"
   id="svg9"
   width="128"
   height="128"
   xml:space="preserve"
   xmlns="http://www.w3.org/2000/svg"
   xmlns:svg="http://www.w3.org/2000/svg"><defs
     id="defs9" /><path
     fill="#1384c8"
     fill-rule="evenodd"
     d="m 82.45933,78.713946 c 0.48836,-1.25607 1.04196,-2.49277 1.45488,-3.77331 2.3327,-7.23565 4.64297,-14.47742 6.93795,-21.725306 0.88189,-2.784355 1.84842,-5.52589 3.58367,-7.918743 2.74459,-3.781462 6.56785,-5.762423 11.09256,-6.454688 1.77501,-0.271197 3.58673,-0.3966 5.38315,-0.413932 5.3699,-0.05098 10.74184,-0.01529 16.11276,-0.01019 0.28548,0 0.57095,0.02957 0.9757,0.05302 -0.13152,0.309939 -0.20289,0.535256 -0.31707,0.738144 -1.9932,3.562262 -3.94765,7.145934 -5.99998,10.672512 -3.57348,6.139653 -7.15307,12.277263 -10.8387,18.349623 -2.3643,3.89361 -4.92844,7.66692 -7.83718,11.1884 -2.14612,2.59778 -4.40541,5.08137 -7.28561,6.90226 -1.9626,1.24078 -4.05877,1.96669 -6.43837,1.95446 -8.43973,-0.0459 -16.87945,-0.0122 -25.31918,-0.0245 -2.50908,-0.004 -4.65725,-0.95939 -6.48018,-2.65386 -2.61307,-2.42751 -4.17296,-5.51773 -5.44942,-8.77617 -2.32862,-5.949 -3.63261,-12.18449 -5.12929,-18.36594 -0.70144,-2.89344 -1.49872,-5.764459 -2.25828,-8.643631 -0.0489,-0.186575 -0.14477,-0.360916 -0.25488,-0.629054 l -0.58827,0.552589 c -3.29107,3.269654 -6.18961,6.872696 -8.78331,10.703096 -0.70654,1.04401 -0.94409,2.42038 -1.33866,3.66116 -1.45182,4.55733 -2.77517,9.1585 -4.3473,13.67301 -1.50586,4.32487 -4.20559,7.76479 -8.42545,9.79775 -2.46728,1.18776 -5.10177,1.83007 -7.83922,1.89124 -4.0577603,0.0897 -8.1175603,0.0999 -12.17633032,0.13662 -0.9706,0.009 -1.01546,-0.0703 -0.76262,-1.00935 1.74035002,-6.46182 3.94561002,-12.75848 6.70856002,-18.85327 2.84858,-6.28749 6.2038803,-12.28338 10.4308803,-17.759314 2.87815,-3.728447 6.05707,-7.168364 10.0353,-9.769203 2.01766,-1.318261 4.16277,-2.360228 6.60354,-2.634483 0.4017,-0.04588 0.80849,-0.07443 1.21223,-0.07443 8.64363,-0.0041 17.28727,0.0836 25.92988,-0.03976 4.63584,-0.06627 7.99215,1.891241 10.50531,5.622746 1.56295,2.320466 2.68138,4.854015 3.62241,7.471166 1.89736,5.279158 3.07697,10.753058 4.4095,16.188208 0.76262,3.11061 1.61189,6.1998 2.42548,9.29818 0.0612,0.23245 0.16007,0.45471 0.24265,0.68105 z"
     clip-rule="evenodd"
     id="path1"
     style="stroke-width:1.01954" /></svg>
