<?xml version="1.0" encoding="UTF-8" standalone="no"?>
<svg
   width="128"
   height="128"
   preserveAspectRatio="xMinYMin"
   viewBox="0 0 13.1072 13.105423"
   id="gitlab"
   version="1.1"
   xmlns="http://www.w3.org/2000/svg"
   xmlns:svg="http://www.w3.org/2000/svg">
  <defs
     id="defs7" />
  <g
     id="g7"
     transform="matrix(0.0512359,0,0,0.0512359,0.15616865,0.39907389)">
    <path
       fill="#e24329"
       d="M 128.075,236.075 175.179,91.105 H 80.97 l 47.104,144.97 z"
       id="path1" />
    <path
       fill="#fc6d26"
       d="M 128.075,236.074 80.97,91.104 H 14.956 Z"
       id="path2" />
    <path
       fill="#fca326"
       d="M 14.956,91.104 0.642,135.16 a 9.752,9.752 0 0 0 3.542,10.903 L 128.075,236.075 14.955,91.105 Z"
       id="path3" />
    <path
       fill="#e24329"
       d="M 14.956,91.105 H 80.97 L 52.601,3.79 c -1.46,-4.493 -7.816,-4.492 -9.275,0 z"
       id="path4" />
    <path
       fill="#fc6d26"
       d="m 128.075,236.074 47.104,-144.97 h 66.015 l -113.12,144.97 z"
       id="path5" />
    <path
       fill="#fca326"
       d="m 241.194,91.104 14.314,44.056 a 9.752,9.752 0 0 1 -3.543,10.903 l -123.89,90.012 113.119,-144.97 z"
       id="path6" />
    <path
       fill="#e24329"
       d="M 241.194,91.105 H 175.179 L 203.549,3.79 c 1.46,-4.493 7.816,-4.492 9.275,0 z"
       id="path7" />
  </g>
</svg>
