<?xml version="1.0" encoding="UTF-8" standalone="no"?><!-- Generator: Gravit.io --><svg xmlns="http://www.w3.org/2000/svg" xmlns:xlink="http://www.w3.org/1999/xlink" style="isolation:isolate" viewBox="0 0 48 48" width="48pt" height="48pt"><defs><clipPath id="_clipPath_ofty79h8FZN9b9KL9baxIPDfzNnRBBIQ"><rect width="48" height="48"/></clipPath></defs><g clip-path="url(#_clipPath_ofty79h8FZN9b9KL9baxIPDfzNnRBBIQ)"><g><path d=" M 47.463 38.133 C 47.714 37.757 47.882 37.332 47.956 36.886 C 48.031 36.44 48.01 35.984 47.896 35.547 C 47.73 34.916 47.386 34.391 46.921 34.014 C 47.145 33.646 47.292 33.235 47.353 32.808 C 47.487 31.879 47.179 30.952 46.486 30.195 C 45.946 29.606 45.182 29.282 44.336 29.282 C 44.238 29.282 44.138 29.287 44.036 29.298 C 44.677 27.25 45.002 25.116 45 22.97 C 45 11.298 35.536 1.834 23.863 1.834 C 12.191 1.834 2.727 11.295 2.727 22.97 C 2.725 25.11 3.048 27.239 3.686 29.283 L 3.663 29.283 C 2.818 29.283 2.054 29.606 1.514 30.195 C 0.821 30.951 0.512 31.879 0.646 32.809 C 0.708 33.236 0.855 33.646 1.079 34.015 C 0.613 34.391 0.27 34.916 0.104 35.547 C -0.01 35.984 -0.031 36.441 0.044 36.887 C 0.118 37.333 0.287 37.758 0.537 38.134 C 0.492 38.203 0.451 38.275 0.413 38.349 C -0.005 39.142 -0.032 40.038 0.337 40.872 C 0.896 42.137 2.285 43.134 4.984 44.204 C 6.661 44.869 8.198 45.294 8.21 45.298 C 10.429 45.874 12.437 46.166 14.173 46.166 C 17.026 46.166 19.155 45.386 20.513 43.844 C 22.813 44.209 25.157 44.196 27.453 43.805 C 28.811 45.373 30.952 46.166 33.828 46.166 C 35.566 46.166 37.573 45.874 39.791 45.298 C 39.804 45.294 41.34 44.869 43.017 44.204 C 45.716 43.134 47.104 42.138 47.664 40.872 C 48.033 40.038 48.006 39.142 47.588 38.349 C 47.55 38.275 47.508 38.203 47.464 38.134 L 47.463 38.133 Z  M 19.552 41.43 C 19.435 41.634 19.309 41.834 19.176 42.029 C 18.825 42.543 18.362 42.936 17.826 43.228 C 16.8 43.787 15.503 43.983 14.185 43.983 C 12.102 43.983 9.965 43.495 8.77 43.185 C 8.711 43.17 1.434 41.114 2.355 39.363 C 2.51 39.069 2.765 38.952 3.086 38.952 C 4.384 38.952 6.745 40.883 7.761 40.883 C 7.987 40.883 8.147 40.787 8.213 40.551 C 8.645 38.999 1.637 38.347 2.228 36.099 C 2.332 35.702 2.614 35.54 3.012 35.54 C 4.727 35.54 8.577 38.557 9.382 38.557 C 9.444 38.557 9.488 38.539 9.512 38.501 L 9.522 38.483 C 9.9 37.859 9.683 37.406 7.094 35.82 L 6.846 35.669 C 3.997 33.944 1.996 32.907 3.134 31.669 C 3.265 31.526 3.45 31.463 3.676 31.463 C 3.943 31.463 4.266 31.553 4.623 31.702 C 6.127 32.337 8.212 34.067 9.084 34.821 C 9.341 35.045 9.493 35.181 9.493 35.181 C 9.493 35.181 10.596 36.328 11.263 36.328 C 11.416 36.328 11.546 36.268 11.635 36.118 C 12.108 35.321 7.243 31.634 6.968 30.113 C 6.782 29.082 7.098 28.56 7.684 28.56 C 7.962 28.56 8.301 28.679 8.676 28.916 C 9.839 29.655 12.085 33.513 12.908 35.014 C 13.184 35.517 13.654 35.73 14.078 35.73 C 14.919 35.73 15.577 34.894 14.155 33.831 C 12.018 32.232 12.768 29.619 13.788 29.459 C 13.831 29.453 13.875 29.449 13.919 29.449 C 14.847 29.449 15.256 31.047 15.256 31.047 C 15.256 31.047 16.455 34.058 18.515 36.117 C 20.384 37.985 20.645 39.518 19.556 41.429 L 19.552 41.43 L 19.552 41.43 Z  M 26.212 41.782 L 26.105 41.795 L 25.923 41.816 C 25.827 41.826 25.731 41.835 25.635 41.844 L 25.541 41.853 L 25.456 41.86 L 25.334 41.87 C 25.289 41.873 25.244 41.877 25.199 41.879 L 25.065 41.888 L 25.036 41.89 L 24.93 41.896 L 24.886 41.899 L 24.76 41.905 L 24.615 41.911 L 24.483 41.915 L 24.395 41.918 L 24.351 41.918 C 24.323 41.918 24.296 41.919 24.268 41.92 L 24.225 41.92 C 24.197 41.92 24.17 41.92 24.142 41.921 L 24.03 41.922 L 23.874 41.922 C 23.751 41.922 23.629 41.921 23.506 41.919 L 23.407 41.917 C 23.379 41.917 23.351 41.915 23.323 41.914 L 23.218 41.911 L 23.088 41.906 L 22.97 41.901 L 22.94 41.9 L 22.828 41.894 C 22.797 41.892 22.766 41.891 22.735 41.889 L 22.663 41.884 C 22.572 41.879 22.482 41.872 22.391 41.865 L 22.296 41.858 L 22.176 41.847 L 22.035 41.834 C 21.957 41.827 21.879 41.819 21.801 41.81 L 21.797 41.81 C 22.94 39.259 22.362 36.878 20.052 34.572 C 18.537 33.06 17.529 30.826 17.321 30.336 C 16.898 28.884 15.777 27.269 13.917 27.269 C 13.76 27.269 13.603 27.282 13.448 27.307 C 12.632 27.435 11.92 27.904 11.412 28.61 C 10.863 27.927 10.329 27.384 9.846 27.077 C 9.118 26.615 8.392 26.381 7.685 26.381 C 6.802 26.381 6.012 26.744 5.462 27.402 L 5.448 27.419 L 5.417 27.288 L 5.416 27.283 C 5.311 26.835 5.223 26.383 5.152 25.929 C 5.152 25.926 5.152 25.923 5.151 25.92 L 5.135 25.817 C 5.127 25.762 5.119 25.706 5.111 25.65 C 5.104 25.604 5.098 25.558 5.092 25.512 C 5.086 25.466 5.079 25.419 5.074 25.373 C 5.068 25.327 5.062 25.28 5.057 25.234 C 5.051 25.19 5.046 25.146 5.042 25.102 L 5.04 25.091 C 5.018 24.888 4.998 24.684 4.982 24.481 L 4.973 24.363 C 4.971 24.331 4.968 24.298 4.966 24.265 C 4.966 24.258 4.966 24.25 4.965 24.243 L 4.957 24.113 C 4.954 24.065 4.951 24.018 4.949 23.971 C 4.946 23.924 4.944 23.877 4.942 23.829 L 4.937 23.705 L 4.935 23.668 L 4.932 23.553 L 4.929 23.456 C 4.929 23.417 4.927 23.378 4.926 23.34 L 4.924 23.217 C 4.924 23.177 4.924 23.136 4.923 23.095 C 4.922 23.054 4.923 23.013 4.923 22.972 C 4.923 12.506 13.41 4.02 23.879 4.02 C 34.348 4.02 42.834 12.506 42.834 22.972 L 42.834 23.217 C 42.834 23.258 42.833 23.299 42.832 23.34 C 42.832 23.374 42.831 23.407 42.83 23.441 C 42.83 23.471 42.829 23.501 42.828 23.53 C 42.828 23.569 42.825 23.607 42.824 23.645 L 42.824 23.648 C 42.821 23.731 42.817 23.814 42.814 23.897 L 42.812 23.925 L 42.806 24.049 L 42.8 24.147 C 42.786 24.38 42.767 24.613 42.745 24.845 L 42.745 24.848 C 42.741 24.892 42.737 24.936 42.732 24.979 C 42.721 25.081 42.71 25.182 42.698 25.283 L 42.686 25.385 L 42.67 25.504 C 42.664 25.548 42.658 25.592 42.652 25.635 C 42.645 25.684 42.638 25.733 42.631 25.781 L 42.614 25.896 L 42.593 26.026 C 42.586 26.069 42.579 26.112 42.571 26.155 C 42.562 26.198 42.556 26.241 42.548 26.285 C 42.533 26.371 42.518 26.456 42.501 26.542 C 42.468 26.713 42.433 26.883 42.396 27.053 C 42.387 27.096 42.378 27.138 42.368 27.18 C 41.834 26.662 41.128 26.38 40.349 26.38 C 39.642 26.38 38.915 26.613 38.187 27.075 C 37.704 27.382 37.171 27.925 36.621 28.608 C 36.112 27.902 35.4 27.433 34.586 27.304 C 34.431 27.28 34.274 27.268 34.116 27.268 C 32.256 27.268 31.135 28.881 30.712 30.334 C 30.503 30.824 29.495 33.057 27.979 34.573 C 25.671 36.873 25.088 39.245 26.214 41.784 L 26.212 41.782 L 26.212 41.782 Z  M 45.78 36.678 L 45.773 36.7 C 45.768 36.714 45.762 36.728 45.757 36.742 C 45.748 36.764 45.738 36.784 45.728 36.805 C 45.704 36.855 45.676 36.903 45.646 36.949 C 45.604 37.011 45.558 37.071 45.509 37.127 C 45.497 37.14 45.486 37.152 45.473 37.165 C 45.456 37.184 45.437 37.203 45.418 37.222 C 45.081 37.556 44.568 37.848 43.988 38.117 C 43.922 38.147 43.856 38.176 43.788 38.206 L 43.721 38.236 C 43.676 38.256 43.632 38.275 43.585 38.295 C 43.539 38.314 43.493 38.333 43.447 38.352 L 43.308 38.41 C 42.981 38.544 42.647 38.672 42.32 38.799 L 42.181 38.853 L 42.043 38.907 C 41.951 38.943 41.861 38.978 41.772 39.014 L 41.639 39.068 L 41.508 39.121 L 41.444 39.148 C 41.402 39.166 41.36 39.183 41.318 39.201 C 40.358 39.613 39.668 40.032 39.813 40.552 C 39.817 40.567 39.822 40.581 39.827 40.594 C 39.84 40.633 39.857 40.669 39.879 40.703 C 39.892 40.724 39.907 40.743 39.924 40.761 C 40.095 40.938 40.405 40.91 40.796 40.769 C 40.828 40.758 40.861 40.745 40.893 40.732 C 40.916 40.724 40.938 40.715 40.961 40.706 L 40.995 40.692 C 41.084 40.654 41.179 40.611 41.276 40.565 C 41.3 40.554 41.325 40.543 41.349 40.53 C 41.828 40.296 42.37 39.981 42.908 39.694 C 42.991 39.649 43.074 39.606 43.156 39.564 C 43.29 39.494 43.426 39.427 43.563 39.362 C 44.073 39.123 44.552 38.953 44.937 38.953 C 45.118 38.953 45.278 38.99 45.411 39.075 L 45.433 39.089 C 45.5 39.137 45.559 39.195 45.606 39.262 C 45.617 39.278 45.629 39.294 45.639 39.311 C 45.649 39.328 45.659 39.346 45.669 39.364 C 45.859 39.725 45.7 40.1 45.327 40.467 C 44.969 40.819 44.412 41.164 43.779 41.484 C 43.733 41.508 43.685 41.531 43.638 41.554 C 41.754 42.479 39.289 43.176 39.254 43.185 C 38.596 43.355 37.656 43.579 36.597 43.746 L 36.441 43.77 L 36.415 43.774 C 36.175 43.81 35.934 43.842 35.693 43.869 L 35.671 43.872 C 35.232 43.922 34.781 43.958 34.33 43.973 L 34.324 43.973 C 34.162 43.979 34 43.982 33.838 43.982 L 33.651 43.982 C 33.404 43.978 33.157 43.967 32.911 43.948 C 32.905 43.948 32.899 43.948 32.893 43.947 C 32.805 43.94 32.717 43.932 32.629 43.922 C 32.478 43.906 32.327 43.886 32.177 43.863 C 32.118 43.853 32.056 43.843 31.996 43.832 C 31.968 43.827 31.941 43.822 31.913 43.817 L 31.907 43.815 C 31.82 43.799 31.734 43.781 31.648 43.761 C 31.598 43.75 31.548 43.738 31.499 43.725 L 31.469 43.717 C 31.445 43.711 31.421 43.705 31.397 43.698 L 31.383 43.695 L 31.306 43.673 C 31.278 43.665 31.25 43.656 31.222 43.648 L 31.212 43.645 L 31.14 43.623 C 31.112 43.614 31.085 43.605 31.058 43.597 C 31.035 43.589 31.013 43.581 30.99 43.574 L 30.941 43.557 C 30.894 43.54 30.847 43.523 30.8 43.505 L 30.755 43.487 L 30.718 43.473 C 30.647 43.444 30.577 43.414 30.507 43.383 L 30.461 43.361 L 30.453 43.357 C 30.436 43.35 30.42 43.342 30.404 43.335 C 30.371 43.319 30.339 43.303 30.308 43.287 L 30.298 43.282 L 30.252 43.258 C 30.17 43.216 30.09 43.17 30.011 43.122 L 29.968 43.095 C 29.946 43.082 29.926 43.068 29.905 43.054 L 29.849 43.017 C 29.828 43.004 29.808 42.99 29.788 42.976 L 29.752 42.95 C 29.714 42.923 29.677 42.895 29.64 42.866 C 29.621 42.851 29.602 42.836 29.582 42.821 C 29.539 42.787 29.498 42.752 29.456 42.716 L 29.455 42.714 C 29.414 42.679 29.375 42.643 29.337 42.607 L 29.335 42.604 C 29.315 42.585 29.295 42.566 29.276 42.546 C 29.257 42.527 29.237 42.507 29.218 42.487 C 29.199 42.467 29.18 42.447 29.162 42.426 C 29.144 42.407 29.126 42.387 29.109 42.367 L 29.103 42.36 C 29.013 42.255 28.928 42.146 28.85 42.031 L 28.819 41.986 C 28.798 41.955 28.778 41.925 28.758 41.894 L 28.699 41.804 C 28.67 41.759 28.642 41.714 28.614 41.67 C 28.594 41.638 28.575 41.605 28.556 41.573 C 28.539 41.546 28.523 41.518 28.508 41.491 C 28.499 41.477 28.491 41.462 28.482 41.447 C 28.474 41.431 28.464 41.415 28.456 41.4 L 28.442 41.375 C 28.437 41.367 28.435 41.364 28.433 41.359 C 28.416 41.329 28.399 41.299 28.383 41.268 C 28.376 41.255 28.369 41.241 28.361 41.228 L 28.338 41.185 L 28.316 41.142 L 28.273 41.055 C 28.266 41.041 28.259 41.027 28.253 41.012 C 28.238 40.982 28.224 40.951 28.21 40.921 C 28.204 40.909 28.199 40.897 28.194 40.884 C 28.174 40.843 28.156 40.8 28.139 40.758 C 28.127 40.729 28.116 40.701 28.105 40.673 C 28.073 40.591 28.042 40.508 28.015 40.423 C 28.006 40.398 27.998 40.373 27.991 40.348 C 27.973 40.292 27.957 40.234 27.942 40.177 C 27.924 40.109 27.909 40.041 27.895 39.973 C 27.887 39.933 27.879 39.892 27.873 39.851 C 27.866 39.811 27.861 39.771 27.856 39.731 C 27.846 39.651 27.838 39.571 27.834 39.491 C 27.834 39.478 27.833 39.464 27.833 39.451 C 27.831 39.424 27.831 39.398 27.83 39.371 C 27.816 38.303 28.357 37.275 29.513 36.12 C 31.573 34.062 32.772 31.05 32.772 31.05 C 32.772 31.05 32.805 30.924 32.872 30.742 C 32.894 30.682 32.918 30.622 32.943 30.563 C 32.971 30.496 33.001 30.43 33.034 30.365 L 33.043 30.346 C 33.085 30.262 33.13 30.182 33.179 30.103 C 33.191 30.085 33.202 30.066 33.215 30.048 C 33.251 29.994 33.29 29.941 33.331 29.89 C 33.362 29.851 33.396 29.813 33.431 29.777 C 33.551 29.653 33.687 29.553 33.841 29.499 L 33.861 29.493 C 33.874 29.489 33.887 29.485 33.9 29.481 C 33.915 29.477 33.931 29.473 33.946 29.47 L 33.953 29.469 C 33.986 29.462 34.019 29.458 34.052 29.455 L 34.055 29.455 C 34.072 29.455 34.09 29.454 34.107 29.454 C 34.152 29.454 34.196 29.457 34.239 29.464 C 34.425 29.493 34.602 29.604 34.754 29.775 L 34.774 29.799 C 34.824 29.857 34.869 29.919 34.909 29.984 C 34.939 30.032 34.967 30.083 34.994 30.136 C 35.005 30.158 35.015 30.179 35.025 30.201 C 35.03 30.212 35.035 30.223 35.04 30.235 C 35.05 30.257 35.059 30.279 35.069 30.303 C 35.121 30.437 35.161 30.575 35.19 30.716 C 35.22 30.869 35.238 31.023 35.243 31.179 C 35.244 31.247 35.244 31.316 35.243 31.386 C 35.241 31.412 35.24 31.439 35.238 31.466 C 35.218 31.763 35.153 32.056 35.046 32.334 C 35.035 32.362 35.023 32.39 35.012 32.418 C 34.958 32.546 34.896 32.671 34.825 32.791 C 34.785 32.86 34.742 32.928 34.695 32.995 L 34.667 33.036 C 34.556 33.19 34.433 33.334 34.299 33.468 C 34.166 33.601 34.024 33.723 33.874 33.836 C 33.723 33.947 33.582 34.071 33.451 34.205 C 33.075 34.6 32.988 34.947 33.072 35.211 C 33.082 35.241 33.094 35.27 33.107 35.299 C 33.139 35.36 33.179 35.416 33.228 35.465 L 33.241 35.478 C 33.255 35.492 33.269 35.504 33.284 35.517 L 33.299 35.529 C 33.336 35.557 33.374 35.582 33.414 35.604 C 33.426 35.61 33.437 35.616 33.45 35.622 C 33.505 35.65 33.563 35.672 33.622 35.689 L 33.639 35.693 L 33.661 35.699 L 33.681 35.704 L 33.701 35.708 L 33.722 35.712 L 33.742 35.716 C 33.757 35.718 33.772 35.721 33.787 35.723 L 33.801 35.725 L 33.827 35.727 L 33.843 35.729 L 33.869 35.731 L 33.885 35.731 L 33.912 35.732 L 33.999 35.732 L 34.024 35.731 L 34.052 35.729 L 34.087 35.726 L 34.119 35.722 C 34.127 35.722 34.134 35.72 34.142 35.719 C 34.256 35.702 34.368 35.67 34.473 35.622 C 34.496 35.613 34.518 35.602 34.539 35.591 C 34.583 35.569 34.625 35.545 34.666 35.517 C 34.724 35.48 34.778 35.438 34.828 35.392 L 34.864 35.358 C 34.869 35.353 34.875 35.347 34.88 35.342 C 34.915 35.307 34.947 35.271 34.978 35.232 C 35.031 35.165 35.079 35.093 35.12 35.017 C 35.609 34.128 36.122 33.251 36.658 32.389 L 36.732 32.271 L 36.806 32.153 C 36.843 32.094 36.881 32.034 36.918 31.976 L 36.956 31.917 L 37.031 31.8 C 37.132 31.644 37.233 31.489 37.335 31.336 L 37.411 31.222 C 37.565 30.996 37.717 30.775 37.868 30.565 L 37.944 30.462 C 38.108 30.234 38.28 30.013 38.457 29.796 L 38.528 29.712 C 38.54 29.697 38.55 29.684 38.563 29.67 L 38.633 29.589 C 38.644 29.576 38.655 29.563 38.667 29.55 L 38.734 29.475 L 38.768 29.438 C 38.8 29.403 38.833 29.368 38.867 29.334 C 38.889 29.311 38.91 29.289 38.932 29.268 C 39.059 29.138 39.199 29.022 39.349 28.921 L 39.384 28.899 L 39.419 28.876 C 39.442 28.862 39.465 28.849 39.488 28.836 C 40.079 28.501 40.569 28.476 40.85 28.758 C 41.021 28.928 41.116 29.211 41.111 29.605 C 41.111 29.622 41.111 29.639 41.109 29.657 L 41.109 29.677 C 41.109 29.695 41.108 29.713 41.106 29.731 C 41.106 29.754 41.104 29.776 41.101 29.798 C 41.099 29.821 41.098 29.838 41.096 29.858 C 41.096 29.863 41.095 29.869 41.094 29.875 C 41.092 29.892 41.09 29.91 41.088 29.928 C 41.088 29.933 41.088 29.938 41.085 29.944 C 41.083 29.968 41.079 29.991 41.075 30.015 C 41.072 30.037 41.069 30.058 41.065 30.08 C 41.063 30.093 41.06 30.105 41.058 30.117 C 41.052 30.153 41.043 30.188 41.033 30.223 C 41.014 30.287 40.99 30.351 40.963 30.412 C 40.951 30.439 40.938 30.466 40.925 30.492 C 40.898 30.546 40.867 30.602 40.834 30.659 C 40.817 30.687 40.8 30.717 40.781 30.746 L 40.753 30.79 C 40.725 30.835 40.695 30.88 40.664 30.926 C 40.633 30.972 40.6 31.019 40.564 31.066 C 40.518 31.129 40.469 31.193 40.417 31.258 L 40.378 31.308 C 40.268 31.445 40.155 31.58 40.039 31.713 L 39.948 31.817 L 39.901 31.869 C 39.837 31.94 39.773 32.011 39.708 32.082 L 39.659 32.135 C 39.626 32.171 39.592 32.207 39.559 32.242 C 39.526 32.279 39.492 32.315 39.458 32.351 L 39.355 32.459 L 39.25 32.568 C 39.216 32.604 39.181 32.641 39.145 32.677 L 38.933 32.896 C 37.919 33.936 36.85 34.973 36.488 35.62 C 36.464 35.662 36.443 35.705 36.423 35.75 C 36.372 35.867 36.35 35.968 36.365 36.049 C 36.369 36.076 36.379 36.101 36.393 36.125 C 36.413 36.16 36.438 36.192 36.466 36.221 C 36.48 36.235 36.493 36.247 36.508 36.258 C 36.583 36.311 36.673 36.338 36.764 36.335 L 36.793 36.335 L 36.822 36.333 L 36.851 36.33 L 36.876 36.326 C 36.879 36.326 36.882 36.325 36.885 36.325 L 36.908 36.32 L 36.914 36.319 L 36.938 36.314 L 36.973 36.305 L 37.004 36.295 C 37.025 36.289 37.045 36.282 37.066 36.274 C 37.112 36.258 37.156 36.24 37.199 36.219 C 37.21 36.214 37.221 36.209 37.232 36.203 L 37.265 36.186 C 37.309 36.164 37.352 36.141 37.396 36.115 C 37.431 36.094 37.465 36.073 37.5 36.051 L 37.533 36.029 C 37.544 36.022 37.555 36.015 37.566 36.006 L 37.6 35.984 L 37.617 35.972 L 37.665 35.938 C 37.71 35.907 37.752 35.876 37.794 35.843 L 37.798 35.841 L 37.865 35.789 C 37.957 35.716 38.044 35.643 38.123 35.574 L 38.175 35.528 L 38.18 35.523 L 38.208 35.499 C 38.272 35.441 38.33 35.387 38.378 35.343 L 38.397 35.324 L 38.444 35.279 L 38.473 35.251 L 38.482 35.241 L 38.485 35.239 C 38.509 35.215 38.509 35.215 38.533 35.19 L 38.535 35.188 L 38.544 35.18 C 38.547 35.177 38.551 35.174 38.555 35.171 L 38.558 35.167 L 38.568 35.159 L 38.619 35.114 L 38.647 35.088 C 38.661 35.076 38.677 35.062 38.692 35.048 L 38.726 35.018 C 38.732 35.013 38.738 35.007 38.745 35.001 L 38.78 34.97 L 38.833 34.924 L 38.861 34.9 C 38.97 34.805 39.102 34.691 39.254 34.562 L 39.316 34.51 L 39.419 34.423 L 39.524 34.335 C 39.662 34.221 39.81 34.1 39.967 33.974 L 40.069 33.891 C 40.157 33.822 40.247 33.75 40.338 33.679 C 40.374 33.65 40.412 33.621 40.45 33.593 C 40.543 33.521 40.637 33.449 40.731 33.378 C 40.946 33.216 41.167 33.054 41.391 32.896 L 41.487 32.829 C 41.554 32.782 41.621 32.736 41.688 32.691 L 41.749 32.649 C 41.869 32.568 41.991 32.489 42.113 32.412 L 42.174 32.373 L 42.234 32.336 C 42.294 32.299 42.355 32.262 42.414 32.226 L 42.474 32.19 L 42.594 32.121 C 42.633 32.098 42.672 32.075 42.711 32.054 L 42.734 32.04 L 42.828 31.989 C 42.866 31.968 42.905 31.948 42.943 31.928 L 43.001 31.899 L 43.056 31.871 C 43.183 31.807 43.312 31.748 43.444 31.694 C 43.462 31.686 43.48 31.679 43.498 31.671 C 43.533 31.657 43.568 31.643 43.603 31.631 C 43.637 31.619 43.672 31.607 43.705 31.595 C 43.736 31.585 43.766 31.575 43.795 31.566 L 43.805 31.563 C 43.82 31.559 43.836 31.554 43.851 31.55 L 43.856 31.549 C 43.887 31.54 43.919 31.532 43.95 31.524 L 43.953 31.524 C 44 31.513 44.045 31.503 44.09 31.496 C 44.105 31.493 44.12 31.491 44.135 31.489 C 44.178 31.482 44.221 31.478 44.265 31.475 C 44.292 31.473 44.32 31.472 44.348 31.472 L 44.369 31.472 C 44.397 31.472 44.424 31.474 44.45 31.477 C 44.463 31.477 44.475 31.479 44.487 31.481 L 44.492 31.481 C 44.504 31.482 44.516 31.484 44.528 31.486 C 44.54 31.489 44.552 31.491 44.563 31.493 L 44.567 31.493 C 44.579 31.496 44.59 31.499 44.602 31.502 C 44.697 31.528 44.785 31.577 44.858 31.644 L 44.864 31.65 L 44.877 31.663 L 44.889 31.676 C 44.99 31.781 45.073 31.902 45.135 32.034 L 45.145 32.056 C 45.166 32.106 45.183 32.158 45.195 32.211 C 45.227 32.359 45.219 32.513 45.169 32.656 C 45.148 32.718 45.122 32.779 45.091 32.837 L 45.071 32.874 C 44.993 33.004 44.901 33.126 44.796 33.237 L 44.773 33.26 C 44.724 33.313 44.673 33.364 44.62 33.412 C 44.603 33.428 44.586 33.444 44.569 33.46 L 44.542 33.484 C 44.487 33.532 44.431 33.58 44.374 33.626 C 44.364 33.634 44.353 33.642 44.344 33.651 C 44.304 33.683 44.263 33.715 44.22 33.748 C 44.074 33.86 43.925 33.968 43.772 34.072 C 43.683 34.134 43.59 34.195 43.495 34.258 C 43.317 34.375 43.137 34.489 42.956 34.601 C 42.904 34.634 42.852 34.666 42.798 34.699 C 42.306 35.001 41.761 35.325 41.179 35.677 L 41.028 35.769 C 40.863 35.869 40.708 35.965 40.562 36.056 L 40.488 36.103 L 40.348 36.192 C 40.293 36.227 40.239 36.262 40.187 36.296 C 40.147 36.321 40.109 36.346 40.071 36.371 L 39.997 36.42 C 39.96 36.444 39.924 36.468 39.888 36.492 L 39.853 36.514 C 39.816 36.539 39.78 36.563 39.745 36.587 L 39.688 36.626 L 39.621 36.673 L 39.559 36.716 C 39.461 36.785 39.364 36.855 39.268 36.927 L 39.234 36.952 C 39.197 36.981 39.16 37.009 39.125 37.037 L 39.079 37.074 C 39.001 37.136 38.931 37.196 38.867 37.253 L 38.836 37.281 C 38.819 37.298 38.801 37.314 38.785 37.33 C 38.773 37.341 38.762 37.352 38.75 37.363 L 38.734 37.379 C 38.698 37.415 38.664 37.452 38.63 37.489 L 38.613 37.509 C 38.577 37.551 38.545 37.592 38.516 37.632 L 38.504 37.65 C 38.471 37.697 38.442 37.747 38.418 37.8 L 38.409 37.818 L 38.404 37.831 L 38.4 37.842 L 38.394 37.857 C 38.392 37.862 38.389 37.871 38.387 37.879 C 38.377 37.909 38.369 37.94 38.364 37.971 L 38.362 37.988 L 38.36 38.003 L 38.358 38.018 L 38.358 38.097 C 38.358 38.103 38.358 38.11 38.36 38.117 C 38.36 38.121 38.361 38.125 38.361 38.129 C 38.361 38.135 38.363 38.142 38.364 38.148 L 38.368 38.176 L 38.368 38.177 C 38.37 38.186 38.372 38.195 38.374 38.203 C 38.376 38.212 38.379 38.222 38.381 38.231 C 38.389 38.259 38.399 38.287 38.41 38.315 C 38.41 38.317 38.412 38.319 38.413 38.321 C 38.416 38.328 38.419 38.335 38.422 38.341 C 38.434 38.37 38.448 38.398 38.463 38.425 L 38.479 38.453 L 38.495 38.482 L 38.512 38.51 C 38.515 38.515 38.519 38.519 38.522 38.523 L 38.528 38.529 L 38.534 38.535 L 38.541 38.54 C 38.545 38.543 38.55 38.546 38.555 38.549 C 38.56 38.551 38.566 38.554 38.571 38.556 C 38.577 38.558 38.583 38.559 38.589 38.561 C 38.734 38.593 39.03 38.474 39.424 38.266 L 39.495 38.228 L 39.615 38.163 L 39.673 38.131 C 39.715 38.108 39.758 38.083 39.801 38.058 L 39.88 38.013 C 40.401 37.714 41.024 37.328 41.667 36.952 C 41.727 36.917 41.788 36.882 41.848 36.847 L 41.97 36.769 C 42.03 36.734 42.091 36.7 42.152 36.666 C 42.41 36.519 42.672 36.377 42.937 36.242 L 43.056 36.182 C 43.135 36.143 43.213 36.105 43.291 36.068 C 43.441 35.997 43.592 35.929 43.745 35.866 L 43.828 35.832 L 43.839 35.828 C 44.282 35.652 44.685 35.543 45.01 35.543 C 45.081 35.542 45.151 35.548 45.221 35.56 L 45.223 35.56 C 45.245 35.564 45.266 35.569 45.286 35.574 L 45.29 35.574 C 45.32 35.581 45.349 35.59 45.378 35.602 C 45.401 35.61 45.423 35.62 45.444 35.631 C 45.537 35.679 45.617 35.749 45.676 35.835 C 45.681 35.842 45.686 35.849 45.691 35.857 C 45.713 35.891 45.732 35.926 45.747 35.963 C 45.757 35.984 45.765 36.006 45.773 36.03 C 45.781 36.054 45.788 36.077 45.795 36.102 C 45.848 36.291 45.843 36.492 45.78 36.678 L 45.78 36.678 L 45.78 36.678 Z " fill="rgb(255,157,0)"/><path d=" M 42.811 23.087 L 42.811 22.964 C 42.811 12.498 34.328 4.012 23.858 4.012 C 13.391 4.012 4.903 12.498 4.903 22.964 L 4.902 23.005 L 4.902 23.087 C 4.904 23.128 4.904 23.169 4.904 23.209 L 4.905 23.299 L 4.906 23.332 L 4.907 23.376 C 4.908 23.4 4.908 23.424 4.908 23.448 L 4.911 23.545 L 4.915 23.66 L 4.916 23.697 L 4.921 23.816 L 4.921 23.821 L 4.928 23.959 L 4.928 23.963 C 4.931 24.01 4.933 24.057 4.936 24.104 C 4.939 24.148 4.941 24.192 4.944 24.235 L 4.945 24.243 C 4.947 24.28 4.95 24.318 4.953 24.355 L 4.953 24.365 C 4.956 24.401 4.959 24.437 4.962 24.473 L 4.962 24.48 L 4.967 24.542 C 4.982 24.723 5 24.903 5.02 25.083 L 5.021 25.094 L 5.036 25.226 L 5.053 25.365 C 5.065 25.458 5.077 25.55 5.09 25.642 C 5.098 25.698 5.106 25.754 5.115 25.809 L 5.116 25.816 C 5.134 25.941 5.155 26.067 5.176 26.192 C 5.238 26.555 5.312 26.916 5.395 27.275 L 5.397 27.28 L 5.405 27.314 C 5.412 27.346 5.42 27.378 5.428 27.411 L 5.441 27.394 C 5.992 26.736 6.781 26.373 7.664 26.373 C 8.372 26.373 9.098 26.607 9.826 27.069 C 10.308 27.375 10.842 27.918 11.391 28.602 C 11.9 27.896 12.612 27.427 13.427 27.299 C 13.582 27.274 13.739 27.261 13.896 27.261 C 15.756 27.261 16.878 28.875 17.3 30.328 C 17.509 30.818 18.517 33.051 20.036 34.564 C 22.346 36.872 22.925 39.254 21.781 41.802 L 21.785 41.802 C 21.863 41.811 21.941 41.819 22.02 41.826 C 22.067 41.831 22.113 41.835 22.16 41.839 L 22.177 41.841 C 22.211 41.844 22.245 41.847 22.28 41.849 L 22.375 41.857 C 22.465 41.864 22.556 41.87 22.648 41.876 L 22.72 41.881 L 22.777 41.884 L 22.813 41.886 L 22.924 41.892 L 22.955 41.893 L 23.072 41.898 L 23.203 41.903 L 23.308 41.906 L 23.325 41.907 C 23.347 41.908 23.37 41.909 23.392 41.909 L 23.416 41.909 C 23.563 41.913 23.71 41.914 23.858 41.914 L 24.015 41.914 L 24.127 41.913 C 24.154 41.912 24.181 41.912 24.209 41.912 L 24.252 41.912 L 24.29 41.911 C 24.305 41.91 24.32 41.91 24.335 41.91 L 24.379 41.91 L 24.467 41.907 L 24.599 41.903 L 24.745 41.897 C 24.787 41.895 24.828 41.893 24.87 41.891 L 24.915 41.888 L 24.981 41.884 L 25.02 41.882 L 25.05 41.88 L 25.184 41.871 C 25.229 41.869 25.273 41.865 25.318 41.862 L 25.44 41.852 L 25.526 41.845 L 25.619 41.836 C 25.716 41.827 25.812 41.818 25.907 41.808 C 25.968 41.801 26.029 41.794 26.089 41.787 L 26.196 41.774 C 25.071 39.236 25.654 36.865 27.954 34.566 C 29.47 33.051 30.478 30.817 30.688 30.327 C 31.111 28.875 32.23 27.261 34.092 27.261 C 34.249 27.261 34.406 27.273 34.561 27.298 C 35.375 27.426 36.088 27.895 36.597 28.601 C 37.146 27.918 37.68 27.375 38.163 27.068 C 38.89 26.607 39.617 26.373 40.324 26.373 C 41.103 26.373 41.81 26.655 42.343 27.174 C 42.373 27.043 42.401 26.913 42.428 26.782 C 42.444 26.7 42.461 26.618 42.477 26.535 C 42.496 26.434 42.515 26.333 42.532 26.231 C 42.536 26.204 42.541 26.176 42.546 26.149 C 42.554 26.105 42.562 26.062 42.568 26.019 L 42.571 26.002 L 42.589 25.889 L 42.606 25.774 L 42.607 25.773 C 42.614 25.725 42.621 25.677 42.627 25.629 C 42.633 25.592 42.638 25.556 42.642 25.519 L 42.645 25.498 L 42.661 25.378 L 42.674 25.276 C 42.681 25.209 42.689 25.142 42.696 25.075 C 42.699 25.048 42.702 25.021 42.705 24.994 L 42.707 24.973 C 42.712 24.928 42.716 24.883 42.72 24.838 L 42.73 24.734 C 42.751 24.504 42.768 24.273 42.781 24.042 L 42.781 24.041 L 42.788 23.918 L 42.789 23.891 L 42.794 23.774 C 42.796 23.731 42.798 23.686 42.799 23.641 L 42.799 23.638 L 42.8 23.606 C 42.802 23.578 42.803 23.551 42.803 23.524 L 42.803 23.512 C 42.804 23.487 42.805 23.46 42.805 23.434 L 42.806 23.412 C 42.807 23.385 42.807 23.359 42.807 23.333 L 42.808 23.311 C 42.809 23.277 42.809 23.244 42.809 23.211 L 42.811 23.087 L 42.811 23.087 Z  M 19.159 42.022 C 20.66 39.821 20.553 38.168 18.494 36.11 C 16.434 34.052 15.235 31.04 15.235 31.04 C 15.235 31.04 14.788 29.292 13.767 29.452 C 12.747 29.613 11.998 32.226 14.134 33.824 C 16.271 35.424 13.71 36.508 12.887 35.007 C 12.065 33.506 9.821 29.647 8.655 28.91 C 7.492 28.172 6.673 28.585 6.947 30.106 C 7.084 30.861 8.351 32.15 9.536 33.353 C 10.737 34.575 11.853 35.709 11.615 36.109 C 11.141 36.906 9.474 35.172 9.474 35.172 C 9.474 35.172 4.252 30.42 3.116 31.658 C 2.068 32.8 3.684 33.77 6.175 35.265 C 6.387 35.392 6.605 35.523 6.828 35.658 C 9.677 37.383 9.899 37.838 9.494 38.489 C 9.345 38.731 8.391 38.158 7.218 37.454 C 5.219 36.253 2.581 34.67 2.209 36.087 C 1.886 37.313 3.826 38.065 5.585 38.746 C 7.051 39.313 8.391 39.833 8.194 40.538 C 7.989 41.268 6.882 40.659 5.67 39.993 C 4.311 39.244 2.822 38.425 2.334 39.35 C 1.412 41.098 8.689 43.156 8.749 43.171 C 11.1 43.781 17.07 45.073 19.158 42.015 L 19.159 42.022 Z  M 28.828 42.022 C 27.327 39.821 27.433 38.168 29.493 36.11 C 31.553 34.052 32.752 31.04 32.752 31.04 C 32.752 31.04 33.199 29.292 34.219 29.452 C 35.24 29.613 35.989 32.226 33.852 33.824 C 31.715 35.422 34.277 36.508 35.099 35.007 C 35.922 33.506 38.166 29.647 39.329 28.91 C 40.492 28.172 41.312 28.585 41.037 30.106 C 40.901 30.861 39.633 32.15 38.449 33.355 C 37.247 34.577 36.132 35.711 36.37 36.111 C 36.843 36.909 38.512 35.174 38.512 35.174 C 38.512 35.174 43.734 30.422 44.87 31.66 C 45.917 32.801 44.302 33.771 41.811 35.266 C 41.599 35.393 41.381 35.524 41.158 35.659 C 38.309 37.384 38.087 37.839 38.492 38.491 C 38.641 38.732 39.595 38.159 40.768 37.455 C 42.767 36.255 45.405 34.672 45.777 36.088 C 46.1 37.315 44.16 38.066 42.401 38.747 C 40.935 39.315 39.595 39.834 39.792 40.539 C 39.997 41.269 41.104 40.66 42.313 39.994 C 43.673 39.245 45.162 38.426 45.65 39.351 C 46.571 41.1 39.295 43.157 39.234 43.172 C 36.883 43.784 30.913 45.076 28.828 42.018 L 28.828 42.022 Z " fill="rgb(255,210,30)"/><path d=" M 30.031 17.805 C 30.326 17.909 30.546 18.228 30.755 18.53 C 31.038 18.94 31.301 19.32 31.705 19.106 C 32.181 18.853 32.572 18.464 32.827 17.989 C 33.082 17.514 33.191 16.974 33.139 16.437 C 33.101 16.035 32.974 15.647 32.767 15.301 C 32.56 14.955 32.279 14.658 31.945 14.433 C 31.61 14.209 31.229 14.061 30.831 14.001 C 30.432 13.941 30.025 13.97 29.638 14.087 C 29.122 14.242 28.663 14.547 28.32 14.963 C 27.977 15.38 27.765 15.888 27.711 16.424 C 27.657 16.961 27.763 17.502 28.016 17.978 C 28.203 18.33 28.618 18.164 29.057 17.989 C 29.4 17.852 29.758 17.708 30.031 17.805 Z  M 17.181 17.805 C 16.885 17.91 16.665 18.228 16.456 18.531 C 16.174 18.94 15.91 19.321 15.507 19.106 C 15.151 18.917 14.841 18.651 14.601 18.327 C 14.36 18.004 14.194 17.631 14.114 17.236 C 14.035 16.841 14.044 16.432 14.141 16.041 C 14.238 15.65 14.421 15.285 14.675 14.973 C 14.931 14.66 15.252 14.409 15.616 14.236 C 15.98 14.062 16.378 13.972 16.781 13.971 C 17.185 13.97 17.583 14.059 17.948 14.23 C 18.313 14.402 18.635 14.652 18.892 14.963 C 19.235 15.379 19.447 15.888 19.501 16.424 C 19.555 16.961 19.449 17.502 19.196 17.978 C 19.008 18.33 18.593 18.164 18.155 17.989 C 17.811 17.851 17.454 17.708 17.181 17.805 L 17.181 17.805 Z  M 28.043 29.497 C 30.079 27.893 30.826 25.273 30.826 23.66 C 30.826 22.384 29.968 22.786 28.594 23.466 L 28.517 23.504 C 27.256 24.129 25.576 24.96 23.735 24.96 C 21.892 24.96 20.213 24.129 18.953 23.504 C 17.535 22.802 16.645 22.361 16.645 23.66 C 16.645 25.325 17.441 28.057 19.626 29.645 C 19.914 29.06 20.32 28.54 20.818 28.119 C 21.316 27.698 21.896 27.384 22.521 27.198 C 22.739 27.133 22.964 27.508 23.194 27.892 C 23.416 28.263 23.642 28.642 23.873 28.642 C 24.119 28.642 24.36 28.269 24.596 27.904 C 24.842 27.523 25.082 27.151 25.315 27.225 C 26.484 27.601 27.462 28.415 28.043 29.497 L 28.043 29.497 Z " fill="rgb(50,52,61)"/><path d=" M 28.03 29.505 C 26.97 30.341 25.56 30.901 23.723 30.901 C 21.998 30.901 20.65 30.406 19.614 29.653 C 19.903 29.068 20.309 28.549 20.806 28.128 C 21.304 27.707 21.884 27.393 22.509 27.206 C 22.937 27.078 23.391 28.65 23.861 28.65 C 24.364 28.65 24.848 27.088 25.303 27.233 C 26.472 27.609 27.45 28.423 28.031 29.505 L 28.03 29.505 Z " fill="rgb(255,50,61)"/><path d=" M 12.306 20.076 C 12.113 20.206 11.895 20.297 11.667 20.343 C 11.438 20.389 11.202 20.389 10.973 20.344 C 10.745 20.299 10.527 20.209 10.333 20.08 C 10.139 19.95 9.972 19.784 9.842 19.59 C 9.713 19.396 9.623 19.178 9.577 18.95 C 9.532 18.721 9.532 18.485 9.578 18.256 C 9.624 18.028 9.715 17.811 9.845 17.617 C 9.975 17.423 10.142 17.257 10.336 17.128 C 10.727 16.869 11.205 16.775 11.665 16.867 C 12.125 16.959 12.53 17.23 12.79 17.62 C 13.051 18.01 13.146 18.488 13.056 18.948 C 12.965 19.408 12.695 19.814 12.306 20.076 Z  M 37.667 20.076 C 37.473 20.206 37.256 20.297 37.027 20.343 C 36.798 20.389 36.563 20.389 36.334 20.344 C 36.105 20.299 35.887 20.209 35.693 20.08 C 35.499 19.95 35.333 19.784 35.203 19.59 C 35.073 19.396 34.983 19.178 34.938 18.95 C 34.893 18.721 34.893 18.485 34.939 18.256 C 34.984 18.028 35.075 17.811 35.205 17.617 C 35.335 17.423 35.502 17.257 35.697 17.128 C 36.087 16.869 36.565 16.775 37.025 16.867 C 37.485 16.959 37.89 17.23 38.151 17.62 C 38.411 18.01 38.507 18.488 38.416 18.948 C 38.325 19.408 38.056 19.814 37.667 20.076 Z " fill="rgb(255,173,3)"/></g></g></svg>