<?xml version="1.0" encoding="UTF-8" standalone="no"?><!-- Generator: Gravit.io --><svg xmlns="http://www.w3.org/2000/svg" xmlns:xlink="http://www.w3.org/1999/xlink" style="isolation:isolate" viewBox="0 0 64 64" width="64pt" height="64pt"><defs><clipPath id="_clipPath_AvqZ7GhaBY1eDOypSzhOmZiJ9zYeNEWY"><rect width="64" height="64"/></clipPath></defs><g clip-path="url(#_clipPath_AvqZ7GhaBY1eDOypSzhOmZiJ9zYeNEWY)"><g><linearGradient id="_lgradient_0" x1="0.0915" y1="0.9085" x2="0.9085000000000001" y2="0.09150000000000003" gradientTransform="matrix(64,0,0,64,0,0)" gradientUnits="userSpaceOnUse"><stop offset="0%" stop-opacity="1" style="stop-color:rgb(255,193,7)"/><stop offset="50.7%" stop-opacity="1" style="stop-color:rgb(244,67,54)"/><stop offset="99%" stop-opacity="1" style="stop-color:rgb(156,39,176)"/></linearGradient><path d=" M 44 0 L 20 0 C 8.954 0 0 8.954 0 20 L 0 44 C 0 55.046 8.954 64 20 64 L 44 64 C 55.046 64 64 55.046 64 44 L 64 20 C 64 8.954 55.046 0 44 0 Z  M 58 44 C 58 51.72 51.72 58 44 58 L 20 58 C 12.28 58 6 51.72 6 44 L 6 20 C 6 12.28 12.28 6 20 6 L 44 6 C 51.72 6 58 12.28 58 20 L 58 44 Z " fill="url(#_lgradient_0)"/><linearGradient id="_lgradient_1" x1="0.14649999999999996" y1="0.8534999999999999" x2="0.8534999999999999" y2="0.14650000000000007" gradientTransform="matrix(32,0,0,32,16,16)" gradientUnits="userSpaceOnUse"><stop offset="0%" stop-opacity="1" style="stop-color:rgb(255,193,7)"/><stop offset="50.7%" stop-opacity="1" style="stop-color:rgb(244,67,54)"/><stop offset="99%" stop-opacity="1" style="stop-color:rgb(156,39,176)"/></linearGradient><path d=" M 32 16 C 23.163 16 16 23.163 16 32 C 16 40.837 23.163 48 32 48 C 40.837 48 48 40.837 48 32 C 48 23.163 40.837 16 32 16 Z  M 32 42 C 26.48 41.993 22.007 37.52 22 32 C 22 26.484 26.488 22 32 22 C 37.512 22 42 26.484 42 32 C 42 37.512 37.512 42 32 42 Z " fill="url(#_lgradient_1)"/><linearGradient id="_lgradient_2" x1="0.14634146341463428" y1="0.8536585365853653" x2="0.853658536585364" y2="0.14634146341463528" gradientTransform="matrix(4.264,0,0,4.264,47.068,12.668)" gradientUnits="userSpaceOnUse"><stop offset="0%" stop-opacity="1" style="stop-color:rgb(255,193,7)"/><stop offset="50.7%" stop-opacity="1" style="stop-color:rgb(244,67,54)"/><stop offset="99%" stop-opacity="1" style="stop-color:rgb(156,39,176)"/></linearGradient><circle vector-effect="non-scaling-stroke" cx="49.199999999999996" cy="14.800000000000002" r="2.131999999999998" fill="url(#_lgradient_2)"/></g></g></svg>