<?xml version="1.0" encoding="UTF-8" standalone="no"?><!-- Generator: Gravit.io -->
<svg xmlns="http://www.w3.org/2000/svg" style="isolation:isolate"
     viewBox="0 0 48 48" width="48pt" height="48pt">
    <defs>
        <clipPath id="_clipPath_c9JKBzG8FfEyqQ0pRHE86cnFGK5vi5SK">
            <rect width="48" height="48"/>
        </clipPath>
    </defs>
    <g clip-path="url(#_clipPath_c9JKBzG8FfEyqQ0pRHE86cnFGK5vi5SK)">
        <g>
            <path d=" M 36.771 18.415 C 36.137 18.415 35.539 18.661 35.094 19.108 L 33.29 20.908 C 32.803 21.393 32.554 22.068 32.605 22.759 C 32.609 22.796 32.613 22.834 32.617 22.873 C 32.682 23.404 32.914 23.881 33.292 24.257 C 33.551 24.517 33.839 24.681 34.187 24.796 C 34.205 24.901 34.215 25.006 34.215 25.113 C 34.215 25.59 34.029 26.037 33.692 26.374 L 33.581 26.485 C 32.979 26.279 32.476 25.978 32.023 25.526 C 31.421 24.925 31.021 24.166 30.871 23.333 L 30.851 23.218 L 30.76 23.293 C 30.699 23.343 30.639 23.396 30.584 23.452 L 28.78 25.251 C 27.856 26.174 27.856 27.676 28.78 28.597 C 29.243 29.058 29.849 29.29 30.459 29.29 C 31.069 29.29 31.675 29.058 32.136 28.597 L 33.94 26.797 C 34.864 25.875 34.864 24.374 33.94 23.452 C 33.694 23.206 33.399 23.02 33.066 22.901 C 33.049 22.792 33.039 22.685 33.039 22.579 C 33.039 22.06 33.245 21.569 33.619 21.195 C 34.223 21.401 34.757 21.733 35.211 22.185 C 35.812 22.784 36.21 23.543 36.363 24.378 L 36.383 24.493 L 36.474 24.42 C 36.535 24.37 36.594 24.317 36.65 24.261 L 38.453 22.462 C 39.378 21.539 39.38 20.036 38.453 19.116 C 38.006 18.67 37.41 18.423 36.775 18.423 L 36.773 18.423 L 36.771 18.415 Z "
                  fill="rgb(28,60,60)"/>
            <path d=" M 35.804 11.834 L 12.197 11.834 C 5.472 11.834 0 17.292 0 24 C 0 30.708 5.472 36.166 12.197 36.166 L 35.803 36.166 C 42.528 36.166 48 30.708 48 24 C 48 17.292 42.53 11.834 35.804 11.834 Z  M 24.161 30.907 C 23.771 30.989 23.334 31.003 23.037 30.692 C 22.928 30.943 22.671 30.81 22.473 30.779 C 22.455 30.83 22.439 30.876 22.421 30.925 C 21.764 30.969 21.271 30.3 20.958 29.795 C 20.336 29.458 19.63 29.254 18.994 28.904 C 18.958 29.484 19.085 30.201 18.531 30.575 C 18.503 31.688 20.22 30.706 20.376 31.535 C 20.253 31.549 20.119 31.515 20.022 31.608 C 19.574 32.042 19.059 31.28 18.545 31.594 C 17.852 31.943 17.782 32.228 16.925 32.299 C 16.878 32.228 16.898 32.18 16.937 32.137 C 17.179 31.858 17.196 31.527 17.608 31.408 C 17.185 31.341 16.828 31.575 16.472 31.761 C 16.007 31.951 16.011 31.333 15.296 31.794 C 15.217 31.729 15.254 31.672 15.3 31.622 C 15.482 31.4 15.722 31.369 15.991 31.381 C 14.664 30.644 14.041 32.281 13.427 31.468 C 13.243 31.517 13.174 31.682 13.057 31.798 C 12.956 31.69 13.033 31.557 13.037 31.428 C 12.918 31.373 12.766 31.345 12.801 31.155 C 12.568 31.076 12.403 31.214 12.229 31.345 C 12.073 31.224 12.336 31.046 12.384 30.919 C 12.524 30.676 12.843 30.87 13.005 30.694 C 13.467 30.432 14.11 30.856 14.637 30.785 C 15.042 30.836 15.545 30.42 15.341 30.005 C 14.908 29.45 14.983 28.728 14.975 28.066 C 14.922 27.68 13.993 27.189 13.724 26.774 C 13.391 26.4 13.134 25.964 12.875 25.538 C 11.942 23.737 12.235 21.422 11.059 19.749 C 10.527 20.042 9.834 19.904 9.376 19.512 C 9.129 19.738 9.117 20.031 9.099 20.343 C 8.505 19.751 8.58 18.631 9.054 17.972 C 9.248 17.712 9.479 17.496 9.739 17.308 C 9.798 17.265 9.816 17.225 9.816 17.158 C 10.285 15.051 13.488 15.457 14.502 16.95 C 15.236 17.869 15.458 19.084 16.292 19.937 C 17.412 21.161 18.689 22.24 19.725 23.543 C 20.703 24.735 21.402 26.13 22.011 27.538 C 22.261 28.005 22.263 28.577 22.631 28.977 C 22.813 29.219 23.7 29.874 23.508 30.106 C 23.619 30.347 24.448 30.678 24.161 30.911 L 24.161 30.911 L 24.161 30.907 Z  M 39.719 23.719 L 37.915 25.518 C 37.434 25.998 36.84 26.356 36.196 26.552 L 36.163 26.562 L 36.151 26.594 C 35.941 27.146 35.622 27.639 35.203 28.057 L 33.399 29.856 C 32.613 30.64 31.566 31.072 30.451 31.072 C 29.337 31.072 28.289 30.64 27.503 29.856 C 25.878 28.235 25.878 25.598 27.503 23.976 L 29.307 22.177 C 29.79 21.696 30.368 21.349 31.023 21.147 L 31.057 21.137 L 31.069 21.106 C 31.279 20.553 31.597 20.06 32.019 19.639 L 33.823 17.839 C 34.609 17.055 35.656 16.623 36.771 16.623 C 37.885 16.623 38.933 17.055 39.719 17.839 C 40.505 18.623 40.938 19.668 40.938 20.779 C 40.938 21.89 40.505 22.935 39.719 23.719 L 39.719 23.719 Z "
                  fill="rgb(28,60,60)"/>
            <path d=" M 16.822 28.73 C 16.664 29.345 16.612 30.393 15.811 30.422 C 15.745 30.777 16.056 30.911 16.343 30.797 C 16.624 30.668 16.759 30.9 16.854 31.129 C 17.29 31.193 17.933 30.985 17.959 30.47 C 17.309 30.096 17.107 29.387 16.826 28.728 L 16.826 28.728 L 16.822 28.73 Z "
                  fill="rgb(28,60,60)"/>
        </g>
    </g>
</svg>