<?xml version="1.0" encoding="UTF-8" standalone="no"?><!-- Generator: Gravit.io --><svg xmlns="http://www.w3.org/2000/svg" xmlns:xlink="http://www.w3.org/1999/xlink" style="isolation:isolate" viewBox="0 0 48 48" width="48pt" height="48pt"><defs><clipPath id="_clipPath_nVevAr7NlUJQtF15jxuuz8IL2kICkkxZ"><rect width="48" height="48"/></clipPath></defs><g clip-path="url(#_clipPath_nVevAr7NlUJQtF15jxuuz8IL2kICkkxZ)"><g><path d=" M 14.284 2.527 C 13.86 2.596 13.35 2.818 12.991 3.092 C 11.904 3.918 11.061 5.672 10.705 7.857 C 10.571 8.683 10.48 9.83 10.48 10.705 C 10.48 11.737 10.6 13.056 10.774 13.967 C 10.813 14.17 10.832 14.349 10.816 14.362 C 10.803 14.375 10.643 14.506 10.463 14.65 C 9.849 15.14 9.147 15.894 8.664 16.583 C 7.736 17.899 7.135 19.395 6.884 21.015 C 6.786 21.655 6.76 22.948 6.838 23.588 C 7.011 25.064 7.456 26.312 8.216 27.455 L 8.465 27.824 L 8.393 27.945 C 7.883 28.8 7.449 30.038 7.247 31.227 C 7.086 32.167 7.067 32.419 7.067 33.68 C 7.067 34.95 7.083 35.201 7.233 36.08 C 7.413 37.132 7.779 38.245 8.187 38.986 C 8.321 39.228 8.648 39.731 8.687 39.757 C 8.7 39.764 8.661 39.885 8.599 40.025 C 8.128 41.054 7.727 42.422 7.56 43.575 C 7.442 44.365 7.426 44.62 7.426 45.453 C 7.426 46.514 7.485 47.03 7.707 47.876 L 7.74 48 L 9.137 48 L 10.538 48 L 10.447 47.827 C 9.882 46.782 9.83 44.842 10.316 42.905 C 10.538 42.011 10.79 41.354 11.26 40.45 L 11.541 39.901 L 11.541 39.565 C 11.541 39.251 11.534 39.215 11.433 39.009 C 11.355 38.853 11.25 38.719 11.064 38.536 C 10.747 38.229 10.519 37.905 10.336 37.507 C 9.533 35.763 9.376 33.173 9.941 30.966 C 10.176 30.045 10.565 29.225 10.973 28.778 C 11.25 28.471 11.394 28.128 11.394 27.772 C 11.394 27.403 11.263 27.099 10.97 26.782 C 10.127 25.881 9.608 24.784 9.422 23.507 C 9.157 21.688 9.637 19.705 10.728 18.134 C 11.796 16.593 13.295 15.603 14.97 15.339 C 15.346 15.277 16.048 15.287 16.44 15.359 C 16.868 15.434 17.135 15.411 17.41 15.28 C 17.749 15.12 17.919 14.921 18.118 14.464 C 18.295 14.055 18.432 13.833 18.801 13.373 C 19.245 12.821 19.673 12.445 20.359 11.991 C 21.142 11.479 22.034 11.106 22.922 10.927 C 23.246 10.861 23.396 10.852 24 10.852 C 24.604 10.852 24.754 10.861 25.078 10.927 C 26.381 11.191 27.674 11.864 28.706 12.818 C 28.928 13.023 29.46 13.683 29.63 13.957 C 29.696 14.065 29.81 14.294 29.882 14.464 C 30.081 14.921 30.251 15.12 30.59 15.28 C 30.855 15.407 31.132 15.434 31.544 15.365 C 32.194 15.254 32.694 15.264 33.33 15.394 C 35.499 15.832 37.386 17.618 38.222 20.012 C 38.951 22.112 38.745 24.31 37.661 25.989 C 37.478 26.273 37.295 26.501 37.03 26.782 C 36.459 27.393 36.459 28.151 37.027 28.778 C 37.961 29.8 38.546 32.314 38.369 34.532 C 38.252 35.995 37.876 37.305 37.36 38.046 C 37.269 38.177 37.079 38.399 36.936 38.536 C 36.75 38.719 36.645 38.853 36.567 39.009 C 36.466 39.215 36.459 39.251 36.459 39.565 L 36.459 39.901 L 36.74 40.45 C 37.21 41.354 37.462 42.011 37.684 42.905 C 38.164 44.816 38.121 46.717 37.573 47.798 C 37.527 47.889 37.488 47.974 37.488 47.984 C 37.488 47.994 38.111 48 38.876 48 L 40.26 48 L 40.296 47.86 C 40.316 47.785 40.349 47.67 40.365 47.605 C 40.401 47.461 40.473 47.037 40.531 46.628 C 40.587 46.217 40.587 44.702 40.531 44.244 C 40.322 42.585 39.973 41.269 39.401 40.025 C 39.339 39.885 39.3 39.764 39.313 39.757 C 39.33 39.747 39.421 39.617 39.519 39.47 C 40.231 38.392 40.669 37.037 40.891 35.247 C 40.949 34.754 40.949 32.634 40.891 32.161 C 40.734 30.94 40.544 30.11 40.231 29.271 C 40.1 28.921 39.754 28.183 39.607 27.945 L 39.535 27.824 L 39.784 27.455 C 40.544 26.312 40.989 25.064 41.162 23.588 C 41.24 22.948 41.214 21.655 41.116 21.015 C 40.861 19.392 40.264 17.903 39.336 16.583 C 38.853 15.894 38.151 15.14 37.537 14.65 C 37.357 14.506 37.197 14.375 37.184 14.362 C 37.168 14.349 37.187 14.17 37.226 13.967 C 37.622 11.907 37.609 9.336 37.194 7.328 C 36.835 5.577 36.181 4.186 35.339 3.383 C 34.666 2.743 33.98 2.468 33.157 2.521 C 31.27 2.632 29.748 4.803 29.147 8.226 C 29.049 8.778 28.964 9.425 28.964 9.601 C 28.964 9.669 28.951 9.725 28.935 9.725 C 28.918 9.725 28.791 9.66 28.654 9.578 C 27.197 8.716 25.577 8.255 24 8.255 C 22.423 8.255 20.803 8.716 19.346 9.578 C 19.209 9.66 19.082 9.725 19.065 9.725 C 19.049 9.725 19.036 9.669 19.036 9.601 C 19.036 9.418 18.948 8.752 18.853 8.226 C 18.308 5.153 17.057 3.118 15.395 2.606 C 15.166 2.537 14.516 2.491 14.284 2.527 Z  M 14.839 5.186 C 15.31 5.558 15.832 6.623 16.133 7.815 C 16.188 8.03 16.247 8.278 16.263 8.37 C 16.276 8.458 16.312 8.657 16.342 8.811 C 16.469 9.503 16.528 10.251 16.534 11.162 L 16.538 12.06 L 16.312 12.393 L 16.087 12.73 L 15.561 12.73 C 14.947 12.73 14.337 12.808 13.752 12.965 C 13.543 13.017 13.34 13.069 13.301 13.079 C 13.239 13.092 13.229 13.072 13.194 12.805 C 13.001 11.351 13.011 9.741 13.223 8.402 C 13.458 6.91 14.007 5.558 14.542 5.159 C 14.67 5.065 14.693 5.068 14.839 5.186 Z  M 33.461 5.163 C 33.784 5.401 34.14 6.035 34.405 6.845 C 34.937 8.464 35.087 10.688 34.806 12.805 C 34.771 13.072 34.761 13.092 34.699 13.079 C 34.66 13.069 34.457 13.017 34.248 12.965 C 33.663 12.808 33.053 12.73 32.439 12.73 L 31.913 12.73 L 31.688 12.393 L 31.462 12.06 L 31.466 11.162 C 31.472 9.895 31.59 8.905 31.871 7.805 C 32.168 6.623 32.694 5.558 33.161 5.186 C 33.307 5.068 33.33 5.065 33.461 5.163 Z " fill="rgb(255,255,255)" fill-opacity="0.7490196078431373"/><path d=" M 23.494 21.599 C 22.785 21.668 22.592 21.694 22.253 21.763 C 21.701 21.877 20.963 22.132 20.45 22.383 C 18.667 23.255 17.439 24.708 17.063 26.39 C 16.988 26.723 16.979 26.834 16.979 27.396 C 16.979 27.951 16.988 28.072 17.06 28.389 C 17.56 30.587 19.585 32.21 22.204 32.507 C 22.772 32.569 25.228 32.569 25.796 32.507 C 27.899 32.269 29.709 31.129 30.522 29.529 C 30.737 29.101 30.842 28.823 30.94 28.389 C 31.012 28.072 31.021 27.951 31.021 27.396 C 31.021 26.834 31.012 26.723 30.937 26.39 C 30.391 23.947 28.02 22.024 25.114 21.658 C 24.735 21.612 23.742 21.573 23.494 21.599 Z  M 24.715 23.376 C 25.685 23.48 26.662 23.827 27.445 24.349 C 27.867 24.63 28.461 25.218 28.716 25.603 C 29.029 26.08 29.209 26.567 29.291 27.158 C 29.326 27.429 29.307 27.635 29.209 28.072 C 29.055 28.725 28.579 29.408 27.935 29.885 C 27.635 30.103 27.011 30.42 26.629 30.544 C 25.904 30.776 25.43 30.819 23.739 30.806 C 22.635 30.796 22.439 30.786 22.122 30.727 C 21.041 30.525 20.186 30.094 19.565 29.437 C 19.062 28.908 18.833 28.425 18.709 27.644 C 18.654 27.282 18.758 26.681 18.971 26.175 C 19.229 25.558 19.895 24.79 20.555 24.349 C 21.319 23.84 22.325 23.477 23.249 23.379 C 23.605 23.34 24.359 23.34 24.715 23.376 Z " fill="rgb(255,255,255)"/><path d=" M 22.753 25.76 C 22.504 25.894 22.331 26.234 22.383 26.485 C 22.442 26.756 22.681 27.03 23.053 27.256 C 23.252 27.377 23.265 27.393 23.275 27.514 C 23.282 27.586 23.255 27.791 23.22 27.974 C 23.18 28.154 23.151 28.343 23.151 28.396 C 23.154 28.536 23.285 28.765 23.422 28.876 C 23.543 28.974 23.566 28.977 23.905 28.987 C 24.216 28.996 24.281 28.99 24.405 28.931 C 24.725 28.774 24.807 28.487 24.689 27.935 C 24.591 27.475 24.611 27.403 24.856 27.262 C 25.114 27.112 25.388 26.848 25.47 26.668 C 25.626 26.325 25.483 25.936 25.137 25.757 C 25.052 25.714 24.947 25.695 24.794 25.695 C 24.555 25.695 24.402 25.75 24.121 25.93 L 23.961 26.031 L 23.86 25.969 C 23.445 25.724 23.37 25.695 23.118 25.698 C 22.939 25.698 22.841 25.714 22.753 25.76 Z " fill="rgb(255,255,255)"/><path d=" M 14.823 21.968 C 14.245 22.151 13.814 22.576 13.592 23.18 C 13.484 23.467 13.432 23.921 13.478 24.166 C 13.585 24.751 14.065 25.283 14.611 25.43 C 15.297 25.61 15.809 25.492 16.263 25.042 C 16.528 24.784 16.672 24.558 16.815 24.192 C 16.92 23.934 16.926 23.889 16.926 23.523 L 16.93 23.131 L 16.792 22.85 C 16.574 22.406 16.178 22.076 15.721 21.955 C 15.463 21.89 15.048 21.893 14.823 21.968 Z " fill="rgb(255,255,255)"/><path d=" M 32.266 21.959 C 31.818 22.08 31.42 22.413 31.208 22.85 L 31.07 23.131 L 31.074 23.523 C 31.074 23.889 31.08 23.934 31.185 24.192 C 31.328 24.558 31.472 24.784 31.737 25.042 C 32.191 25.492 32.703 25.61 33.389 25.43 C 33.784 25.326 34.179 24.993 34.369 24.604 C 34.532 24.274 34.571 24.036 34.519 23.66 C 34.398 22.801 33.895 22.177 33.147 21.959 C 32.929 21.893 32.504 21.893 32.266 21.959 Z " fill="rgb(255,255,255)"/></g></g></svg>