<?xml version="1.0" encoding="UTF-8" standalone="no"?>
<svg
   enable-background="new 0 0 1077 220"
   viewBox="0 0 128 128"
   version="1.1"
   id="svg9"
   width="128"
   height="128"
   xmlns="http://www.w3.org/2000/svg"
   xmlns:svg="http://www.w3.org/2000/svg">
  <defs
     id="defs9" />
  <path
     clip-rule="evenodd"
     d="M 80.833178,1.456149 C 79.430553,-0.06847564 77.092843,-0.43438554 75.222676,0.54137426 l -1.736585,0.85378984 -18.90205,9.8185839 4.408252,7.074259 12.289672,-6.403424 -3.005626,15.002307 8.749713,1.46364 3.072418,-15.063292 9.083671,9.879568 6.81275,-5.244709 L 82.235804,2.9197888 h -0.06679 z M 54.316874,128 c 4.541835,0 8.215379,-3.29319 8.215379,-7.3182 0,-4.02501 -3.673544,-7.31819 -8.215379,-7.31819 -4.541836,0 -8.215379,3.29318 -8.215379,7.31819 -0.06679,4.02501 3.673543,7.3182 8.215379,7.3182 z M 65.337504,87.810893 62.398669,102.87419 53.582165,101.41055 56.521,86.408239 44.231327,92.872647 39.756283,85.798389 58.524751,75.979806 60.261335,75.065031 c 1.870168,-0.97576 4.207877,-0.60985 5.610503,0.914775 l 1.335834,1.463639 13.959465,14.941323 -6.812753,5.30569 z M 72.484216,51.82975 69.545381,66.893042 60.728877,65.429403 63.667712,50.488081 51.444831,56.891504 47.036579,49.817246 65.738254,40.059647 v -0.121969 h 0.133584 l 1.736584,-0.914775 c 1.870168,-0.97576 4.207877,-0.60985 5.610503,0.914775 l 1.335834,1.402654 13.892673,15.002307 -6.812753,5.305694 z M 14.84298,111.3511 h -0.06679 l -1.803376,-0.48788 c -1.936959,-0.48788 -3.2060016,-2.19546 -3.0724176,-4.02501 l 1.6030006,-20.368986 8.482545,0.548865 -1.001875,12.379949 13.157965,-8.171985 4.74221,6.403425 -12.890798,7.989032 13.157965,3.47615 -2.337709,7.44016 z m 87.29675,8.41593 -0.60113,1.76856 c -0.60112,1.70758 -2.337709,2.8663 -4.341459,2.74433 l -1.87016,-0.12197 -0.13359,0.061 -0.0668,-0.061 -20.705426,-1.28069 0.534334,-7.74509 13.75909,0.85379 -9.016879,-11.52616 6.879545,-4.512892 9.217256,11.831092 4.0075,-11.953062 8.081799,2.256442 z m 24.31218,-41.957675 1.00187,1.646595 c 1.00188,1.646595 0.60113,3.720084 -1.00187,4.939784 l -1.46942,1.158715 v 0.06099 h -0.0668 l -16.0968,12.440939 -5.6105,-6.037515 10.55309,-8.171989 -15.829639,-2.561369 1.53621,-7.806079 15.963219,2.56137 -6.67917,-10.977298 7.54746,-3.842055 z M 110.08794,43.779732 95.794521,50.793005 91.653434,43.840717 105.74648,36.949413 92.855684,32.131599 96.128481,24.8134 l 19.636759,7.257214 0.0668,-0.06098 0.0668,0.12197 1.80338,0.670835 c 1.93695,0.73182 3.00562,2.561369 2.67166,4.390919 l -0.33396,1.82955 -3.67354,18.600421 -8.54934,-1.402655 z M 14.175063,60.123709 30.071487,62.563108 28.60207,70.369187 12.572062,67.868802 19.384815,78.8461 11.837353,82.749139 1.5514318,66.222208 0.54955631,64.636598 c -1.0018754,-1.646595 -0.6011252,-3.720084 0.93508379,-4.939784 l 1.4694174,-1.158715 v -0.06099 h 0.066792 L 18.917273,45.975186 24.594568,52.0127 Z m 23.97822,-33.785684 10.553088,10.733358 -6.478795,5.305694 -10.820255,-10.977298 -2.471293,12.501923 -8.549337,-1.402655 3.740335,-18.539436 0.40075,-1.890535 c 0.333958,-1.82955 2.070543,-3.171219 4.074294,-3.232204 l 1.870167,-0.06098 0.06679,-0.06098 0.06679,0.06098 21.23976,-0.792805 0.333958,7.928048 z"
     fill-rule="evenodd"
     id="path9"
     style="stroke-width:0.638224" />
</svg>
