<?xml version="1.0" encoding="UTF-8" standalone="no"?>
<svg
   enable-background="new 0 0 1077 220"
   viewBox="0 0 128 128"
   version="1.1"
   id="svg9"
   width="128"
   height="128"
   xml:space="preserve"
   xmlns="http://www.w3.org/2000/svg"
   xmlns:svg="http://www.w3.org/2000/svg"><defs
     id="defs9" /><g
     id="g12"
     transform="matrix(1.0269576,0,0,1.0269576,-1.7458256,-1.7252864)"><path
       fill="#f05138"
       d="m 126.33,34.06 a 39.32,39.32 0 0 0 -0.79,-7.83 28.78,28.78 0 0 0 -2.65,-7.58 28.84,28.84 0 0 0 -4.76,-6.32 23.42,23.42 0 0 0 -6.62,-4.55 27.27,27.27 0 0 0 -7.68,-2.53 C 101.18,4.74 98.27,4.74 95.62,4.49 H 30.25 A 45.46,45.46 0 0 0 24.16,5 21.82,21.82 0 0 0 18.34,6.52 c -0.53,0.25 -1.32,0.51 -1.85,0.76 a 33.82,33.82 0 0 0 -5,3.28 c -0.53,0.51 -1.06,0.76 -1.59,1.26 A 22.41,22.41 0 0 0 5.14,18.14 23.61,23.61 0 0 0 2.49,25.72 78.5,78.5 0 0 0 1.7,33.55 v 60.39 a 39.32,39.32 0 0 0 0.79,7.83 28.78,28.78 0 0 0 2.65,7.58 28.84,28.84 0 0 0 4.76,6.32 23.42,23.42 0 0 0 6.62,4.55 27.27,27.27 0 0 0 7.68,2.53 c 2.65,0.51 5.56,0.51 8.21,0.76 h 63.22 a 45.08,45.08 0 0 0 8.21,-0.76 27.27,27.27 0 0 0 7.68,-2.53 30.13,30.13 0 0 0 6.62,-4.55 22.41,22.41 0 0 0 4.76,-6.32 23.61,23.61 0 0 0 2.65,-7.58 78.49,78.49 0 0 0 0.79,-7.83 V 34.06 Z"
       id="path1" /><path
       fill="#fefefe"
       d="m 85,96.5 c -11.11,6.13 -26.38,6.76 -41.75,0.47 A 64.53,64.53 0 0 1 13.84,73 50,50 0 0 0 24.69,79.32 c 15.87,7.1 31.73,6.61 42.9,0 v 0 C 51.69,67.66 38.19,52.5 28.13,40.12 A 43.47,43.47 0 0 1 22.84,33.3 c 12.16,10.61 31.5,24 38.38,27.79 a 271.77,271.77 0 0 1 -27,-32.34 266.8,266.8 0 0 0 44.47,34.87 c 0.71,0.38 1.26,0.7 1.7,1 A 32.7,32.7 0 0 0 81.6,61.11 C 85.31,48.22 81.07,33.57 71.81,21.44 93.25,33.81 106,57.05 100.66,76.51 c -0.14,0.53 -0.29,1 -0.45,1.55 l 0.19,0.22 c 10.59,12.63 7.68,26 6.35,23.5 C 101,91 90.37,94.33 85,96.5 Z"
       id="path2" /></g></svg>
