<?xml version="1.0" encoding="UTF-8" standalone="no"?><!-- Generator: Gravit.io -->
<svg xmlns="http://www.w3.org/2000/svg" style="isolation:isolate"
     viewBox="0 0 48 48" width="48pt" height="48pt">
    <defs>
        <clipPath id="_clipPath_uhqnyBEnbRtpt1tHw2xuJwEyXF8TZFBk">
            <rect width="48" height="48"/>
        </clipPath>
    </defs>
    <g clip-path="url(#_clipPath_uhqnyBEnbRtpt1tHw2xuJwEyXF8TZFBk)">
        <g>
            <path d=" M 44.587 28.977 C 43.953 28.216 42.853 28.04 42.013 28.565 L 23.994 41.796 L 23.994 42.363 C 24.704 42.279 25.398 42.61 25.78 43.214 C 26.161 43.818 26.161 44.588 25.78 45.192 C 25.398 45.796 24.704 46.128 23.994 46.044 L 23.994 46.044 C 24.412 46.046 24.819 45.91 25.153 45.658 L 44.227 31.577 C 44.997 30.931 45.153 29.808 44.587 28.977 Z "
                  fill="rgb(102,157,246)"/>
            <path d=" M 23.994 46.044 C 23.061 45.933 22.359 45.142 22.359 44.203 C 22.359 43.264 23.061 42.473 23.994 42.363 L 23.994 42.363 L 23.994 41.796 L 5.975 28.565 C 5.137 28.028 4.029 28.205 3.401 28.977 C 2.838 29.809 3.018 30.936 3.813 31.551 L 22.887 45.632 C 23.213 45.88 23.61 46.016 24.02 46.018 L 24.02 46.018 L 23.994 46.044 Z "
                  fill="rgb(174,203,250)"/>
            <path d=" M 23.994 40.432 C 21.904 40.432 20.21 42.126 20.21 44.216 C 20.21 46.306 21.904 48 23.994 48 C 26.084 48 27.778 46.306 27.778 44.216 C 27.778 42.126 26.084 40.432 23.994 40.432 L 23.994 40.432 Z  M 23.994 46.044 C 23.242 46.044 22.565 45.589 22.28 44.893 C 21.994 44.198 22.158 43.399 22.693 42.871 C 23.228 42.343 24.03 42.19 24.721 42.485 C 25.413 42.78 25.858 43.464 25.848 44.216 C 25.848 44.705 25.651 45.174 25.303 45.518 C 24.955 45.861 24.483 46.051 23.994 46.044 L 23.994 46.044 Z "
                  fill="rgb(66,133,244)"/>
            <path d=" M 8.549 8.95 C 7.489 8.936 6.633 8.08 6.619 7.02 L 6.619 2.18 C 6.533 1.433 6.883 0.702 7.52 0.301 C 8.157 -0.1 8.967 -0.1 9.604 0.301 C 10.241 0.702 10.592 1.433 10.506 2.18 L 10.506 7.02 C 10.492 8.09 9.62 8.95 8.549 8.95 Z "
                  fill="rgb(174,203,250)"/>
            <circle vector-effect="non-scaling-stroke" cx="8.497845261117549" cy="24.11201928247411"
                    r="1.9563432484180683" fill="rgb(174,203,250)"/>
            <circle vector-effect="non-scaling-stroke" cx="8.497845261117549" cy="18.423179046942604"
                    r="1.9563432484180683" fill="rgb(174,203,250)"/>
            <circle vector-effect="non-scaling-stroke" cx="8.497845261117549" cy="12.708597452879335"
                    r="1.9563432484180683" fill="rgb(174,203,250)"/>
            <path d=" M 39.439 14.613 C 38.369 14.599 37.508 13.728 37.508 12.657 L 37.508 7.818 C 37.508 6.751 38.373 5.887 39.439 5.887 C 40.505 5.887 41.37 6.751 41.37 7.818 L 41.37 12.657 C 41.376 13.174 41.176 13.671 40.813 14.039 C 40.45 14.407 39.955 14.614 39.439 14.613 Z "
                  fill="rgb(66,133,244)"/>
            <circle vector-effect="non-scaling-stroke" cx="39.49044093342481" cy="24.137760641005936"
                    r="1.9563432484180652" fill="rgb(66,133,244)"/>
            <circle vector-effect="non-scaling-stroke" cx="39.49044093342481" cy="18.34595497134717"
                    r="1.9563432484180652" fill="rgb(66,133,244)"/>
            <circle vector-effect="non-scaling-stroke" cx="39.49044093342481" cy="2.1803818133663"
                    r="1.9563432484180652" fill="rgb(66,133,244)"/>
            <path d=" M 23.994 31.834 C 22.934 31.821 22.077 30.964 22.064 29.904 L 22.064 24.987 C 22.177 24 23.013 23.255 24.007 23.255 C 25.001 23.255 25.837 24 25.95 24.987 L 25.95 29.852 C 25.957 30.376 25.754 30.88 25.387 31.252 C 25.019 31.625 24.517 31.834 23.994 31.834 Z "
                  fill="rgb(102,157,246)"/>
            <circle vector-effect="non-scaling-stroke" cx="23.994143097271177" cy="35.56692382913255"
                    r="1.9563432484180687" fill="rgb(102,157,246)"/>
            <circle vector-effect="non-scaling-stroke" cx="23.994143097271177" cy="19.3241265955562"
                    r="1.9563432484180687" fill="rgb(102,157,246)"/>
            <circle vector-effect="non-scaling-stroke" cx="23.994143097271177" cy="13.609545001492908"
                    r="1.9563432484180687" fill="rgb(102,157,246)"/>
            <path d=" M 31.717 20.354 C 30.656 20.34 29.8 19.484 29.786 18.423 L 29.786 13.584 C 29.7 12.836 30.05 12.105 30.687 11.704 C 31.324 11.303 32.135 11.303 32.772 11.704 C 33.409 12.105 33.759 12.836 33.673 13.584 L 33.673 18.423 C 33.659 19.494 32.787 20.354 31.717 20.354 Z "
                  fill="rgb(66,133,244)"/>
            <circle vector-effect="non-scaling-stroke" cx="31.742292015347992" cy="7.869222048897775"
                    r="1.956343248418067" fill="rgb(66,133,244)"/>
            <circle vector-effect="non-scaling-stroke" cx="31.742292015347992" cy="29.749376800941977"
                    r="1.956343248418067" fill="rgb(66,133,244)"/>
            <circle vector-effect="non-scaling-stroke" cx="31.742292015347992" cy="24.03479520687866"
                    r="1.956343248418067" fill="rgb(66,133,244)"/>
            <circle vector-effect="non-scaling-stroke" cx="16.245994179194376" cy="29.749376800941977"
                    r="1.9563432484180687" fill="rgb(174,203,250)"/>
            <circle vector-effect="non-scaling-stroke" cx="16.245994179194376" cy="13.609545001492908"
                    r="1.9563432484180687" fill="rgb(174,203,250)"/>
            <circle vector-effect="non-scaling-stroke" cx="16.245994179194376" cy="7.869222048897775"
                    r="1.9563432484180687" fill="rgb(174,203,250)"/>
            <path d=" M 16.272 25.991 C 15.221 25.992 14.357 25.162 14.315 24.112 L 14.315 19.221 C 14.315 18.155 15.18 17.291 16.246 17.291 C 17.312 17.291 18.177 18.155 18.177 19.221 L 18.177 24.112 C 18.149 25.148 17.308 25.978 16.272 25.991 Z "
                  fill="rgb(174,203,250)"/>
        </g>
    </g>
</svg>