<?xml version="1.0" encoding="UTF-8" standalone="no"?>
<svg
   width="280"
   height="280"
   viewBox="0 0 400 400"
   preserveAspectRatio="xMidYMax"
   fill="none"
   version="1.1"
   id="svg30"
   xmlns="http://www.w3.org/2000/svg">
  <defs
     id="defs30" />
  <g
     transform="matrix(1.1220239,0,0,1.1220239,91.406655,18.511204)"
     id="g30">
    <g
       id="vue-color-avatar-face">
      <g
         clip-path="url(#clip0)"
         id="g5">
        <title
           id="title1">face - base</title>
        <path
           d="m 154,319.5 c -14.4,-20 -25.667,-58.666 -27,-78 L 58.5,212 30,319.5 Z"
           fill="#deb3a3"
           stroke="#000000"
           stroke-width="4"
           id="path1" />
        <mask
           id="mask0"
           maskUnits="userSpaceOnUse"
           x="30"
           y="212"
           width="124"
           height="118">
          <path
             d="m 154,329.5 c -14.4,-20 -25.667,-68.666 -27,-88 L 58.5,212 30,329.5 Z"
             fill="#deb3a3"
             id="path2" />
        </mask>
        <g
           mask="url(#mask0)"
           id="g3">
          <g
             style="mix-blend-mode:multiply"
             id="g2">
            <ellipse
               cx="124"
               cy="210"
               rx="59"
               ry="54"
               fill="#000000"
               id="ellipse2" />
          </g>
        </g>
        <mask
           id="path-4-inside-1"
           fill="#ffffff">
          <path
             fill-rule="evenodd"
             clip-rule="evenodd"
             d="m 183.886,150.917 c -0.027,-0.116 -0.055,-0.232 -0.083,-0.348 -0.027,-0.115 -0.055,-0.231 -0.084,-0.347 L 167.323,81.7855 c -0.017,-0.0678 -0.033,-0.1356 -0.049,-0.2034 -0.016,-0.0679 -0.032,-0.1356 -0.049,-0.2034 l -0.073,-0.3035 -10e-4,3e-4 C 156.933,39.6308 115.156,14.1472 73.5821,24.1081 32.0078,34.0689 6.31547,75.7174 15.9883,117.293 h -0.002 l 16.9913,70.918 0.014,-0.003 c 10.6028,40.904 52.07,65.941 93.3374,56.053 41.268,-9.887 66.887,-50.997 57.802,-92.265 l 0.013,-0.003 z"
             id="path3" />
        </mask>
        <path
           fill-rule="evenodd"
           clip-rule="evenodd"
           d="m 183.886,150.917 c -0.027,-0.116 -0.055,-0.232 -0.083,-0.348 -0.027,-0.115 -0.055,-0.231 -0.084,-0.347 L 167.323,81.7855 c -0.017,-0.0678 -0.033,-0.1356 -0.049,-0.2034 -0.016,-0.0679 -0.032,-0.1356 -0.049,-0.2034 l -0.073,-0.3035 -10e-4,3e-4 C 156.933,39.6308 115.156,14.1472 73.5821,24.1081 32.0078,34.0689 6.31547,75.7174 15.9883,117.293 h -0.002 l 16.9913,70.918 0.014,-0.003 c 10.6028,40.904 52.07,65.941 93.3374,56.053 41.268,-9.887 66.887,-50.997 57.802,-92.265 l 0.013,-0.003 z"
           fill="#deb3a3"
           id="path4" />
        <path
           d="m 183.886,150.917 -3.894,0.914 0.002,0.009 0.002,0.009 z m -0.167,-0.695 -3.889,0.932 0.002,0.009 0.002,0.009 z m -16.396,-68.4365 -3.893,0.9221 0.003,0.0099 z m -0.049,-0.2034 -3.89,0.932 v 1e-4 z m -0.049,-0.2034 -3.89,0.9321 0.003,0.0102 z m -0.073,-0.3035 3.89,-0.932 -0.931,-3.8882 -3.889,0.9299 z m -10e-4,3e-4 -3.884,0.9576 0.951,3.8566 3.863,-0.9238 z M 73.5821,24.1081 72.6501,20.2182 Z m -57.5938,93.1849 0.934,3.889 3.8619,-0.927 -0.9,-3.869 z m -0.002,0 -0.934,-3.889 -3.8874,0.933 0.9315,3.888 z m 16.9913,70.918 -3.8899,0.932 0.9324,3.892 3.8912,-0.934 z m 0.014,-0.003 3.872,-1.004 -0.9857,-3.803 -3.8199,0.917 z m 93.3374,56.053 -0.932,-3.89 v 0 z m 57.802,-92.265 -0.931,-3.89 -3.819,0.915 0.844,3.835 z m 0.013,-0.003 0.931,3.89 3.891,-0.932 -0.932,-3.89 z m 3.636,-1.991 c -0.029,-0.121 -0.058,-0.243 -0.087,-0.365 l -7.779,1.865 c 0.026,0.109 0.052,0.219 0.078,0.329 z m -0.087,-0.365 c -0.029,-0.121 -0.058,-0.242 -0.088,-0.364 l -7.771,1.899 c 0.027,0.109 0.053,0.219 0.08,0.33 z m -24.26,-66.9195 16.397,68.4365 7.779,-1.864 -16.397,-68.4365 z m 7.782,-1.8541 c -0.017,-0.0706 -0.034,-0.1418 -0.051,-0.2134 l -7.78,1.8642 c 0.016,0.0639 0.031,0.1283 0.046,0.1934 z M 171.164,80.65 c -0.017,-0.071 -0.034,-0.1422 -0.051,-0.2136 l -7.775,1.8846 c 0.015,0.0641 0.031,0.1284 0.046,0.1931 z m -7.902,1.3572 0.073,0.3036 7.78,-1.8641 -0.073,-0.3035 z m 4.819,2.9587 0.002,-4e-4 -1.861,-7.7806 -0.001,3e-4 z m 2.954,-4.8479 C 160.291,36.5398 116.364,9.74466 72.6501,20.2182 l 1.8639,7.7798 c 39.435,-9.4482 79.061,14.7239 88.753,54.0351 z M 72.6501,20.2182 C 28.936,30.6917 1.92157,74.4836 12.0923,118.199 l 7.7919,-1.813 C 10.7094,76.9513 35.0796,37.4461 74.514,27.998 Z m -55.7297,100.9648 0.0019,-0.001 -1.8681,-7.779 -0.0019,10e-4 z m 19.9472,66.096 -16.9913,-70.918 -7.7799,1.864 16.9913,70.918 z m -4.8096,-2.961 -0.014,0.004 1.8673,7.779 0.0139,-0.004 z m -2.9385,4.893 c 11.149,43.012 54.7498,69.337 98.1415,58.94 l -1.864,-7.78 C 86.2539,249.75 46.9204,226.002 36.8636,187.204 Z m 98.1415,58.94 c 43.392,-10.396 70.33,-53.621 60.777,-97.015 l -7.813,1.72 c 8.617,39.143 -15.684,78.137 -54.828,87.515 z m 55.951,-100.048 -0.012,0.003 1.863,7.78 0.012,-0.003 z m -3.216,3.746 0.258,1.076 7.78,-1.864 -0.258,-1.076 z"
           fill="#000000"
           mask="url(#path-4-inside-1)"
           id="path5" />
      </g>
      <defs
         id="defs5">
        <clipPath
           id="clip0">
          <rect
             width="200"
             height="320"
             fill="#ffffff"
             id="rect5"
             x="0"
             y="0" />
        </clipPath>
      </defs>
    </g>
    <g
       id="vue-color-avatar-eyes">
      <g
         transform="translate(60,95)"
         id="g6">
        <title
           id="title5">eyes - ellipse</title>
        <ellipse
           cx="16.5301"
           cy="29.4023"
           rx="9"
           ry="13.5"
           transform="rotate(-6.77646,16.5301,29.4023)"
           fill="#000000"
           id="ellipse5" />
        <ellipse
           cx="80.531197"
           cy="19.4021"
           rx="9"
           ry="13.5"
           transform="rotate(-6.27568,80.5312,19.4021)"
           fill="#000000"
           id="ellipse6" />
      </g>
    </g>
    <g
       id="vue-color-avatar-nose">
      <g
         transform="translate(98,128)"
         id="g7">
        <title
           id="title6">nose - curve</title>
        <path
           d="m 16.5,7 c -0.3333,3.8333 0,12.2 4,15 5,3.5 -0.5,12 -10.5,10"
           stroke="#171921"
           stroke-width="4"
           id="path6" />
      </g>
    </g>
    <g
       id="vue-color-avatar-eyebrows">
      <g
         transform="translate(33,78)"
         id="g8">
        <title
           id="title7">eyebrows - up</title>
        <path
           d="m 99,10.2143 c 5.667,-2.6667 19,-5.10003 27,6.5"
           stroke="#000000"
           stroke-width="4"
           stroke-linecap="round"
           id="path7" />
        <path
           d="M 23.5791,35.521 C 25.6497,29.6104 33.2612,18.3959 47.1418,20.8224"
           stroke="#000000"
           stroke-width="4"
           stroke-linecap="round"
           id="path8" />
      </g>
    </g>
    <g
       id="vue-color-avatar-tops">
      <g
         transform="translate(-34,-19)"
         id="g13">
        <title
           id="title8">tops - fonze</title>
        <path
           d="m 210.177,51.3965 c -8.322,39.8971 -106.678,45.4997 -126.4998,45.4997 -52.0224,5.9268 -27.0524,68.3658 -17.5,99.4998 -7.5,1 -6.5,10 -35.5,-61.5 C 7.47724,77.6964 73.1831,42.8337 121.999,30.9995 170.815,19.1653 189.499,2.50195 189.499,2.50195 210.177,11 215.116,27.7185 210.177,51.3965 Z"
           fill="#506af4"
           id="path9" />
        <path
           d="m 205.134,124.947 -15.818,-53.4401 10.038,-9.1425 c 10.755,37.0879 11.247,58.6236 5.78,62.5826 z"
           fill="#506af4"
           id="path10" />
        <path
           d="M 80,170 C 74.4,142.8 60.3333,147.667 51,149 L 41,105 81.5844,96.5056 C 82.3363,96.2656 83.1408,96.0955 84,96 l -2.4156,0.5056 C 63.4332,102.299 75.9565,148.796 91,168 Z"
           fill="#506af4"
           id="path11" />
        <path
           d="m 24.9887,67.3632 c 8.8454,-4.4541 19.2918,-1.8759 23.4094,-0.0301 L 36.6273,82.2134 C 39.6625,77.3568 30.1329,70.2897 24.9887,67.3632 Z"
           fill="#506af4"
           id="path12" />
        <path
           d="m 10,84.4996 c 11.6,-6.8 22.8333,-4.5 27,-2.5 L 32.5,97.5 C 31.3,89.1 17,85.3331 10,84.4996 Z"
           fill="#506af4"
           id="path13" />
      </g>
    </g>
    <g
       id="vue-color-avatar-glasses">
      <g
         transform="translate(14,87)"
         id="g17">
        <title
           id="title13">glasses - square</title>
        <path
           d="M 36.5,42.5 2,49.125"
           stroke="#000000"
           stroke-width="4"
           stroke-linecap="round"
           id="path14" />
        <path
           d="m 32.4878,25.9393 c -0.8698,-3.4589 1.4518,-6.9085 4.9838,-7.4048 l 38.7166,-5.4413 c 3.2814,-0.4612 6.3154,1.8251 6.7766,5.1066 l 5.5669,39.6107 c 0.4612,3.2814 -1.8251,6.3155 -5.1065,6.7766 l -34.4726,4.8448 c -3.0365,0.4268 -5.9061,-1.5046 -6.6539,-4.4783 z"
           stroke="#000000"
           stroke-width="4"
           id="path15" />
        <path
           d="m 154.751,8.96388 c -0.117,-3.56473 -3.3,-6.24068 -6.832,-5.7443 l -38.716,5.44127 c -3.282,0.46117 -5.568,3.49515 -5.107,6.77665 l 5.567,39.6107 c 0.461,3.2815 3.495,5.5678 6.777,5.1066 L 150.912,55.31 c 3.037,-0.4268 5.263,-3.0743 5.162,-6.1389 z"
           stroke="#000000"
           stroke-width="4"
           id="path16" />
        <path
           d="m 85.5,37.125 22,-3.5"
           stroke="#000000"
           stroke-width="4"
           id="path17" />
      </g>
    </g>
    <g
       id="vue-color-avatar-mouth">
      <g
         transform="translate(87,163)"
         id="g18">
        <title
           id="title17">mouth - smile</title>
        <path
           d="m 2.5,17.5 c 2.5,17 31,25 57,5.5"
           stroke="#000000"
           stroke-width="4"
           id="path18" />
      </g>
    </g>
    <g
       id="vue-color-avatar-ear">
      <g
         transform="translate(5,130.5)"
         id="g22">
        <title
           id="title18">ear - attached</title>
        <path
           d="M 30.5,6.17556 C 28.17,5.40834 25.6547,5 23.08,5 12.5866,5 4.08007,11.5 5.08001,23.5 6.12162,36 13.5866,40.5 24.08,40.5 c 1.1676,0 2.3106,-0.1025 3.42,-0.2989 1.2105,-0.2142 2.3811,-0.5402 3.5,-0.9664"
           stroke="#000000"
           stroke-width="8"
           id="path19" />
        <path
           d="M 31.5,39.0361 C 29.2204,39.9786 26.7127,40.5 24.08,40.5 13.5866,40.5 6.12162,36 5.08001,23.5 4.08007,11.5 12.5866,5 23.08,5 26.2175,5 29.2667,5.60635 32,6.72957 Z"
           fill="#deb3a3"
           id="path20" />
        <path
           d="m 27.5,13.5004 c -4,-1.8333 -12.8,-2.8 -16,8"
           stroke="#000000"
           stroke-width="4"
           id="path21" />
        <path
           d="m 17,14 c 2.1667,1.8333 6.3,7.5 5.5,15.5"
           stroke="#000000"
           stroke-width="4"
           id="path22" />
      </g>
    </g>
    <g
       id="vue-color-avatar-earrings" />
    <g
       id="vue-color-avatar-beard" />
    <g
       id="vue-color-avatar-clothes">
      <g
         transform="translate(-43.5,247)"
         id="g29">
        <title
           id="title22">clothes - collared</title>
        <path
           d="m 142.771,67.5777 c 0,2e-4 0,2e-4 1.229,-1.5777 l -1.229,1.5779 1.722,1.3409 1.186,-1.8314 v -4e-4 l 0.002,-0.0029 0.009,-0.0144 0.041,-0.0625 c 0.011,-0.0168 0.024,-0.0362 0.038,-0.0581 0.034,-0.0516 0.078,-0.1173 0.131,-0.1962 0.15,-0.2251 0.375,-0.5582 0.67,-0.9834 0.588,-0.8505 1.453,-2.0679 2.548,-3.5232 2.194,-2.9147 5.298,-6.7643 8.953,-10.528 3.666,-3.7737 7.827,-7.4007 12.127,-9.9248 4.316,-2.5338 8.579,-3.8444 12.535,-3.311 42.438,5.7221 73.669,24.5195 93.941,52.5181 H 3.37453 C 19.6742,61.6588 42.8579,42.9825 80.4446,34.4127 c 1.6018,-0.3653 3.7796,-0.2546 6.5025,0.3788 2.695,0.6268 5.7675,1.7279 9.0811,3.1844 6.6268,2.9128 14.0238,7.1604 20.9758,11.5605 6.941,4.3935 13.386,8.9061 18.1,12.3233 2.355,1.7077 4.275,3.1398 5.605,4.1439 0.665,0.502 1.182,0.8969 1.532,1.1657 0.175,0.1344 0.309,0.2372 0.398,0.3061 l 0.1,0.0776 0.025,0.0192 0.006,0.0045 z"
           fill="#ffedef"
           stroke="#000000"
           stroke-width="4"
           id="path23" />
        <path
           d="m 68.6127,37.0849 5.1667,-19.232 c 0.2092,-0.7788 1.2168,-0.9989 1.7608,-0.4036 14.8632,16.2642 33.6198,15.6269 39.8448,14.8804 0.845,-0.1013 1.507,0.8234 1.11,1.5763 l -13.157,24.953 c -0.202,0.3824 -0.614,0.5928 -1.038,0.5046 C 98.3518,58.5411 78.6774,53.7321 68.7286,37.8667 68.583,37.6345 68.5416,37.3496 68.6127,37.0849 Z"
           fill="#e0ddff"
           stroke="#000000"
           stroke-width="4"
           id="path24" />
        <path
           d="m 199.195,36.9814 -11.58,-19.4825 c -0.393,-0.6615 -1.362,-0.6506 -1.781,-0.0052 -5.737,8.8359 -15.632,12.9063 -19.092,14.1087 -0.622,0.2163 -0.907,0.956 -0.571,1.523 l 13.502,22.8148 c 0.202,0.3404 0.582,0.5249 0.963,0.4166 2.135,-0.6078 9.46,-3.6717 18.546,-18.3356 0.196,-0.3152 0.203,-0.7211 0.013,-1.0398 z"
           fill="#e0ddff"
           stroke="#000000"
           stroke-width="4"
           id="path25" />
        <path
           d="m 125.5,54.5 -9,-21.5 -7,15 z"
           fill="#000000"
           stroke="#000000"
           stroke-width="4"
           stroke-linejoin="round"
           id="path26" />
        <path
           d="m 157,53.5 9,-21.5 7,15 z"
           fill="#000000"
           stroke="#000000"
           stroke-width="4"
           stroke-linejoin="round"
           id="path27" />
        <path
           d="m 86.5,14 -12,3 10,6.5 z"
           fill="#000000"
           stroke="#000000"
           stroke-width="4"
           stroke-linejoin="round"
           id="path28" />
        <path
           d="m 176,14 11,3 -7,6.5 z"
           fill="#000000"
           stroke="#000000"
           stroke-width="4"
           stroke-linejoin="round"
           id="path29" />
      </g>
    </g>
  </g>
</svg>
