<?xml version="1.0" encoding="UTF-8" standalone="no"?><!-- Generator: Gravit.io --><svg xmlns="http://www.w3.org/2000/svg" xmlns:xlink="http://www.w3.org/1999/xlink" style="isolation:isolate" viewBox="0 0 712 256" width="712pt" height="256pt"><defs><clipPath id="_clipPath_Bv0RmCUOQ3MQCXvn2MKuRSCOpWolJMbh"><rect width="712" height="256"/></clipPath></defs><g clip-path="url(#_clipPath_Bv0RmCUOQ3MQCXvn2MKuRSCOpWolJMbh)"><rect width="712" height="256" style="fill:rgb(93,188,255)"/><path d=" M 706.372 268.561 C 697.684 287.403 667.429 294.214 647.741 279.577 C 638.786 312.678 582.535 317.858 565.238 285.671 C 548.868 291.228 529.029 283.441 525.664 268.561 C 487.799 267.972 485.934 224.027 525.2 222.418 C 521.213 194.542 558.535 176.474 586.018 195.712 C 594.973 162.611 651.224 157.431 668.521 189.618 C 681.974 184.797 699.154 190.055 705.291 200.204 C 708.382 199.643 711.599 199.346 714.902 199.346 C 774.829 201.522 772.513 272.418 706.372 268.561 Z " fill="rgb(255,255,255)" fill-opacity="0.72"/><path d=" M 420.697 116.895 C 410.464 139.687 374.829 147.925 351.64 130.22 C 341.093 170.258 274.839 176.525 254.466 137.592 C 235.185 144.313 211.819 134.894 207.856 116.895 C 163.257 116.183 161.06 63.027 207.308 61.081 C 202.613 27.363 246.571 5.507 278.942 28.777 C 289.489 -11.261 355.743 -17.527 376.116 21.406 C 391.96 15.575 412.196 21.934 419.424 34.211 C 423.065 33.533 426.853 33.173 430.744 33.173 C 501.328 35.806 498.6 121.561 420.697 116.895 Z " fill="rgb(247,246,246)" fill-opacity="0.86"/><path d=" M 157.191 265.155 C 146.958 287.947 111.323 296.185 88.134 278.48 C 77.587 318.518 11.332 324.785 -9.04 285.852 C -28.321 292.573 -51.688 283.154 -55.651 265.155 C -100.249 264.443 -102.446 211.287 -56.198 209.341 C -60.893 175.623 -16.935 153.767 15.436 177.037 C 25.983 136.999 92.237 130.733 112.61 169.666 C 128.454 163.835 148.69 170.194 155.918 182.471 C 159.559 181.793 163.347 181.433 167.238 181.433 C 237.821 184.066 235.094 269.821 157.191 265.155 Z " fill="rgb(247,246,246)" fill-opacity="0.86"/><path d=" M 856.191 58.802 C 845.958 81.594 810.323 89.832 787.134 72.127 C 776.587 112.165 710.332 118.432 689.96 79.499 C 670.679 86.22 647.312 76.802 643.349 58.802 C 598.751 58.09 596.554 4.935 642.802 2.988 C 638.107 -30.73 682.065 -52.586 714.436 -29.316 C 724.983 -69.354 791.237 -75.62 811.61 -36.687 C 827.454 -42.517 847.69 -36.158 854.918 -23.882 C 858.559 -24.56 862.347 -24.92 866.238 -24.92 C 936.821 -22.287 934.094 63.468 856.191 58.802 Z " fill="rgb(247,246,246)" fill-opacity="0.86"/></g></svg>