<?xml version="1.0" encoding="UTF-8" standalone="no"?>
<!-- Created with Inkscape (http://www.inkscape.org/) -->

<svg
   version="1.1"
   id="svg1"
   width="3840"
   height="3840"
   viewBox="0 0 3840 3840"
   xml:space="preserve"
   xmlns="http://www.w3.org/2000/svg"
   xmlns:svg="http://www.w3.org/2000/svg"><defs
     id="defs1"><clipPath
       clipPathUnits="userSpaceOnUse"
       id="clipPath3-4"><path
         d="M 0,512 H 512 V 0 H 0 Z"
         transform="translate(-103.5969,8.6437977)"
         id="path3-3" /></clipPath></defs><g
     id="layer1"
     transform="matrix(6.0494357,0,0,6.0545882,-3306.7886,-293.26554)"><g
       id="layer-MC1"
       style="display:inline"
       transform="translate(522)"><path
         id="path2"
         d="m 0,0 6.614,13.743 c 2.418,5.025 4.444,10.38 6.02,15.915 0,0 0.315,1.112 0.431,1.506 L 9.424,30.848 C 8.45,30.763 7.24,30.659 5.925,30.659 c -1.542,0 -2.95,0.143 -4.305,0.435 -4.679,1.012 -8.739,3.859 -11.433,8.019 l -0.095,0.146 -0.089,0.15 c -6.003,10.051 -7.29,21.71 -8.324,31.078 -0.398,3.601 -0.809,7.325 -0.995,11.157 -0.434,8.958 0.428,17.897 1.276,25.585 l 1.749,20.792 c 0.733,8.71 1.862,15.843 3.057,23.394 0.671,4.238 1.365,8.619 1.997,13.387 0.187,1.417 0.485,2.825 0.8,4.317 0.277,1.314 0.563,2.668 0.771,4.033 0.065,3.135 1.164,6.646 2.752,11.358 0.282,0.84 0.634,1.884 0.737,2.263 0.959,3.518 2.01,6.881 3.028,10.133 2.086,6.668 4.056,12.965 4.923,19.646 l 0.031,0.233 0.041,0.23 c 3.311,18.413 8.642,42.118 20.568,62.155 l 0.563,0.946 10.942,11.392 c 1.614,1.679 3.442,3.581 5.738,5.306 4.679,3.516 9.819,5.203 14.354,6.692 2.271,0.746 4.416,1.45 6.245,2.299 0.084,0.039 0.157,0.074 0.219,0.104 0.044,0.068 0.086,0.136 0.13,0.203 0.443,0.682 1.05,1.617 1.884,2.59 2.198,2.562 6.242,5.683 13.216,6.487 5.51,1.963 10.863,4.785 16.511,7.763 2.993,1.578 6.088,3.209 9.263,4.736 4.198,2.018 9.807,4.333 15.979,4.333 0.293,0 0.585,-0.005 0.876,-0.016 -0.247,0.294 -0.491,0.588 -0.728,0.887 -3.89,4.896 -5.929,10.656 -7.218,15.586 -1.68,0.926 -3.159,2.252 -4.295,3.902 -1.889,2.741 -2.33,5.598 -2.567,7.133 -0.61,3.964 -1.242,8.063 -1.408,12.415 l -0.011,0.303 c -0.017,0.466 -0.041,1.118 -0.084,1.523 -4.153,6.523 -3.196,14.099 -2.667,18.276 0.151,1.201 0.434,3.436 1.765,5.775 0.121,0.213 0.249,0.421 0.381,0.625 -0.2,0.185 -0.403,0.379 -0.607,0.582 l -2.722,2.704 c 0,0 -0.109,3.905 -0.11,3.944 -0.217,0.356 -0.461,0.783 -0.702,1.277 -1.59,3.263 -1.564,6.44 -1.55,8.147 0.011,1.33 0.03,3.715 0.992,6.298 -0.203,1.478 -0.241,3.504 0.55,5.717 0.076,0.212 0.155,0.413 0.234,0.6 0.01,0.387 0.031,0.832 0.082,1.324 0.28,2.704 1.243,4.821 1.88,6.221 0.378,0.832 1.045,2.298 2.296,3.774 0.497,2.575 2.041,6.044 6.422,8.861 l 0.189,0.12 0.597,0.683 c 1.192,1.364 2.348,2.685 3.589,4.148 l 2.831,3.612 c 0.349,0.445 1.136,1.45 2.433,2.393 1.753,2.983 4.7,5.331 8.388,6.571 1.275,0.43 2.437,0.676 3.371,0.874 0.437,0.093 1.034,0.219 1.232,0.289 0.454,0.19 1.644,1.203 2.355,1.809 l 5.014,4.271 c 1.619,1.38 5.918,5.041 11.763,5.041 0.926,0 1.854,-0.092 2.761,-0.273 l 0.603,-0.122 0.584,-0.197 c 0.169,-0.057 0.514,-0.174 0.859,-0.281 0.154,0.086 0.308,0.169 0.464,0.251 3.569,1.858 7.213,2.285 10.308,2.457 1.349,0.075 2.718,0.115 4.071,0.119 h 0.142 c 2.021,0 6.979,0 11.429,-3.312 0.777,-0.18 2.024,-0.327 2.923,-0.432 3.075,-0.36 7.289,-0.853 11.281,-3.328 1.658,-1.028 2.897,-2.156 3.893,-3.063 0.377,-0.344 0.895,-0.815 1.094,-0.948 0.132,-0.071 0.662,-0.286 1.051,-0.442 0.272,-0.11 0.546,-0.22 0.818,-0.334 7.705,-3.22 14.212,-8.911 18.126,-15.786 2.214,-2.255 3.815,-5.168 4.685,-8.552 0.768,-2.988 0.832,-5.791 0.885,-8.043 0.056,-2.414 0.169,-7.24 -2.702,-11.543 0.687,-1.862 1.265,-3.86 1.742,-6.027 l 0.226,-1.025 -0.01,-10.538 c -0.001,-1.548 -0.002,-3.479 -0.287,-5.536 -0.33,-2.372 -1.011,-4.713 -2.003,-6.907 0.111,-0.534 0.196,-1.08 0.256,-1.638 0.528,-4.869 -0.982,-9.036 -2.085,-12.078 -0.311,-0.859 -0.606,-1.67 -0.805,-2.359 -0.247,-0.847 -0.455,-1.885 -0.675,-2.983 -0.316,-1.572 -0.663,-3.306 -1.192,-5.204 l -0.25,-7.756 c -0.045,-1.386 -0.129,-3.973 -1.441,-6.688 -1.162,-2.404 -3.055,-4.355 -5.354,-5.66 -1.248,-5.092 -3.421,-9.962 -6.402,-14.346 0.012,-2.337 0.107,-4.683 0.284,-7.007 0.033,-0.424 0.066,-0.78 0.099,-1.08 1.073,0.088 2.061,0.108 2.931,0.109 2.345,0 5.836,-0.133 9.47,-1.291 3.525,-1.122 6.322,-2.901 8.789,-4.47 l 2.215,-1.395 0.972,-1.162 c 2.173,-2.594 6.11,-4.588 9.918,-6.516 l 8.689,-4.4 c 1.759,-0.891 3.576,-1.811 4.808,-1.996 0.392,-0.059 1.016,-0.088 1.675,-0.119 0.631,-0.029 1.262,-0.061 1.891,-0.112 3.058,-0.251 5.839,-0.926 8.292,-1.521 1.971,-0.48 5.634,-1.37 8.63,-4.451 2.885,-2.968 3.786,-6.455 4.052,-9.326 0.307,-0.133 0.619,-0.267 0.935,-0.402 1.271,-0.545 2.585,-1.108 3.957,-1.783 4.41,-2.166 7.713,-4.791 10.022,-7.974 2.009,-1.46 3.807,-3.229 5.284,-5.207 0.358,-0.48 0.694,-0.971 1.028,-1.463 0.158,-0.234 0.314,-0.468 0.48,-0.696 0.322,-0.443 0.687,-0.849 1.088,-1.212 0.195,-0.176 0.395,-0.346 0.595,-0.516 0.663,-0.564 1.488,-1.266 2.342,-2.184 1.288,-1.382 2.176,-2.752 2.889,-3.852 0.825,-1.271 1.76,-2.712 2.682,-4.442 l 0.549,-1.029 0.286,-1.13 c 1.633,-6.438 3.238,-12.983 4.769,-19.451 0.87,-3.672 1.952,-8.243 2.414,-13.017 l 0.014,-0.167 c 1.083,-13.67 2.202,-27.801 3.559,-42.073 2.076,-12.322 3.188,-22.373 3.496,-31.606 0.154,-4.575 0.113,-9.128 0.075,-13.53 l -0.166,-18.63 c -0.045,-5.007 -0.092,-10.182 -0.77,-15.506 -0.191,-1.502 -0.422,-2.944 -0.647,-4.339 -0.246,-1.528 -0.478,-2.971 -0.635,-4.353 -0.213,-1.885 -0.309,-3.901 -0.413,-6.034 -0.095,-1.994 -0.195,-4.055 -0.395,-6.262 -1.111,-15.524 -4.796,-30.645 -10.956,-44.949 -2.196,-5.103 -5.192,-10.836 -10.756,-14.663 -3.884,-2.673 -8.484,-4.089 -13.683,-4.212 0.04,-4.012 -0.275,-8.03 -0.946,-12.029 l -1.344,-8.024 z"
         style="fill:#ffffff;fill-opacity:1;fill-rule:nonzero;stroke:none"
         transform="matrix(1.3333333,0,0,-1.3333333,138.1292,694.19173)"
         clip-path="url(#clipPath3-4)" /></g></g></svg>
