<?xml version="1.0" encoding="UTF-8" standalone="no"?>
<!-- Created with Inkscape (http://www.inkscape.org/) -->

<svg
   version="1.1"
   id="svg1"
   width="3840"
   height="3840"
   viewBox="0 0 3840 3840"
   xml:space="preserve"
   xmlns="http://www.w3.org/2000/svg"
   xmlns:svg="http://www.w3.org/2000/svg"><defs
     id="defs1"><clipPath
       clipPathUnits="userSpaceOnUse"
       id="clipPath8-3"><path
         d="M 0,512 H 512 V 0 H 0 Z"
         transform="translate(-329.64971,-474.66441)"
         id="path8-0" /></clipPath><clipPath
       clipPathUnits="userSpaceOnUse"
       id="clipPath10-8"><path
         d="M 0,512 H 512 V 0 H 0 Z"
         transform="translate(-331.89981,-462.03671)"
         id="path10-4" /></clipPath><clipPath
       clipPathUnits="userSpaceOnUse"
       id="clipPath12-0"><path
         d="M 0,512 H 512 V 0 H 0 Z"
         transform="translate(-351.30041,-461.23301)"
         id="path12-4" /></clipPath><clipPath
       clipPathUnits="userSpaceOnUse"
       id="clipPath14-6"><path
         d="M 0,512 H 512 V 0 H 0 Z"
         transform="translate(-95.981605,-22.362898)"
         id="path14-4" /></clipPath><clipPath
       clipPathUnits="userSpaceOnUse"
       id="clipPath16-6"><path
         d="M 0,512 H 512 V 0 H 0 Z"
         transform="translate(-92.932,-26.430201)"
         id="path16-4" /></clipPath><clipPath
       clipPathUnits="userSpaceOnUse"
       id="clipPath18-3"><path
         d="M 0,512 H 512 V 0 H 0 Z"
         transform="translate(-100.4811,-19.8359)"
         id="path18-8" /></clipPath><clipPath
       clipPathUnits="userSpaceOnUse"
       id="clipPath20-4"><path
         d="M 0,512 H 512 V 0 H 0 Z"
         transform="translate(-420.53311,-300.16911)"
         id="path20-0" /></clipPath><clipPath
       clipPathUnits="userSpaceOnUse"
       id="clipPath22-0"><path
         d="M 0,512 H 512 V 0 H 0 Z"
         transform="translate(-418.85031,-282.12321)"
         id="path22-9" /></clipPath><clipPath
       clipPathUnits="userSpaceOnUse"
       id="clipPath24-3"><path
         d="M 0,512 H 512 V 0 H 0 Z"
         transform="translate(-441.25011,-283.59701)"
         id="path24-7" /></clipPath><clipPath
       clipPathUnits="userSpaceOnUse"
       id="clipPath26-5"><path
         d="M 0,512 H 512 V 0 H 0 Z"
         transform="translate(-326.93081,-358.20511)"
         id="path26-7" /></clipPath><clipPath
       clipPathUnits="userSpaceOnUse"
       id="clipPath28-2"><path
         d="M 0,512 H 512 V 0 H 0 Z"
         transform="translate(-330.37341,-355.31981)"
         id="path28-9" /></clipPath><clipPath
       clipPathUnits="userSpaceOnUse"
       id="clipPath30-7"><path
         d="M 0,512 H 512 V 0 H 0 Z"
         transform="translate(-416.12931,-27.771801)"
         id="path30-5" /></clipPath><clipPath
       clipPathUnits="userSpaceOnUse"
       id="clipPath32-6"><path
         d="M 0,512 H 512 V 0 H 0 Z"
         transform="translate(-417.61821,-23.426001)"
         id="path32-5" /></clipPath><clipPath
       clipPathUnits="userSpaceOnUse"
       id="clipPath34-3"><path
         d="M 0,512 H 512 V 0 H 0 Z"
         transform="translate(-209.94961,-442.96771)"
         id="path34-0" /></clipPath><clipPath
       clipPathUnits="userSpaceOnUse"
       id="clipPath36-4"><path
         d="M 0,512 H 512 V 0 H 0 Z"
         transform="translate(-206.93251,-445.28681)"
         id="path36-8" /></clipPath><clipPath
       clipPathUnits="userSpaceOnUse"
       id="clipPath38-5"><path
         d="M 0,512 H 512 V 0 H 0 Z"
         transform="translate(-134.4225,-287.16371)"
         id="path38-5" /></clipPath><clipPath
       clipPathUnits="userSpaceOnUse"
       id="clipPath40-5"><path
         d="M 0,512 H 512 V 0 H 0 Z"
         transform="translate(-128.31141,-289.59741)"
         id="path40-4" /></clipPath></defs><g
     id="layer1"
     transform="matrix(6.0494357,0,0,6.0545882,-3306.7886,-293.26554)"><g
       id="layer-MC2"
       transform="translate(522)"
       style="display:inline;stroke:none;stroke-opacity:1"><path
         id="path7"
         d="m 0,0 c -1.266,-3.288 -4.489,-9.176 -6.565,-13.508 -0.489,-0.986 -0.957,-1.983 -1.424,-2.98 -0.185,-0.317 -0.235,-0.705 -0.138,-1.059 0.215,-0.85 1.268,-1.271 2.018,-0.82 1,0.89 1.296,2.398 1.998,3.53 1.805,3.645 3.679,7.256 5.451,10.917 0.463,1.22 1.427,2.399 1.406,3.732 C 2.633,1.298 0.342,1.443 0,0"
         style="fill:#ffffff;fill-opacity:1;fill-rule:nonzero;stroke:none;stroke-opacity:1"
         transform="matrix(1.3333333,0,0,-1.3333333,439.53293,49.7808)"
         clip-path="url(#clipPath8-3)" /><path
         id="path9"
         d="m 0,0 c -1.026,-1.313 -2.057,-2.623 -3.1,-3.922 -0.258,-0.257 -0.409,-0.617 -0.407,-0.981 -0.041,-1.194 1.552,-1.853 2.369,-0.981 1.106,1.465 2.356,2.861 3.364,4.384 C 2.872,-0.185 0.991,1.066 0,0"
         style="fill:#ffffff;fill-opacity:1;fill-rule:nonzero;stroke:none;stroke-opacity:1"
         transform="matrix(1.3333333,0,0,-1.3333333,442.53307,66.617733)"
         clip-path="url(#clipPath10-8)" /><path
         id="path11"
         d="m 0,0 c -0.508,2.176 -2.693,0.471 -3.884,-0.08 -6.513,-3.374 -12.688,-7.347 -19.095,-10.912 -1.622,-0.956 -0.182,-3.445 1.462,-2.501 5.854,3.269 11.63,6.674 17.391,10.102 1.178,0.698 2.344,1.416 3.517,2.121 C -0.182,-1.022 0.106,-0.493 0,0"
         style="fill:#ffffff;fill-opacity:1;fill-rule:nonzero;stroke:none;stroke-opacity:1"
         transform="matrix(1.3333333,0,0,-1.3333333,468.40053,67.689333)"
         clip-path="url(#clipPath12-0)" /><path
         id="path13"
         d="m 0,0 c -2.902,-2.605 -6.25,-5.106 -8.788,-8.014 -0.505,-0.992 0.376,-2.263 1.469,-2.227 0.515,0.011 0.948,0.25 1.304,0.611 1.081,0.913 2.155,1.835 3.234,2.751 1.592,1.543 4.416,3.33 5.608,4.974 C 3.645,-0.235 1.259,1.354 0,0"
         style="fill:#ffffff;fill-opacity:1;fill-rule:nonzero;stroke:none;stroke-opacity:1"
         transform="matrix(1.3333333,0,0,-1.3333333,127.97547,652.84947)"
         clip-path="url(#clipPath14-6)" /><path
         id="path15"
         d="m 0,0 c -5.9,-2.965 -11.755,-6.018 -17.535,-9.211 -1.62,-0.89 -3.247,-1.768 -4.857,-2.677 -0.277,-0.162 -0.485,-0.433 -0.571,-0.742 -0.228,-0.766 0.402,-1.582 1.198,-1.573 0.609,0.03 1.114,0.458 1.666,0.681 2.586,1.294 5.178,2.575 7.769,3.857 4.719,2.54 9.836,4.562 14.368,7.344 C 3.137,-1.048 1.419,0.898 0,0"
         style="fill:#ffffff;fill-opacity:1;fill-rule:nonzero;stroke:none;stroke-opacity:1"
         transform="matrix(1.3333333,0,0,-1.3333333,123.90933,647.4264)"
         clip-path="url(#clipPath16-6)" /><path
         id="path17"
         d="m 0,0 c -3.908,-5.753 -7.826,-11.499 -11.734,-17.252 -0.831,-0.845 -0.612,-2.369 0.605,-2.698 1.506,-0.398 2.075,1.375 2.833,2.311 1.134,1.649 2.268,3.298 3.401,4.948 2.52,3.913 5.536,7.651 7.724,11.713 C 3.14,0.618 0.766,1.427 0,0"
         style="fill:#ffffff;fill-opacity:1;fill-rule:nonzero;stroke:none;stroke-opacity:1"
         transform="matrix(1.3333333,0,0,-1.3333333,133.9748,656.2188)"
         clip-path="url(#clipPath18-3)" /><path
         id="path19"
         d="m 0,0 c -0.227,0.931 -1.595,1.118 -2.056,0.269 -5.069,-10.132 -11.365,-19.665 -16.372,-29.805 -0.225,-1.163 1.507,-1.76 2.068,-0.714 3.92,7.421 8.173,14.661 12.282,21.978 1.368,2.443 2.757,4.877 3.965,7.405 C 0.039,-0.607 0.079,-0.29 0,0"
         style="fill:#ffffff;fill-opacity:1;fill-rule:nonzero;stroke:none;stroke-opacity:1"
         transform="matrix(1.3333333,0,0,-1.3333333,560.7108,282.4412)"
         clip-path="url(#clipPath20-4)" /><path
         id="path21"
         d="m 0,0 c -2.693,-2.873 -5.398,-5.737 -8.06,-8.639 -0.475,-0.655 -1.362,-1.164 -1.41,-2.03 -0.014,-0.629 0.548,-1.189 1.177,-1.177 0.813,0.002 1.177,0.83 1.688,1.333 1.124,1.282 2.291,2.526 3.448,3.779 1.59,1.707 3.159,3.435 4.755,5.136 0.21,0.21 0.332,0.502 0.331,0.799 C 1.961,0.172 0.666,0.711 0,0"
         style="fill:#ffffff;fill-opacity:1;fill-rule:nonzero;stroke:none;stroke-opacity:1"
         transform="matrix(1.3333333,0,0,-1.3333333,558.46707,306.5024)"
         clip-path="url(#clipPath22-0)" /><path
         id="path23"
         d="m 0,0 c -6.118,-3.274 -12.094,-6.808 -18.218,-10.072 -4.299,-2.461 -8.884,-4.56 -12.998,-7.285 -0.526,-0.591 -0.159,-1.628 0.599,-1.811 0.595,-0.169 1.077,0.236 1.568,0.505 8.267,4.649 16.707,8.982 24.958,13.661 1.762,0.988 3.53,1.964 5.326,2.889 0.274,0.16 0.478,0.426 0.562,0.731 C 2.108,-0.372 0.902,0.566 0,0"
         style="fill:#ffffff;fill-opacity:1;fill-rule:nonzero;stroke:none;stroke-opacity:1"
         transform="matrix(1.3333333,0,0,-1.3333333,588.33347,304.53733)"
         clip-path="url(#clipPath24-3)" /><path
         id="path25"
         d="m 0,0 c -0.004,1.398 -2.138,1.404 -2.147,0 0.195,-4.885 -0.381,-8.495 -2.057,-13.195 -0.182,-0.633 -0.488,-0.523 -0.142,-1.452 0.341,-0.613 1.242,-0.724 1.73,-0.223 C -0.448,-10.324 0.194,-5.01 0,0"
         style="fill:#ffffff;fill-opacity:1;fill-rule:nonzero;stroke:none;stroke-opacity:1"
         transform="matrix(1.3333333,0,0,-1.3333333,435.90773,205.05987)"
         clip-path="url(#clipPath26-5)" /><path
         id="path27"
         d="m 0,0 c -0.677,0.725 -2.001,0.178 -1.969,-0.815 0.01,-2.865 -0.53,-4.264 -1.031,-7.21 0.065,-0.971 1.389,-1.391 2.044,-0.694 0.862,1.627 0.857,3.684 1.163,5.494 C 0.148,-2.183 0.692,-0.881 0,0"
         style="fill:#ffffff;fill-opacity:1;fill-rule:nonzero;stroke:none;stroke-opacity:1"
         transform="matrix(1.3333333,0,0,-1.3333333,440.49787,208.90693)"
         clip-path="url(#clipPath28-2)" /><path
         id="path29"
         d="m 0,0 c -0.852,-0.636 -1.046,-1.84 -1.655,-2.688 -3.124,-5.356 -7.139,-9.712 -12.051,-12.767 -1.373,-0.849 -3.168,-1.126 -5.229,-1.984 -1.27,-0.87 -0.203,-2.996 1.263,-2.534 4.583,1.161 6.799,2.748 10.109,5.642 2.746,2.321 5.042,5.118 7.004,8.121 0.956,1.541 2.113,3.065 2.678,4.79 C 2.348,-0.29 0.964,0.604 0,0"
         style="fill:#ffffff;fill-opacity:1;fill-rule:nonzero;stroke:none;stroke-opacity:1"
         transform="matrix(1.3333333,0,0,-1.3333333,554.83907,645.6376)"
         clip-path="url(#clipPath30-7)" /><path
         id="path31"
         d="m 0,0 c -0.817,-0.233 -1.114,-1.096 -1.578,-1.724 -3.406,-5.21 -7.297,-9.653 -12.343,-12.87 -2.147,-1.4 -2.207,-1.132 -4.23,-1.52 -1.368,-0.485 -0.919,-2.684 0.529,-2.629 3.324,0.04 5.972,2.31 8.513,4.193 2.966,2.299 5.472,5.111 7.715,8.107 -0.028,-0.039 0.046,0.052 0.189,0.243 -0.534,-0.702 0.653,0.85 0.877,1.152 0.713,1.123 1.816,2.13 2.188,3.412 C 2.073,-0.623 0.971,0.302 0,0"
         style="fill:#ffffff;fill-opacity:1;fill-rule:nonzero;stroke:none;stroke-opacity:1"
         transform="matrix(1.3333333,0,0,-1.3333333,556.82427,651.432)"
         clip-path="url(#clipPath32-6)" /><path
         id="path33"
         d="m 0,0 c -2.751,-2.128 -4.687,-5.172 -6.612,-8.029 -3.376,-5.248 -5.887,-11.201 -7.165,-17.287 0.051,-0.833 1.104,-1.321 1.798,-0.884 0.671,0.414 0.667,1.294 0.944,1.961 2.057,6.966 4.18,12.399 8.646,18.237 1.141,1.403 2.571,3.239 3.6,3.93 C 2.557,-1.283 1.361,0.784 0,0"
         style="fill:#ffffff;fill-opacity:1;fill-rule:nonzero;stroke:none;stroke-opacity:1"
         transform="matrix(1.3333333,0,0,-1.3333333,279.9328,92.043067)"
         clip-path="url(#clipPath34-3)" /><path
         id="path35"
         d="m 0,0 c -2.426,-1.73 -3.539,-3.504 -5.036,-5.457 -2.568,-3.263 -4.4,-6.947 -5.878,-10.81 -0.843,-1.998 -1.631,-4.022 -2.258,-6.1 -0.154,-0.482 -0.343,-1.022 -0.045,-1.489 0.371,-0.665 1.347,-0.786 1.878,-0.242 0.526,0.663 0.505,1.616 0.833,2.385 2.055,6.046 3.76,10.877 7.96,15.853 0.333,0.464 2.951,3.41 3.791,3.731 C 2.628,-1.317 1.397,0.805 0,0"
         style="fill:#ffffff;fill-opacity:1;fill-rule:nonzero;stroke:none;stroke-opacity:1"
         transform="matrix(1.3333333,0,0,-1.3333333,275.91,88.950933)"
         clip-path="url(#clipPath36-4)" /><path
         id="path37"
         d="m 0,0 c -2.641,-0.867 -6.368,-4.405 -9.091,-7.11 -4.128,-4.38 -5.357,-6.24 -8.502,-11.261 -1.855,-3.252 -4.021,-6.432 -5.419,-9.895 -0.225,-1.072 0.943,-2.054 1.972,-1.733 0.946,0.258 1.186,1.287 1.648,2.032 4.118,7.462 7.607,14.365 13.254,19.85 1.917,2.037 5.387,4.861 6.135,5.188 0.645,0.291 1.491,0.465 1.675,1.257 C 1.959,-0.694 0.985,0.298 0,0"
         style="fill:#ffffff;fill-opacity:1;fill-rule:nonzero;stroke:none;stroke-opacity:1"
         transform="matrix(1.3333333,0,0,-1.3333333,179.23,299.78173)"
         clip-path="url(#clipPath38-5)" /><path
         id="path39"
         d="m 0,0 c -5.562,-3.238 -9.405,-8.663 -13.1,-13.793 -1.452,-2.137 -2.858,-4.312 -4.046,-6.609 -0.195,-0.315 -0.273,-0.7 -0.17,-1.06 0.2,-0.789 1.177,-1.18 1.873,-0.762 0.631,0.437 0.85,1.261 1.291,1.867 3.389,5.599 6.209,9.944 10.533,14.363 1.942,1.965 2.97,2.55 5.252,4.134 C 2.514,-0.842 1.136,0.721 0,0"
         style="fill:#ffffff;fill-opacity:1;fill-rule:nonzero;stroke:none;stroke-opacity:1"
         transform="matrix(1.3333333,0,0,-1.3333333,171.08187,296.5368)"
         clip-path="url(#clipPath40-5)" /></g></g></svg>
