<?xml version="1.0" encoding="UTF-8" standalone="no"?><!-- Generator: Gravit.io --><svg xmlns="http://www.w3.org/2000/svg" xmlns:xlink="http://www.w3.org/1999/xlink" style="isolation:isolate" viewBox="0 0 256 256" width="256pt" height="256pt"><defs><clipPath id="_clipPath_9D7KqoM56zAJNXGJ43xsevzBnuHs07Ob"><rect width="256" height="256"/></clipPath></defs><g clip-path="url(#_clipPath_9D7KqoM56zAJNXGJ43xsevzBnuHs07Ob)"><rect width="256" height="256" style="fill:rgb(13,52,111)" fill-opacity="0"/><g><g opacity="0.9"><path d=" M 228.479 208.122 C 223.326 214.6 217.634 220.497 211.482 225.753 C 210.028 226.994 208.55 228.198 207.052 229.364 C 206.885 229.498 206.718 229.632 206.552 229.767 C 206.495 229.812 206.431 229.85 206.373 229.895 C 202.545 232.84 198.563 235.548 194.44 238.018 C 193.211 238.755 191.974 239.478 190.72 240.176 C 179.106 246.617 166.508 251.201 153.319 253.723 C 145.464 255.221 137.397 255.995 129.209 255.995 C 111.335 255.995 94.037 252.321 77.788 245.086 C 72.833 242.871 67.993 240.33 63.403 237.525 C 58.947 234.811 54.587 231.764 50.445 228.473 C 47.065 225.791 43.851 222.955 40.797 219.99 C 39.965 219.183 39.152 218.364 38.352 217.538 C 18.871 197.558 6.617 171.847 3.397 143.672 C 0.49 118.224 5.209 93.071 16.809 70.849 C 20.004 64.728 23.73 58.826 27.955 53.205 C 28.083 53.038 28.211 52.866 28.339 52.699 C 28.915 51.944 29.498 51.189 30.093 50.44 C 54.274 20.017 90.458 2.566 129.369 2.566 C 158.243 2.566 185.477 12.085 208.127 30.088 C 209.113 30.869 209.977 31.579 210.778 32.258 C 212.801 33.948 214.805 35.734 216.866 37.7 C 217.18 38.001 217.5 38.302 217.808 38.615 C 218.64 39.415 219.46 40.241 220.266 41.067 C 241.015 62.419 253.543 90.37 255.676 120.292 C 257.941 152.015 248.281 183.205 228.479 208.122 Z " fill="rgb(106,109,104)"/></g><path d=" M 225.918 205.561 C 220.765 212.039 215.073 217.936 208.921 223.192 C 207.467 224.433 205.989 225.637 204.491 226.803 C 204.324 226.937 204.157 227.072 203.992 227.206 C 203.934 227.251 203.87 227.289 203.812 227.334 C 199.985 230.279 196.002 232.987 191.879 235.458 C 190.65 236.194 189.414 236.917 188.159 237.615 C 175.508 244.632 161.681 249.44 147.199 251.79 C 140.471 252.878 133.608 253.434 126.648 253.434 C 108.774 253.434 91.476 249.76 75.227 242.525 C 70.272 240.31 65.432 237.769 60.842 234.965 C 56.386 232.25 52.027 229.203 47.885 225.912 C 44.549 223.261 41.374 220.464 38.352 217.538 C 38.314 217.506 38.275 217.468 38.237 217.43 C 17.341 197.122 4.191 170.451 0.836 141.111 C -2.07 115.663 2.648 90.51 14.248 68.289 C 17.443 62.168 21.169 56.266 25.394 50.644 C 26.092 49.716 26.803 48.794 27.533 47.879 C 27.885 47.437 28.237 47.002 28.589 46.566 C 52.763 16.957 88.46 0.005 126.808 0.005 C 155.682 0.005 182.916 9.525 205.567 27.527 C 206.552 28.308 207.417 29.019 208.217 29.697 C 210.24 31.387 212.244 33.174 214.305 35.139 C 215.465 36.24 216.597 37.367 217.705 38.506 C 217.737 38.545 217.776 38.577 217.808 38.615 C 238.498 59.953 250.989 87.859 253.114 117.731 C 255.381 149.454 245.72 180.644 225.918 205.561 Z " fill="rgb(163,170,160)"/><circle vector-effect="non-scaling-stroke" cx="146.5656384669169" cy="63.980594898317264" r="28.488920159450394" fill="rgb(102,104,101)" stroke-width="2.561" stroke="rgb(94,94,93)" stroke-linejoin="miter" stroke-linecap="butt" stroke-miterlimit="10"/><circle vector-effect="non-scaling-stroke" cx="210.58568376905262" cy="156.16946013339268" r="13.764309739959174" fill="rgb(102,104,101)" stroke-width="2.561" stroke="rgb(94,94,93)" stroke-linejoin="miter" stroke-linecap="butt" stroke-miterlimit="10"/><circle vector-effect="non-scaling-stroke" cx="70.3817845573754" cy="153.92875854781795" r="17.823180612114584" fill="rgb(102,104,101)" stroke-width="2.561" stroke="rgb(94,94,93)" stroke-linejoin="miter" stroke-linecap="butt" stroke-miterlimit="10"/><circle vector-effect="non-scaling-stroke" cx="131.36087770765968" cy="138.7239977885607" r="9.442956682065017" fill="rgb(102,104,101)" stroke-width="2.561" stroke="rgb(94,94,93)" stroke-linejoin="miter" stroke-linecap="butt" stroke-miterlimit="10"/><circle vector-effect="non-scaling-stroke" cx="61.098877988565725" cy="81.90620758291527" r="17.925612684598" fill="rgb(102,104,101)" stroke-width="2.561" stroke="rgb(94,94,93)" stroke-linejoin="miter" stroke-linecap="butt" stroke-miterlimit="10"/><circle vector-effect="non-scaling-stroke" cx="154.56814412968387" cy="208.98663770810765" r="17.605512458087304" fill="rgb(102,104,101)" stroke-width="2.561" stroke="rgb(94,94,93)" stroke-linejoin="miter" stroke-linecap="butt" stroke-miterlimit="10"/><circle vector-effect="non-scaling-stroke" cx="216.98768829926618" cy="100.47202072053463" r="11.843708380895094" fill="rgb(102,104,101)" stroke-width="2.561" stroke="rgb(94,94,93)" stroke-linejoin="miter" stroke-linecap="butt" stroke-miterlimit="10"/><circle vector-effect="non-scaling-stroke" cx="167.05205296360035" cy="102.39262207959868" r="5.121603624170859" fill="rgb(102,104,101)" stroke-width="2.561" stroke="rgb(94,94,93)" stroke-linejoin="miter" stroke-linecap="butt" stroke-miterlimit="10"/><g opacity="0.2"><path d=" M 155.881 252.443 C 148.025 253.941 139.959 254.716 131.771 254.716 C 113.896 254.716 96.598 251.041 80.35 243.807 C 75.395 241.591 70.555 239.05 65.964 236.246 C 61.509 233.531 57.149 230.484 53.007 227.193 C 49.626 224.511 46.413 221.675 43.359 218.711 C 42.527 217.903 41.714 217.085 40.913 216.259 C 40.875 216.226 40.837 216.188 40.798 216.15 C 19.902 195.842 6.752 169.171 3.398 139.832 C 0.491 114.384 5.209 89.23 16.81 67.009 C 20.004 60.888 23.73 54.986 27.956 49.364 C 28.654 48.437 29.364 47.514 30.094 46.599 C 30.446 46.157 30.798 45.722 31.15 45.286 C 31.048 47.214 30.965 49.255 30.901 51.419 C 29.371 102.091 39.204 213.665 149.761 250.509 C 151.764 251.182 153.806 251.828 155.881 252.443 Z " fill="rgb(102,104,101)" vector-effect="non-scaling-stroke" stroke-width="2.561" stroke="rgb(94,94,93)" stroke-linejoin="miter" stroke-linecap="butt" stroke-miterlimit="10"/></g></g></g></svg>