<?xml version="1.0" encoding="UTF-8" standalone="no"?><!-- Generator: Gravit.io --><svg xmlns="http://www.w3.org/2000/svg" xmlns:xlink="http://www.w3.org/1999/xlink" style="isolation:isolate" viewBox="0 0 712 256" width="712pt" height="256pt"><defs><clipPath id="_clipPath_3n1qIr47QRavKcTLosyvOOkDu3ajrb4e"><rect width="712" height="256"/></clipPath></defs><g clip-path="url(#_clipPath_3n1qIr47QRavKcTLosyvOOkDu3ajrb4e)"><rect width="712" height="256" style="fill:rgb(13,52,111)"/><path d=" M 341.077 27.763 C 341.075 27.763 341.074 27.763 341.072 27.763 C 341.067 27.763 341.061 27.764 341.056 27.764 C 341.04 27.765 341.025 27.766 341.009 27.768 C 340.729 27.8 340.508 28.015 340.479 28.286 C 337.789 41.584 330.119 49.979 315.554 52.301 C 315.29 52.323 315.073 52.506 315.015 52.754 C 315.014 52.756 315.014 52.758 315.013 52.76 C 315.01 52.777 315.007 52.794 315.005 52.81 C 315.004 52.815 315.004 52.819 315.003 52.824 C 315.002 52.837 315.001 52.851 315 52.864 C 315 52.873 315 52.882 315 52.891 C 315 52.901 315 52.91 315.001 52.92 C 315.002 52.933 315.003 52.947 315.005 52.96 C 315.006 52.964 315.007 52.969 315.007 52.973 C 315.01 52.991 315.014 53.009 315.019 53.027 C 315.082 53.27 315.299 53.446 315.559 53.466 C 330.118 55.789 337.787 64.181 340.477 77.473 C 340.504 77.752 340.733 77.973 341.022 78 C 341.024 78 341.026 78 341.028 78 C 341.028 78 341.028 78 341.029 78 C 341.04 78 341.052 78 341.064 78 C 341.073 78 341.083 78 341.093 78 C 341.097 78 341.101 78 341.105 78 C 341.407 77.989 341.655 77.767 341.686 77.478 C 344.382 64.181 352.045 55.785 366.61 53.463 C 366.874 53.442 367.092 53.258 367.15 53.009 C 367.151 53.007 367.151 53.006 367.152 53.004 C 367.155 52.987 367.158 52.97 367.161 52.953 C 367.161 52.949 367.161 52.944 367.162 52.94 C 367.163 52.927 367.164 52.913 367.165 52.9 C 367.165 52.891 367.165 52.882 367.165 52.873 C 367.165 52.863 367.165 52.854 367.164 52.844 C 367.163 52.831 367.162 52.817 367.16 52.804 C 367.159 52.799 367.159 52.795 367.158 52.79 C 367.155 52.772 367.151 52.754 367.147 52.737 C 367.083 52.494 366.866 52.318 366.608 52.298 C 352.047 49.975 344.384 41.583 341.688 28.291 C 341.661 28.012 341.432 27.791 341.143 27.764 C 341.141 27.764 341.139 27.764 341.137 27.763 C 341.137 27.763 341.136 27.763 341.136 27.763 C 341.124 27.763 341.113 27.762 341.101 27.762 C 341.093 27.762 341.085 27.761 341.077 27.761 L 341.077 27.763 Z " fill-rule="evenodd" fill="rgb(255,231,74)" fill-opacity="0.84"/><path d=" M 510.077 211.882 C 510.075 211.882 510.074 211.882 510.072 211.883 C 510.067 211.883 510.061 211.883 510.056 211.884 C 510.04 211.884 510.025 211.885 510.009 211.887 C 509.729 211.92 509.508 212.135 509.479 212.406 C 506.789 225.703 499.119 234.098 484.554 236.42 C 484.29 236.442 484.073 236.626 484.015 236.874 C 484.014 236.876 484.014 236.878 484.013 236.88 C 484.01 236.896 484.007 236.913 484.005 236.93 C 484.004 236.934 484.004 236.939 484.003 236.943 C 484.002 236.957 484.001 236.97 484 236.984 C 484 236.993 484 237.002 484 237.011 C 484 237.02 484 237.03 484.001 237.039 C 484.002 237.053 484.003 237.066 484.005 237.079 C 484.006 237.084 484.007 237.088 484.007 237.093 C 484.01 237.111 484.014 237.129 484.019 237.147 C 484.082 237.389 484.299 237.566 484.559 237.586 C 499.118 239.908 506.787 248.301 509.477 261.592 C 509.504 261.871 509.733 262.092 510.022 262.119 C 510.024 262.119 510.026 262.119 510.028 262.119 C 510.028 262.119 510.028 262.119 510.029 262.119 C 510.04 262.12 510.052 262.12 510.064 262.119 C 510.073 262.119 510.083 262.119 510.093 262.119 C 510.097 262.119 510.101 262.119 510.105 262.119 C 510.407 262.109 510.655 261.886 510.686 261.597 C 513.382 248.3 521.045 239.905 535.61 237.583 C 535.874 237.561 536.092 237.378 536.15 237.129 C 536.151 237.127 536.151 237.125 536.152 237.123 C 536.155 237.106 536.158 237.09 536.161 237.073 C 536.161 237.068 536.161 237.064 536.162 237.059 C 536.163 237.046 536.164 237.033 536.165 237.019 C 536.165 237.01 536.165 237.001 536.165 236.992 C 536.165 236.983 536.165 236.973 536.164 236.964 C 536.163 236.95 536.162 236.937 536.16 236.923 C 536.159 236.919 536.159 236.914 536.158 236.91 C 536.155 236.892 536.151 236.874 536.147 236.856 C 536.083 236.614 535.866 236.437 535.608 236.417 C 521.047 234.095 513.384 225.703 510.688 212.41 C 510.661 212.132 510.432 211.91 510.143 211.883 C 510.141 211.883 510.139 211.883 510.137 211.883 C 510.137 211.883 510.136 211.883 510.136 211.883 C 510.124 211.882 510.113 211.882 510.101 211.882 C 510.093 211.881 510.085 211.881 510.077 211.881 L 510.077 211.882 Z " fill-rule="evenodd" fill="rgb(255,231,74)" fill-opacity="0.84"/><path d=" M 45.329 35.882 C 45.328 35.882 45.326 35.882 45.325 35.883 C 45.319 35.883 45.314 35.883 45.308 35.884 C 45.293 35.884 45.277 35.885 45.262 35.887 C 44.981 35.92 44.761 36.135 44.731 36.406 C 42.042 49.703 34.372 58.098 19.806 60.42 C 19.543 60.442 19.325 60.626 19.267 60.874 C 19.267 60.876 19.266 60.878 19.266 60.88 C 19.262 60.896 19.259 60.913 19.257 60.93 C 19.256 60.934 19.256 60.939 19.256 60.943 C 19.254 60.957 19.253 60.97 19.253 60.984 C 19.252 60.993 19.252 61.002 19.253 61.011 C 19.253 61.02 19.253 61.03 19.253 61.039 C 19.254 61.053 19.256 61.066 19.258 61.079 C 19.258 61.084 19.259 61.088 19.26 61.093 C 19.263 61.111 19.266 61.129 19.271 61.147 C 19.335 61.389 19.552 61.566 19.811 61.586 C 34.371 63.908 42.039 72.301 44.73 85.592 C 44.757 85.871 44.985 86.092 45.275 86.119 C 45.277 86.119 45.278 86.119 45.28 86.119 C 45.28 86.119 45.281 86.119 45.281 86.119 C 45.293 86.12 45.304 86.12 45.316 86.119 C 45.326 86.119 45.336 86.119 45.345 86.119 C 45.349 86.119 45.354 86.119 45.358 86.119 C 45.659 86.109 45.907 85.886 45.939 85.597 C 48.634 72.3 56.298 63.905 70.862 61.583 C 71.126 61.561 71.345 61.378 71.403 61.129 C 71.403 61.127 71.404 61.125 71.404 61.123 C 71.408 61.106 71.411 61.09 71.413 61.073 C 71.413 61.068 71.414 61.064 71.414 61.059 C 71.416 61.046 71.417 61.033 71.417 61.019 C 71.418 61.01 71.418 61.001 71.417 60.992 C 71.417 60.983 71.417 60.973 71.417 60.964 C 71.416 60.95 71.414 60.937 71.412 60.923 C 71.412 60.919 71.411 60.914 71.41 60.91 C 71.407 60.892 71.404 60.874 71.399 60.856 C 71.335 60.614 71.119 60.437 70.86 60.417 C 56.3 58.095 48.637 49.703 45.94 36.41 C 45.913 36.132 45.684 35.91 45.395 35.883 C 45.393 35.883 45.392 35.883 45.39 35.883 C 45.389 35.883 45.389 35.883 45.388 35.883 C 45.377 35.882 45.365 35.882 45.354 35.882 C 45.345 35.881 45.337 35.881 45.329 35.881 L 45.329 35.882 Z " fill-rule="evenodd" fill="rgb(255,231,74)" fill-opacity="0.84"/><path d=" M 192.912 186.763 C 192.91 186.763 192.909 186.763 192.907 186.763 C 192.902 186.763 192.896 186.764 192.891 186.764 C 192.875 186.765 192.86 186.766 192.844 186.768 C 192.564 186.8 192.343 187.015 192.314 187.286 C 189.624 200.584 181.954 208.979 167.388 211.301 C 167.125 211.323 166.907 211.506 166.85 211.754 C 166.849 211.756 166.849 211.758 166.848 211.76 C 166.845 211.777 166.842 211.794 166.839 211.81 C 166.839 211.815 166.839 211.819 166.838 211.824 C 166.837 211.837 166.836 211.851 166.835 211.864 C 166.835 211.873 166.835 211.882 166.835 211.891 C 166.835 211.901 166.835 211.91 166.836 211.92 C 166.837 211.933 166.838 211.947 166.84 211.96 C 166.841 211.964 166.841 211.969 166.842 211.973 C 166.845 211.991 166.849 212.009 166.854 212.027 C 166.917 212.27 167.134 212.446 167.394 212.466 C 181.953 214.789 189.622 223.181 192.312 236.473 C 192.339 236.752 192.568 236.973 192.857 237 C 192.859 237 192.861 237 192.863 237 C 192.863 237 192.863 237 192.864 237 C 192.875 237 192.887 237 192.899 237 C 192.908 237 192.918 237 192.928 237 C 192.932 237 192.936 237 192.94 237 C 193.242 236.989 193.49 236.767 193.521 236.478 C 196.216 223.181 203.88 214.785 218.445 212.463 C 218.709 212.442 218.927 212.258 218.985 212.009 C 218.986 212.007 218.986 212.006 218.987 212.004 C 218.99 211.987 218.993 211.97 218.995 211.953 C 218.996 211.949 218.996 211.944 218.997 211.94 C 218.998 211.927 218.999 211.913 219 211.9 C 219 211.891 219 211.882 219 211.873 C 219 211.863 219 211.854 218.999 211.844 C 218.998 211.831 218.997 211.817 218.995 211.804 C 218.994 211.799 218.994 211.795 218.993 211.79 C 218.99 211.772 218.986 211.754 218.981 211.737 C 218.918 211.494 218.701 211.318 218.443 211.298 C 203.882 208.975 196.219 200.583 193.523 187.291 C 193.496 187.012 193.267 186.791 192.978 186.764 C 192.976 186.764 192.974 186.764 192.972 186.763 C 192.972 186.763 192.971 186.763 192.971 186.763 C 192.959 186.763 192.948 186.762 192.936 186.762 C 192.928 186.762 192.92 186.761 192.912 186.761 L 192.912 186.763 Z " fill-rule="evenodd" fill="rgb(255,231,74)" fill-opacity="0.86"/><path d=" M 11.912 237.002 C 11.91 237.002 11.909 237.002 11.907 237.002 C 11.902 237.002 11.896 237.003 11.891 237.003 C 11.875 237.004 11.86 237.005 11.844 237.007 C 11.564 237.039 11.343 237.254 11.314 237.525 C 8.624 250.822 0.954 259.218 -13.612 261.54 C -13.875 261.562 -14.093 261.745 -14.15 261.993 C -14.151 261.995 -14.151 261.997 -14.152 261.999 C -14.155 262.016 -14.158 262.033 -14.161 262.049 C -14.161 262.054 -14.161 262.058 -14.162 262.063 C -14.163 262.076 -14.164 262.09 -14.165 262.103 C -14.165 262.112 -14.165 262.121 -14.165 262.13 C -14.165 262.14 -14.165 262.149 -14.164 262.159 C -14.163 262.172 -14.162 262.185 -14.16 262.199 C -14.159 262.203 -14.159 262.208 -14.158 262.212 C -14.155 262.23 -14.151 262.248 -14.146 262.266 C -14.083 262.509 -13.866 262.685 -13.606 262.705 C 0.953 265.028 8.622 273.42 11.312 286.712 C 11.339 286.99 11.568 287.212 11.857 287.239 C 11.859 287.239 11.861 287.239 11.863 287.239 C 11.863 287.239 11.863 287.239 11.864 287.239 C 11.875 287.239 11.887 287.239 11.899 287.239 C 11.908 287.239 11.918 287.239 11.928 287.239 C 11.932 287.239 11.936 287.239 11.94 287.239 C 12.242 287.228 12.49 287.006 12.521 286.717 C 15.216 273.42 22.88 265.024 37.445 262.702 C 37.709 262.681 37.927 262.497 37.985 262.248 C 37.986 262.246 37.986 262.244 37.987 262.242 C 37.99 262.226 37.993 262.209 37.995 262.192 C 37.996 262.188 37.996 262.183 37.997 262.179 C 37.998 262.165 37.999 262.152 38 262.139 C 38 262.13 38 262.121 38 262.112 C 38 262.102 38 262.093 37.999 262.083 C 37.998 262.07 37.997 262.056 37.995 262.043 C 37.994 262.038 37.994 262.034 37.993 262.029 C 37.99 262.011 37.986 261.993 37.981 261.976 C 37.918 261.733 37.701 261.557 37.443 261.537 C 22.882 259.214 15.219 250.822 12.523 237.53 C 12.496 237.251 12.267 237.03 11.978 237.003 C 11.976 237.003 11.974 237.003 11.972 237.002 C 11.972 237.002 11.971 237.002 11.971 237.002 C 11.959 237.002 11.948 237.001 11.936 237.001 C 11.928 237.001 11.92 237 11.912 237 L 11.912 237.002 Z " fill-rule="evenodd" fill="rgb(255,231,74)" fill-opacity="0.86"/><path d=" M 199.496 48.882 C 199.495 48.882 199.493 48.882 199.492 48.882 C 199.488 48.882 199.484 48.883 199.48 48.883 C 199.469 48.883 199.457 48.884 199.445 48.885 C 199.235 48.91 199.071 49.069 199.048 49.27 C 197.038 59.126 191.304 65.349 180.414 67.07 C 180.217 67.087 180.054 67.223 180.011 67.406 C 180.011 67.408 180.01 67.409 180.01 67.411 C 180.007 67.423 180.005 67.436 180.003 67.448 C 180.003 67.451 180.003 67.455 180.002 67.458 C 180.001 67.468 180.001 67.478 180 67.488 C 180 67.495 180 67.501 180 67.508 C 180 67.515 180 67.522 180.001 67.529 C 180.001 67.539 180.003 67.549 180.004 67.559 C 180.004 67.562 180.005 67.566 180.005 67.569 C 180.008 67.582 180.01 67.596 180.014 67.609 C 180.062 67.789 180.224 67.919 180.418 67.934 C 191.303 69.656 197.036 75.876 199.047 85.729 C 199.068 85.935 199.239 86.099 199.455 86.119 C 199.456 86.119 199.458 86.119 199.459 86.119 C 199.459 86.119 199.459 86.119 199.46 86.119 C 199.468 86.12 199.477 86.12 199.486 86.119 C 199.493 86.119 199.5 86.119 199.508 86.119 C 199.511 86.119 199.514 86.119 199.517 86.119 C 199.743 86.111 199.928 85.947 199.952 85.732 C 201.966 75.876 207.696 69.653 218.585 67.932 C 218.782 67.916 218.946 67.78 218.989 67.596 C 218.989 67.594 218.99 67.593 218.99 67.591 C 218.993 67.579 218.995 67.566 218.997 67.554 C 218.997 67.551 218.997 67.547 218.998 67.544 C 218.999 67.534 218.999 67.524 219 67.514 C 219 67.508 219 67.501 219 67.494 C 219 67.487 219 67.48 218.999 67.473 C 218.999 67.463 218.998 67.453 218.996 67.443 C 218.996 67.44 218.995 67.437 218.995 67.433 C 218.992 67.42 218.99 67.407 218.986 67.393 C 218.939 67.214 218.777 67.083 218.583 67.068 C 207.698 65.347 201.968 59.126 199.953 49.273 C 199.932 49.067 199.761 48.903 199.545 48.883 C 199.544 48.883 199.542 48.882 199.541 48.882 C 199.541 48.882 199.54 48.882 199.54 48.882 C 199.531 48.882 199.523 48.881 199.514 48.881 C 199.508 48.881 199.502 48.881 199.496 48.881 L 199.496 48.882 Z " fill-rule="evenodd" fill="rgb(255,231,74)" fill-opacity="0.81"/><path d=" M 131.152 114.896 C 131.152 114.896 131.151 114.896 131.15 114.896 C 131.148 114.896 131.145 114.897 131.143 114.897 C 131.135 114.897 131.128 114.898 131.12 114.899 C 130.986 114.92 130.883 115.036 130.873 115.178 C 129.79 122.154 126.231 126.647 119.257 128.071 C 119.131 128.087 119.029 128.186 119.005 128.316 C 119.005 128.317 119.005 128.318 119.005 128.319 C 119.003 128.328 119.002 128.336 119.001 128.345 C 119.001 128.348 119.001 128.35 119.001 128.352 C 119 128.359 119 128.366 119 128.373 C 119 128.378 119 128.383 119 128.387 C 119.001 128.392 119.001 128.397 119.001 128.402 C 119.002 128.409 119.003 128.416 119.004 128.423 C 119.004 128.426 119.005 128.428 119.005 128.43 C 119.007 128.44 119.009 128.449 119.011 128.458 C 119.046 128.584 119.153 128.673 119.278 128.679 C 126.323 129.677 130.148 133.943 131.654 140.838 C 131.671 140.983 131.785 141.095 131.924 141.105 C 131.925 141.105 131.926 141.105 131.927 141.105 C 131.927 141.105 131.927 141.105 131.927 141.105 C 131.933 141.105 131.939 141.105 131.944 141.104 C 131.949 141.104 131.954 141.104 131.958 141.104 C 131.96 141.104 131.962 141.104 131.964 141.104 C 132.109 141.094 132.225 140.974 132.236 140.823 C 133.322 133.846 136.877 129.354 143.85 127.929 C 143.977 127.914 144.079 127.815 144.103 127.685 C 144.104 127.684 144.104 127.683 144.104 127.682 C 144.105 127.673 144.107 127.664 144.107 127.655 C 144.108 127.653 144.108 127.651 144.108 127.648 C 144.108 127.641 144.109 127.634 144.109 127.627 C 144.109 127.623 144.108 127.618 144.108 127.613 C 144.108 127.608 144.108 127.603 144.107 127.598 C 144.107 127.591 144.106 127.584 144.105 127.577 C 144.104 127.575 144.104 127.573 144.104 127.57 C 144.102 127.561 144.1 127.552 144.097 127.543 C 144.063 127.417 143.956 127.328 143.831 127.321 C 136.786 126.323 132.964 122.057 131.455 115.162 C 131.438 115.017 131.324 114.905 131.184 114.896 C 131.183 114.895 131.183 114.895 131.182 114.895 C 131.181 114.895 131.181 114.895 131.181 114.895 C 131.175 114.895 131.17 114.895 131.164 114.895 C 131.16 114.895 131.156 114.895 131.152 114.895 L 131.152 114.896 Z " fill-rule="evenodd" fill="rgb(255,231,74)" fill-opacity="0.92"/><path d=" M 285.152 140.824 C 285.152 140.824 285.151 140.824 285.15 140.824 C 285.148 140.824 285.145 140.825 285.143 140.825 C 285.135 140.825 285.128 140.826 285.12 140.827 C 284.986 140.849 284.883 140.964 284.873 141.106 C 283.79 148.082 280.231 152.575 273.257 153.999 C 273.131 154.015 273.029 154.114 273.005 154.244 C 273.005 154.245 273.005 154.246 273.005 154.247 C 273.003 154.256 273.002 154.264 273.001 154.273 C 273.001 154.276 273.001 154.278 273.001 154.28 C 273 154.287 273 154.294 273 154.301 C 273 154.306 273 154.311 273 154.315 C 273.001 154.32 273.001 154.325 273.001 154.33 C 273.002 154.337 273.003 154.344 273.004 154.351 C 273.004 154.354 273.005 154.356 273.005 154.358 C 273.007 154.368 273.009 154.377 273.011 154.386 C 273.046 154.512 273.153 154.601 273.278 154.607 C 280.323 155.605 284.148 159.871 285.654 166.766 C 285.671 166.911 285.785 167.023 285.924 167.033 C 285.925 167.033 285.926 167.033 285.927 167.033 C 285.927 167.033 285.927 167.033 285.927 167.033 C 285.933 167.033 285.939 167.033 285.944 167.032 C 285.949 167.032 285.954 167.032 285.958 167.032 C 285.96 167.032 285.962 167.032 285.964 167.032 C 286.109 167.022 286.225 166.902 286.236 166.751 C 287.322 159.775 290.877 155.282 297.85 153.858 C 297.977 153.842 298.079 153.743 298.103 153.613 C 298.104 153.612 298.104 153.611 298.104 153.61 C 298.105 153.601 298.107 153.592 298.107 153.583 C 298.108 153.581 298.108 153.579 298.108 153.576 C 298.108 153.569 298.109 153.562 298.109 153.555 C 298.109 153.551 298.108 153.546 298.108 153.541 C 298.108 153.536 298.108 153.531 298.107 153.526 C 298.107 153.519 298.106 153.512 298.105 153.505 C 298.104 153.503 298.104 153.501 298.104 153.498 C 298.102 153.489 298.1 153.48 298.097 153.471 C 298.063 153.345 297.956 153.256 297.831 153.249 C 290.786 152.251 286.964 147.985 285.455 141.09 C 285.438 140.945 285.324 140.833 285.184 140.824 C 285.183 140.823 285.183 140.823 285.182 140.823 C 285.181 140.823 285.181 140.823 285.181 140.823 C 285.175 140.823 285.17 140.823 285.164 140.823 C 285.16 140.823 285.156 140.823 285.152 140.823 L 285.152 140.824 Z " fill-rule="evenodd" fill="rgb(255,231,74)" fill-opacity="0.92"/><path d=" M 51.913 156.001 C 51.912 156.001 51.911 156.001 51.91 156.001 C 51.906 156.002 51.902 156.002 51.898 156.002 C 51.886 156.003 51.874 156.004 51.863 156.005 C 51.653 156.029 51.488 156.188 51.466 156.389 C 49.455 166.246 43.721 172.469 32.831 174.19 C 32.635 174.206 32.472 174.342 32.428 174.526 C 32.428 174.527 32.428 174.529 32.428 174.53 C 32.425 174.543 32.423 174.555 32.421 174.568 C 32.42 174.571 32.42 174.574 32.42 174.577 C 32.419 174.587 32.418 174.597 32.418 174.607 C 32.417 174.614 32.417 174.621 32.418 174.627 C 32.418 174.634 32.418 174.641 32.418 174.648 C 32.419 174.658 32.42 174.668 32.421 174.678 C 32.422 174.682 32.422 174.685 32.423 174.688 C 32.425 174.702 32.428 174.715 32.431 174.728 C 32.479 174.908 32.641 175.039 32.835 175.054 C 43.72 176.775 49.454 182.996 51.465 192.848 C 51.485 193.055 51.656 193.219 51.873 193.239 C 51.874 193.239 51.875 193.239 51.876 193.239 C 51.877 193.239 51.877 193.239 51.877 193.239 C 51.886 193.239 51.895 193.239 51.903 193.239 C 51.911 193.239 51.918 193.239 51.925 193.239 C 51.928 193.239 51.931 193.239 51.935 193.239 C 52.16 193.231 52.345 193.066 52.369 192.852 C 54.384 182.996 60.114 176.773 71.002 175.051 C 71.2 175.036 71.363 174.899 71.407 174.715 C 71.407 174.714 71.407 174.712 71.407 174.711 C 71.41 174.698 71.412 174.686 71.414 174.673 C 71.414 174.67 71.415 174.667 71.415 174.663 C 71.416 174.654 71.417 174.644 71.417 174.634 C 71.418 174.627 71.418 174.62 71.417 174.614 C 71.417 174.607 71.417 174.6 71.417 174.593 C 71.416 174.582 71.415 174.573 71.414 174.563 C 71.413 174.559 71.413 174.556 71.412 174.553 C 71.41 174.539 71.407 174.526 71.404 174.513 C 71.356 174.333 71.194 174.202 71.001 174.187 C 60.115 172.466 54.386 166.245 52.37 156.393 C 52.35 156.186 52.179 156.022 51.962 156.002 C 51.961 156.002 51.96 156.002 51.958 156.002 C 51.958 156.002 51.958 156.002 51.957 156.002 C 51.949 156.001 51.94 156.001 51.931 156.001 C 51.925 156 51.919 156 51.913 156 L 51.913 156.001 Z " fill-rule="evenodd" fill="rgb(255,231,74)" fill-opacity="0.9"/><path d=" M 711.996 118.762 C 711.995 118.762 711.993 118.763 711.992 118.763 C 711.988 118.763 711.984 118.763 711.98 118.763 C 711.969 118.764 711.957 118.765 711.945 118.766 C 711.735 118.79 711.571 118.95 711.548 119.15 C 709.538 129.007 703.804 135.23 692.914 136.951 C 692.717 136.967 692.554 137.103 692.511 137.287 C 692.511 137.288 692.51 137.29 692.51 137.291 C 692.507 137.304 692.505 137.316 692.503 137.329 C 692.503 137.332 692.503 137.335 692.502 137.339 C 692.501 137.348 692.501 137.358 692.5 137.368 C 692.5 137.375 692.5 137.382 692.5 137.388 C 692.5 137.395 692.5 137.402 692.501 137.41 C 692.501 137.42 692.503 137.429 692.504 137.439 C 692.504 137.443 692.505 137.446 692.505 137.449 C 692.508 137.463 692.51 137.476 692.514 137.489 C 692.562 137.669 692.724 137.8 692.918 137.815 C 703.803 139.536 709.536 145.757 711.547 155.609 C 711.568 155.816 711.739 155.98 711.955 156 C 711.956 156 711.958 156 711.959 156 C 711.959 156 711.959 156 711.96 156 C 711.968 156 711.977 156 711.986 156 C 711.993 156 712 156 712.008 156 C 712.011 156 712.014 156 712.017 156 C 712.243 155.992 712.428 155.827 712.452 155.613 C 714.466 145.757 720.196 139.534 731.085 137.813 C 731.282 137.797 731.446 137.66 731.489 137.476 C 731.489 137.475 731.49 137.473 731.49 137.472 C 731.493 137.459 731.495 137.447 731.497 137.435 C 731.497 137.431 731.497 137.428 731.498 137.425 C 731.499 137.415 731.499 137.405 731.5 137.395 C 731.5 137.388 731.5 137.381 731.5 137.375 C 731.5 137.368 731.5 137.361 731.499 137.354 C 731.499 137.344 731.498 137.334 731.496 137.324 C 731.496 137.32 731.495 137.317 731.495 137.314 C 731.492 137.3 731.49 137.287 731.486 137.274 C 731.439 137.094 731.277 136.963 731.083 136.948 C 720.198 135.227 714.468 129.006 712.453 119.154 C 712.432 118.947 712.261 118.783 712.045 118.763 C 712.044 118.763 712.042 118.763 712.041 118.763 C 712.041 118.763 712.04 118.763 712.04 118.763 C 712.031 118.762 712.023 118.762 712.014 118.762 C 712.008 118.762 712.002 118.761 711.996 118.761 L 711.996 118.762 Z " fill-rule="evenodd" fill="rgb(255,231,74)" fill-opacity="0.9"/><path d=" M 510.078 -9.477 C 510.077 -9.476 510.076 -9.476 510.075 -9.476 C 510.071 -9.476 510.067 -9.476 510.063 -9.476 C 510.051 -9.475 510.039 -9.474 510.028 -9.473 C 509.818 -9.449 509.653 -9.289 509.631 -9.089 C 507.621 0.768 501.886 6.991 490.996 8.712 C 490.8 8.728 490.637 8.864 490.593 9.048 C 490.593 9.05 490.593 9.051 490.593 9.052 C 490.59 9.065 490.588 9.077 490.586 9.09 C 490.586 9.093 490.585 9.096 490.585 9.1 C 490.584 9.11 490.583 9.12 490.583 9.13 C 490.582 9.136 490.582 9.143 490.583 9.149 C 490.583 9.156 490.583 9.164 490.583 9.171 C 490.584 9.181 490.585 9.191 490.587 9.201 C 490.587 9.204 490.587 9.207 490.588 9.21 C 490.59 9.224 490.593 9.237 490.596 9.25 C 490.644 9.43 490.806 9.561 491 9.576 C 501.885 11.297 507.619 17.518 509.63 27.37 C 509.65 27.577 509.821 27.741 510.038 27.761 C 510.039 27.761 510.04 27.761 510.041 27.761 C 510.042 27.761 510.042 27.761 510.042 27.761 C 510.051 27.761 510.06 27.761 510.069 27.761 C 510.076 27.761 510.083 27.761 510.09 27.761 C 510.093 27.761 510.097 27.761 510.1 27.761 C 510.325 27.753 510.51 27.588 510.534 27.374 C 512.549 17.518 518.279 11.295 529.167 9.574 C 529.365 9.558 529.528 9.422 529.572 9.237 C 529.572 9.236 529.572 9.234 529.572 9.233 C 529.575 9.221 529.577 9.208 529.579 9.196 C 529.58 9.192 529.58 9.189 529.58 9.186 C 529.581 9.176 529.582 9.166 529.582 9.156 C 529.583 9.149 529.583 9.143 529.582 9.136 C 529.582 9.129 529.582 9.122 529.582 9.115 C 529.581 9.105 529.58 9.095 529.579 9.085 C 529.578 9.081 529.578 9.078 529.577 9.075 C 529.575 9.061 529.572 9.048 529.569 9.035 C 529.521 8.855 529.359 8.725 529.166 8.71 C 518.28 6.988 512.551 0.768 510.535 -9.085 C 510.515 -9.292 510.344 -9.456 510.127 -9.476 C 510.126 -9.476 510.125 -9.476 510.123 -9.476 C 510.123 -9.476 510.123 -9.476 510.123 -9.476 C 510.114 -9.477 510.105 -9.477 510.096 -9.477 C 510.09 -9.477 510.084 -9.478 510.078 -9.478 L 510.078 -9.477 Z " fill-rule="evenodd" fill="rgb(255,231,74)" fill-opacity="0.9"/><path d=" M 679.544 223.896 C 679.543 223.896 679.542 223.896 679.542 223.896 C 679.539 223.896 679.536 223.897 679.534 223.897 C 679.526 223.897 679.519 223.898 679.511 223.899 C 679.377 223.92 679.274 224.036 679.264 224.178 C 678.181 231.154 674.623 235.647 667.649 237.071 C 667.522 237.087 667.42 237.186 667.397 237.316 C 667.396 237.317 667.396 237.318 667.396 237.319 C 667.395 237.328 667.393 237.336 667.393 237.345 C 667.392 237.348 667.392 237.35 667.392 237.352 C 667.392 237.359 667.391 237.366 667.391 237.373 C 667.391 237.378 667.391 237.383 667.392 237.387 C 667.392 237.392 667.392 237.397 667.393 237.402 C 667.393 237.409 667.394 237.416 667.395 237.423 C 667.396 237.426 667.396 237.428 667.396 237.43 C 667.398 237.44 667.4 237.449 667.403 237.458 C 667.437 237.584 667.545 237.673 667.67 237.679 C 674.714 238.677 678.539 242.943 680.045 249.838 C 680.062 249.983 680.176 250.095 680.316 250.105 C 680.317 250.105 680.317 250.105 680.318 250.105 C 680.318 250.105 680.319 250.105 680.319 250.105 C 680.324 250.105 680.33 250.105 680.336 250.104 C 680.34 250.104 680.345 250.104 680.35 250.104 C 680.352 250.104 680.354 250.104 680.356 250.104 C 680.501 250.094 680.616 249.974 680.627 249.823 C 681.713 242.846 685.268 238.354 692.242 236.929 C 692.368 236.914 692.471 236.815 692.495 236.685 C 692.495 236.684 692.495 236.683 692.495 236.682 C 692.497 236.673 692.498 236.664 692.499 236.655 C 692.499 236.653 692.499 236.651 692.499 236.648 C 692.5 236.641 692.5 236.634 692.5 236.627 C 692.5 236.623 692.5 236.618 692.5 236.613 C 692.499 236.608 692.499 236.603 692.499 236.598 C 692.498 236.591 692.497 236.584 692.496 236.577 C 692.496 236.575 692.495 236.573 692.495 236.57 C 692.493 236.561 692.491 236.552 692.489 236.543 C 692.454 236.417 692.347 236.328 692.222 236.321 C 685.177 235.323 681.355 231.057 679.846 224.162 C 679.829 224.017 679.715 223.905 679.576 223.896 C 679.575 223.895 679.574 223.895 679.573 223.895 C 679.573 223.895 679.573 223.895 679.572 223.895 C 679.567 223.895 679.561 223.895 679.556 223.895 C 679.552 223.895 679.548 223.895 679.544 223.895 L 679.544 223.896 Z " fill-rule="evenodd" fill="rgb(255,231,74)" fill-opacity="0.92"/><path d=" M 106.044 -8.999 C 106.043 -8.999 106.042 -8.999 106.042 -8.999 C 106.039 -8.999 106.036 -8.998 106.034 -8.998 C 106.026 -8.998 106.019 -8.997 106.011 -8.996 C 105.877 -8.974 105.774 -8.859 105.764 -8.717 C 104.681 -1.741 101.123 2.752 94.149 4.176 C 94.022 4.192 93.92 4.291 93.897 4.421 C 93.896 4.422 93.896 4.423 93.896 4.424 C 93.895 4.433 93.893 4.441 93.893 4.45 C 93.892 4.453 93.892 4.455 93.892 4.457 C 93.892 4.464 93.891 4.471 93.891 4.478 C 93.891 4.483 93.891 4.488 93.892 4.492 C 93.892 4.497 93.892 4.502 93.893 4.507 C 93.893 4.514 93.894 4.521 93.895 4.528 C 93.896 4.531 93.896 4.533 93.896 4.535 C 93.898 4.545 93.9 4.554 93.903 4.563 C 93.937 4.689 94.045 4.778 94.17 4.784 C 101.214 5.782 105.039 10.048 106.545 16.943 C 106.562 17.088 106.676 17.2 106.816 17.21 C 106.817 17.21 106.817 17.21 106.818 17.21 C 106.818 17.21 106.819 17.21 106.819 17.21 C 106.824 17.21 106.83 17.21 106.836 17.209 C 106.84 17.209 106.845 17.209 106.85 17.209 C 106.852 17.209 106.854 17.209 106.856 17.209 C 107.001 17.199 107.116 17.079 107.127 16.928 C 108.213 9.952 111.768 5.459 118.742 4.035 C 118.868 4.019 118.971 3.92 118.995 3.79 C 118.995 3.789 118.995 3.788 118.995 3.787 C 118.997 3.778 118.998 3.769 118.999 3.76 C 118.999 3.758 118.999 3.756 118.999 3.753 C 119 3.746 119 3.739 119 3.732 C 119 3.728 119 3.723 119 3.718 C 118.999 3.713 118.999 3.708 118.999 3.703 C 118.998 3.696 118.997 3.689 118.996 3.682 C 118.996 3.68 118.995 3.678 118.995 3.675 C 118.993 3.666 118.991 3.657 118.989 3.648 C 118.954 3.522 118.847 3.433 118.722 3.426 C 111.677 2.428 107.855 -1.838 106.346 -8.733 C 106.329 -8.878 106.215 -8.99 106.076 -8.999 C 106.075 -9 106.074 -9 106.073 -9 C 106.073 -9 106.073 -9 106.072 -9 C 106.067 -9 106.061 -9 106.056 -9 C 106.052 -9 106.048 -9 106.044 -9 L 106.044 -8.999 Z " fill-rule="evenodd" fill="rgb(255,231,74)" fill-opacity="0.92"/><path d=" M 351.496 237.001 C 351.495 237.001 351.493 237.001 351.492 237.001 C 351.488 237.002 351.484 237.002 351.48 237.002 C 351.469 237.003 351.457 237.004 351.445 237.005 C 351.235 237.029 351.071 237.188 351.048 237.389 C 349.038 247.246 343.304 253.469 332.414 255.19 C 332.217 255.206 332.054 255.342 332.011 255.526 C 332.011 255.527 332.01 255.529 332.01 255.53 C 332.007 255.543 332.005 255.555 332.003 255.568 C 332.003 255.571 332.003 255.574 332.002 255.577 C 332.001 255.587 332.001 255.597 332 255.607 C 332 255.614 332 255.621 332 255.627 C 332 255.634 332 255.641 332.001 255.648 C 332.001 255.658 332.003 255.668 332.004 255.678 C 332.004 255.682 332.005 255.685 332.005 255.688 C 332.008 255.702 332.01 255.715 332.014 255.728 C 332.062 255.908 332.224 256.039 332.418 256.054 C 343.303 257.775 349.036 263.996 351.047 273.848 C 351.068 274.055 351.239 274.219 351.455 274.239 C 351.456 274.239 351.458 274.239 351.459 274.239 C 351.459 274.239 351.459 274.239 351.46 274.239 C 351.468 274.239 351.477 274.239 351.486 274.239 C 351.493 274.239 351.5 274.239 351.508 274.239 C 351.511 274.239 351.514 274.239 351.517 274.239 C 351.743 274.231 351.928 274.066 351.952 273.852 C 353.966 263.996 359.696 257.773 370.585 256.051 C 370.782 256.036 370.946 255.899 370.989 255.715 C 370.989 255.714 370.99 255.712 370.99 255.711 C 370.993 255.698 370.995 255.686 370.997 255.673 C 370.997 255.67 370.997 255.667 370.998 255.663 C 370.999 255.654 370.999 255.644 371 255.634 C 371 255.627 371 255.62 371 255.614 C 371 255.607 371 255.6 370.999 255.593 C 370.999 255.582 370.998 255.573 370.996 255.563 C 370.996 255.559 370.995 255.556 370.995 255.553 C 370.992 255.539 370.99 255.526 370.986 255.513 C 370.939 255.333 370.777 255.202 370.583 255.187 C 359.698 253.466 353.968 247.245 351.953 237.393 C 351.932 237.186 351.761 237.022 351.545 237.002 C 351.544 237.002 351.542 237.002 351.541 237.002 C 351.541 237.002 351.54 237.002 351.54 237.002 C 351.531 237.001 351.523 237.001 351.514 237.001 C 351.508 237 351.502 237 351.496 237 L 351.496 237.001 Z " fill-rule="evenodd" fill="rgb(255,231,74)" fill-opacity="0.81"/><path d=" M 394.496 137.382 C 394.495 137.382 394.493 137.382 394.492 137.382 C 394.488 137.382 394.484 137.383 394.48 137.383 C 394.469 137.383 394.457 137.384 394.445 137.385 C 394.235 137.41 394.071 137.569 394.048 137.77 C 392.038 147.626 386.304 153.849 375.414 155.57 C 375.217 155.587 375.054 155.723 375.011 155.906 C 375.011 155.908 375.01 155.909 375.01 155.911 C 375.007 155.923 375.005 155.936 375.003 155.948 C 375.003 155.951 375.003 155.955 375.002 155.958 C 375.001 155.968 375.001 155.978 375 155.988 C 375 155.995 375 156.001 375 156.008 C 375 156.015 375 156.022 375.001 156.029 C 375.001 156.039 375.003 156.049 375.004 156.059 C 375.004 156.062 375.005 156.066 375.005 156.069 C 375.008 156.082 375.01 156.096 375.014 156.109 C 375.062 156.289 375.224 156.419 375.418 156.434 C 386.303 158.156 392.036 164.376 394.047 174.229 C 394.068 174.435 394.239 174.599 394.455 174.619 C 394.456 174.619 394.458 174.619 394.459 174.619 C 394.459 174.619 394.459 174.619 394.46 174.619 C 394.468 174.62 394.477 174.62 394.486 174.619 C 394.493 174.619 394.5 174.619 394.508 174.619 C 394.511 174.619 394.514 174.619 394.517 174.619 C 394.743 174.611 394.928 174.447 394.952 174.232 C 396.966 164.376 402.696 158.153 413.585 156.432 C 413.782 156.416 413.946 156.28 413.989 156.096 C 413.989 156.094 413.99 156.093 413.99 156.091 C 413.993 156.079 413.995 156.066 413.997 156.054 C 413.997 156.051 413.997 156.047 413.998 156.044 C 413.999 156.034 413.999 156.024 414 156.014 C 414 156.008 414 156.001 414 155.994 C 414 155.987 414 155.98 413.999 155.973 C 413.999 155.963 413.998 155.953 413.996 155.943 C 413.996 155.94 413.995 155.937 413.995 155.933 C 413.992 155.92 413.99 155.907 413.986 155.893 C 413.939 155.714 413.777 155.583 413.583 155.568 C 402.698 153.847 396.968 147.626 394.953 137.773 C 394.932 137.567 394.761 137.403 394.545 137.383 C 394.544 137.383 394.542 137.382 394.541 137.382 C 394.541 137.382 394.54 137.382 394.54 137.382 C 394.531 137.382 394.523 137.381 394.514 137.381 C 394.508 137.381 394.502 137.381 394.496 137.381 L 394.496 137.382 Z " fill-rule="evenodd" fill="rgb(255,231,74)" fill-opacity="0.81"/><path d=" M 598.912 48.882 C 598.91 48.882 598.909 48.882 598.907 48.882 C 598.902 48.883 598.896 48.883 598.891 48.884 C 598.875 48.884 598.86 48.885 598.844 48.887 C 598.564 48.92 598.343 49.135 598.314 49.406 C 595.624 62.703 587.954 71.098 573.388 73.42 C 573.125 73.442 572.907 73.626 572.85 73.874 C 572.849 73.876 572.849 73.878 572.848 73.88 C 572.845 73.896 572.842 73.913 572.839 73.93 C 572.839 73.934 572.839 73.939 572.838 73.943 C 572.837 73.957 572.836 73.97 572.835 73.984 C 572.835 73.993 572.835 74.002 572.835 74.011 C 572.835 74.02 572.835 74.03 572.836 74.039 C 572.837 74.053 572.838 74.066 572.84 74.079 C 572.841 74.084 572.841 74.088 572.842 74.093 C 572.845 74.111 572.849 74.129 572.854 74.147 C 572.917 74.389 573.134 74.566 573.394 74.586 C 587.953 76.908 595.622 85.301 598.312 98.592 C 598.339 98.871 598.568 99.092 598.857 99.119 C 598.859 99.119 598.861 99.119 598.863 99.119 C 598.863 99.119 598.863 99.119 598.864 99.119 C 598.875 99.12 598.887 99.12 598.899 99.119 C 598.908 99.119 598.918 99.119 598.928 99.119 C 598.932 99.119 598.936 99.119 598.94 99.119 C 599.242 99.109 599.49 98.886 599.521 98.597 C 602.216 85.3 609.88 76.905 624.445 74.583 C 624.709 74.561 624.927 74.378 624.985 74.129 C 624.986 74.127 624.986 74.125 624.987 74.123 C 624.99 74.106 624.993 74.09 624.995 74.073 C 624.996 74.068 624.996 74.064 624.997 74.059 C 624.998 74.046 624.999 74.033 625 74.019 C 625 74.01 625 74.001 625 73.992 C 625 73.983 625 73.973 624.999 73.964 C 624.998 73.95 624.997 73.937 624.995 73.923 C 624.994 73.919 624.994 73.914 624.993 73.91 C 624.99 73.892 624.986 73.874 624.981 73.856 C 624.918 73.614 624.701 73.437 624.443 73.417 C 609.882 71.095 602.219 62.703 599.523 49.41 C 599.496 49.132 599.267 48.91 598.978 48.883 C 598.976 48.883 598.974 48.883 598.972 48.883 C 598.972 48.883 598.971 48.883 598.971 48.883 C 598.959 48.882 598.948 48.882 598.936 48.882 C 598.928 48.881 598.92 48.881 598.912 48.881 L 598.912 48.882 Z " fill-rule="evenodd" fill="rgb(255,231,74)"/><path d=" M 490.181 104.671 C 490.18 104.671 490.179 104.672 490.179 104.672 C 490.176 104.672 490.173 104.672 490.171 104.672 C 490.163 104.673 490.156 104.674 490.148 104.675 C 490.014 104.696 489.911 104.811 489.901 104.953 C 488.818 111.93 485.26 116.422 478.286 117.847 C 478.159 117.862 478.057 117.961 478.033 118.091 C 478.033 118.092 478.033 118.093 478.033 118.094 C 478.031 118.103 478.03 118.112 478.029 118.121 C 478.029 118.123 478.029 118.125 478.029 118.128 C 478.029 118.135 478.028 118.142 478.028 118.149 C 478.028 118.154 478.028 118.158 478.029 118.163 C 478.029 118.168 478.029 118.173 478.029 118.178 C 478.03 118.185 478.031 118.192 478.032 118.199 C 478.033 118.201 478.033 118.203 478.033 118.206 C 478.035 118.215 478.037 118.224 478.04 118.234 C 478.074 118.359 478.182 118.448 478.307 118.455 C 485.351 119.453 489.176 123.719 490.682 130.614 C 490.699 130.759 490.813 130.871 490.953 130.881 C 490.953 130.881 490.954 130.88 490.955 130.88 C 490.955 130.88 490.955 130.88 490.956 130.88 C 490.961 130.88 490.967 130.88 490.973 130.88 C 490.977 130.88 490.982 130.88 490.986 130.88 C 490.989 130.879 490.991 130.879 490.993 130.879 C 491.138 130.869 491.253 130.75 491.264 130.598 C 492.35 123.622 495.905 119.13 502.879 117.705 C 503.005 117.69 503.108 117.591 503.132 117.46 C 503.132 117.459 503.132 117.458 503.132 117.457 C 503.134 117.448 503.135 117.44 503.136 117.431 C 503.136 117.429 503.136 117.426 503.136 117.424 C 503.137 117.417 503.137 117.41 503.137 117.403 C 503.137 117.398 503.137 117.393 503.136 117.389 C 503.136 117.384 503.136 117.379 503.136 117.374 C 503.135 117.367 503.134 117.36 503.133 117.353 C 503.133 117.351 503.132 117.348 503.132 117.346 C 503.13 117.337 503.128 117.327 503.125 117.318 C 503.091 117.193 502.984 117.104 502.859 117.097 C 495.814 116.099 491.992 111.833 490.483 104.938 C 490.466 104.793 490.352 104.681 490.212 104.671 C 490.212 104.671 490.211 104.671 490.21 104.671 C 490.21 104.671 490.209 104.671 490.209 104.671 C 490.204 104.671 490.198 104.671 490.192 104.671 C 490.189 104.671 490.185 104.67 490.181 104.67 L 490.181 104.671 Z " fill-rule="evenodd" fill="rgb(255,231,74)" fill-opacity="0.92"/><path d=" M 617.808 159.762 C 617.807 159.762 617.805 159.763 617.804 159.763 C 617.8 159.763 617.796 159.763 617.792 159.763 C 617.781 159.764 617.769 159.765 617.757 159.766 C 617.547 159.79 617.383 159.95 617.361 160.15 C 615.35 170.007 609.616 176.23 598.726 177.951 C 598.529 177.967 598.366 178.103 598.323 178.287 C 598.323 178.288 598.322 178.29 598.322 178.291 C 598.319 178.304 598.317 178.316 598.315 178.329 C 598.315 178.332 598.315 178.335 598.314 178.339 C 598.313 178.348 598.313 178.358 598.312 178.368 C 598.312 178.375 598.312 178.382 598.312 178.388 C 598.312 178.395 598.312 178.402 598.313 178.41 C 598.313 178.42 598.315 178.429 598.316 178.439 C 598.316 178.443 598.317 178.446 598.317 178.449 C 598.32 178.463 598.322 178.476 598.326 178.489 C 598.374 178.669 598.536 178.8 598.73 178.815 C 609.615 180.536 615.348 186.757 617.359 196.609 C 617.38 196.816 617.551 196.98 617.767 197 C 617.768 197 617.77 197 617.771 197 C 617.771 197 617.772 197 617.772 197 C 617.781 197 617.789 197 617.798 197 C 617.805 197 617.812 197 617.82 197 C 617.823 197 617.826 197 617.829 197 C 618.055 196.992 618.24 196.827 618.264 196.613 C 620.278 186.757 626.008 180.534 636.897 178.813 C 637.094 178.797 637.258 178.66 637.301 178.476 C 637.301 178.475 637.302 178.473 637.302 178.472 C 637.305 178.459 637.307 178.447 637.309 178.435 C 637.309 178.431 637.309 178.428 637.31 178.425 C 637.311 178.415 637.312 178.405 637.312 178.395 C 637.312 178.388 637.312 178.381 637.312 178.375 C 637.312 178.368 637.312 178.361 637.311 178.354 C 637.311 178.344 637.31 178.334 637.308 178.324 C 637.308 178.32 637.307 178.317 637.307 178.314 C 637.305 178.3 637.302 178.287 637.298 178.274 C 637.251 178.094 637.089 177.963 636.895 177.948 C 626.01 176.227 620.281 170.006 618.265 160.154 C 618.244 159.947 618.073 159.783 617.857 159.763 C 617.856 159.763 617.854 159.763 617.853 159.763 C 617.853 159.763 617.852 159.763 617.852 159.763 C 617.843 159.762 617.835 159.762 617.826 159.762 C 617.82 159.762 617.814 159.761 617.808 159.761 L 617.808 159.762 Z " fill-rule="evenodd" fill="rgb(255,231,74)" fill-opacity="0.9"/><path d=" M 699.441 4.106 C 699.44 4.106 699.439 4.106 699.438 4.106 C 699.434 4.107 699.43 4.107 699.426 4.107 C 699.414 4.108 699.403 4.109 699.391 4.11 C 699.181 4.134 699.016 4.294 698.994 4.494 C 696.984 14.351 691.249 20.574 680.359 22.295 C 680.163 22.311 680 22.447 679.957 22.631 C 679.956 22.632 679.956 22.634 679.956 22.635 C 679.953 22.648 679.951 22.66 679.949 22.673 C 679.949 22.676 679.948 22.679 679.948 22.683 C 679.947 22.692 679.946 22.702 679.946 22.712 C 679.946 22.719 679.946 22.726 679.946 22.732 C 679.946 22.739 679.946 22.746 679.946 22.754 C 679.947 22.763 679.948 22.773 679.95 22.783 C 679.95 22.787 679.951 22.79 679.951 22.793 C 679.953 22.807 679.956 22.82 679.96 22.833 C 680.007 23.013 680.17 23.144 680.363 23.159 C 691.249 24.88 696.982 31.101 698.993 40.953 C 699.013 41.16 699.184 41.324 699.401 41.344 C 699.402 41.344 699.403 41.344 699.405 41.344 C 699.405 41.344 699.405 41.344 699.405 41.344 C 699.414 41.344 699.423 41.344 699.432 41.344 C 699.439 41.344 699.446 41.344 699.453 41.344 C 699.456 41.344 699.46 41.344 699.463 41.344 C 699.688 41.336 699.873 41.171 699.897 40.957 C 701.912 31.101 707.642 24.878 718.531 23.156 C 718.728 23.141 718.891 23.004 718.935 22.82 C 718.935 22.819 718.935 22.817 718.936 22.816 C 718.938 22.803 718.941 22.791 718.942 22.778 C 718.943 22.775 718.943 22.772 718.943 22.769 C 718.944 22.759 718.945 22.749 718.946 22.739 C 718.946 22.732 718.946 22.725 718.946 22.719 C 718.946 22.712 718.945 22.705 718.945 22.698 C 718.944 22.688 718.943 22.678 718.942 22.668 C 718.941 22.664 718.941 22.661 718.94 22.658 C 718.938 22.644 718.935 22.631 718.932 22.618 C 718.884 22.438 718.722 22.307 718.529 22.292 C 707.643 20.571 701.914 14.35 699.898 4.498 C 699.878 4.291 699.707 4.127 699.491 4.107 C 699.489 4.107 699.488 4.107 699.487 4.107 C 699.486 4.107 699.486 4.107 699.486 4.107 C 699.477 4.106 699.468 4.106 699.46 4.106 C 699.453 4.105 699.447 4.105 699.441 4.105 L 699.441 4.106 Z " fill-rule="evenodd" fill="rgb(255,231,74)" fill-opacity="0.81"/></g></svg>