<?xml version="1.0" encoding="UTF-8" standalone="no"?><!-- Generator: Gravit.io -->
<svg xmlns="http://www.w3.org/2000/svg" style="isolation:isolate"
     viewBox="0 0 64 56" width="64pt" height="56pt">
    <defs>
        <clipPath id="_clipPath_PnrUgb84rRh6LbuK6kLuV4gUUX3YuWGy">
            <rect width="64" height="56"/>
        </clipPath>
    </defs>
    <g clip-path="url(#_clipPath_PnrUgb84rRh6LbuK6kLuV4gUUX3YuWGy)">
        <g>
            <path d=" M 49.995 49.813 C 49.995 53.244 42.047 56.008 32.247 56.008 C 22.447 56.008 14.498 53.219 14.498 49.813 C 14.498 46.381 22.447 43.617 32.247 43.617 C 42.047 43.617 49.995 46.381 49.995 49.813 Z "
                  fill="rgb(158,220,242)"/>
            <clipPath id="_clipPath_R78T2IfgSf00JfxNWjFJReSFcgc89jrB">
                <path d=" M 24.619 60.921 C 25.014 62.772 25.977 63.858 26.94 64.5 L 37.085 64.5 C 38.319 63.661 39.578 62.081 39.578 59.119 L 39.578 51.466 C 39.578 51.466 39.726 49.566 41.479 48.949 C 41.479 48.949 42.491 48.233 41.405 47.838 C 41.405 47.838 36.591 47.443 36.591 51.392 L 36.591 57.218 C 36.591 57.218 36.789 59.366 35.653 60.254 L 35.653 53.046 C 35.653 53.046 35.727 50.751 36.912 49.887 C 36.912 49.887 37.702 48.48 35.974 48.85 C 35.974 48.85 32.666 49.319 32.518 53.194 L 32.444 60.6 L 31.654 60.6 L 31.58 53.194 C 31.432 49.344 28.124 48.85 28.124 48.85 C 26.397 48.455 27.186 49.887 27.186 49.887 C 28.371 50.751 28.445 53.046 28.445 53.046 L 28.445 60.328 C 27.31 59.514 27.507 57.218 27.507 57.218 L 27.507 51.392 C 27.507 47.443 22.694 47.838 22.694 47.838 C 21.583 48.233 22.62 48.949 22.62 48.949 C 24.348 49.59 24.52 51.466 24.52 51.466 L 24.52 56.823 L 24.619 60.921 L 24.619 60.921 Z "
                      fill="rgb(255,255,255)"/>
            </clipPath>
            <g clip-path="url(#_clipPath_R78T2IfgSf00JfxNWjFJReSFcgc89jrB)">
                <path d=" M 49.995 49.813 C 49.995 53.244 42.047 56.008 32.247 56.008 C 22.447 56.008 14.498 53.219 14.498 49.813 C 14.498 46.381 22.447 43.617 32.247 43.617 C 42.047 43.617 49.995 46.381 49.995 49.813 Z "
                      fill="rgb(125,188,231)"/>
            </g>
            <path d=" M 11.981 31.57 L 11.462 33.348 C 11.462 33.348 11.339 33.99 11.931 34.113 C 12.573 34.088 12.524 33.496 12.474 33.323 L 11.981 31.57 Z "
                  fill="rgb(158,220,242)"/>
            <path d=" M 63.547 24.091 L 63.597 23.869 C 58.388 22.832 53.056 22.807 49.822 22.955 C 50.341 21.055 50.514 18.833 50.514 16.389 C 50.514 12.859 49.181 10.045 47.058 7.922 C 47.428 6.713 47.922 4.022 46.564 0.591 C 46.564 0.591 44.145 -0.174 38.64 3.504 C 36.493 2.961 34.197 2.689 31.901 2.689 C 29.383 2.689 26.841 3.01 24.446 3.652 C 18.769 -0.224 16.276 0.566 16.276 0.566 C 14.647 4.639 15.659 7.675 15.955 8.416 C 14.029 10.49 12.869 13.131 12.869 16.365 C 12.869 18.808 13.141 21.005 13.832 22.906 C 10.574 22.783 5.439 22.832 0.403 23.844 L 0.453 24.066 C 5.488 23.054 10.672 23.029 13.906 23.153 C 14.054 23.548 14.227 23.943 14.4 24.313 C 11.191 24.412 5.735 24.831 0.502 26.313 L 0.576 26.535 C 5.859 25.054 11.363 24.659 14.548 24.56 C 16.473 28.115 20.225 30.435 26.94 31.151 C 25.977 31.793 25.014 32.879 24.619 34.73 C 23.311 35.347 19.213 36.878 16.745 32.632 C 16.745 32.632 15.362 30.114 12.721 29.917 C 12.721 29.917 10.154 29.867 12.548 31.521 C 12.548 31.521 14.252 32.336 15.436 35.372 C 15.436 35.372 16.992 40.556 24.422 38.877 L 24.422 44.184 C 24.422 44.184 24.274 46.085 22.521 46.702 C 22.521 46.702 21.484 47.418 22.595 47.813 C 22.595 47.813 27.409 48.208 27.409 44.258 L 27.409 38.433 C 27.409 38.433 27.211 36.112 28.347 35.323 L 28.347 44.9 C 28.347 44.9 28.273 47.196 27.088 48.06 C 27.088 48.06 26.298 49.467 28.026 49.097 C 28.026 49.097 31.334 48.628 31.482 44.752 L 31.556 35.051 L 32.346 35.051 L 32.42 44.752 C 32.568 48.603 35.876 49.097 35.876 49.097 C 37.603 49.492 36.814 48.06 36.814 48.06 C 35.629 47.196 35.555 44.9 35.555 44.9 L 35.555 35.397 C 36.69 36.285 36.493 38.433 36.493 38.433 L 36.493 44.258 C 36.493 48.208 41.306 47.813 41.306 47.813 C 42.417 47.418 41.38 46.702 41.38 46.702 C 39.652 46.06 39.48 44.184 39.48 44.184 L 39.48 36.532 C 39.48 33.545 38.221 31.965 36.986 31.151 C 44.145 30.435 47.576 28.139 49.156 24.535 C 52.291 24.609 57.944 25.004 63.325 26.535 L 63.399 26.313 C 58.043 24.807 52.439 24.412 49.255 24.313 C 49.403 23.943 49.526 23.573 49.65 23.178 C 52.957 23.054 58.314 23.054 63.547 24.091 L 63.547 24.091 Z "
                  fill="rgb(1,1,1)"/>
            <path d=" M 43.503 16.216 C 45.034 17.623 45.947 19.302 45.947 21.104 C 45.947 29.596 39.628 29.818 31.827 29.818 C 24.027 29.818 17.707 28.633 17.707 21.104 C 17.707 19.302 18.596 17.623 20.127 16.241 C 22.669 13.921 26.964 15.155 31.827 15.155 C 36.69 15.155 40.961 13.896 43.503 16.216 L 43.503 16.216 Z "
                  fill="rgb(245,204,179)"/>
            <path d=" M 27.137 21.548 C 27.137 23.893 25.829 25.769 24.2 25.769 C 22.57 25.769 21.262 23.869 21.262 21.548 C 21.262 19.203 22.57 17.327 24.2 17.327 C 25.829 17.303 27.137 19.203 27.137 21.548 L 27.137 21.548 Z "
                  fill="rgb(255,255,255)"/>
            <path d=" M 26.199 21.598 C 26.199 23.153 25.31 24.412 24.249 24.412 C 23.163 24.412 22.299 23.153 22.299 21.598 C 22.299 20.043 23.188 18.784 24.249 18.784 C 25.31 18.784 26.199 20.043 26.199 21.598 Z "
                  fill="rgb(175,92,81)"/>
            <path d=" M 42.911 21.548 C 42.911 23.893 41.602 25.769 39.973 25.769 C 38.344 25.769 37.036 23.869 37.036 21.548 C 37.036 19.203 38.344 17.327 39.973 17.327 C 41.578 17.303 42.911 19.203 42.911 21.548 L 42.911 21.548 Z "
                  fill="rgb(255,255,255)"/>
            <path d=" M 41.948 21.598 C 41.948 23.153 41.059 24.412 39.998 24.412 C 38.912 24.412 38.048 23.153 38.048 21.598 C 38.048 20.043 38.936 18.784 39.998 18.784 C 41.084 18.784 41.948 20.043 41.948 21.598 Z  M 32.617 25.3 C 32.617 25.695 32.296 26.041 31.877 26.041 C 31.482 26.041 31.136 25.72 31.136 25.3 C 31.136 24.881 31.457 24.56 31.877 24.56 C 32.272 24.56 32.617 24.881 32.617 25.3 Z  M 30.173 27.152 C 30.124 27.028 30.198 26.905 30.321 26.856 C 30.445 26.806 30.568 26.88 30.618 27.004 C 30.815 27.547 31.309 27.892 31.877 27.892 C 32.444 27.892 32.938 27.522 33.136 27.004 C 33.185 26.88 33.308 26.806 33.432 26.856 C 33.555 26.905 33.629 27.028 33.58 27.152 C 33.333 27.868 32.642 28.361 31.877 28.361 C 31.111 28.361 30.42 27.868 30.173 27.152 L 30.173 27.152 Z "
                  fill="rgb(175,92,81)"/>
            <path d=" M 13.857 30.509 C 13.857 30.706 13.634 30.855 13.338 30.855 C 13.067 30.855 12.82 30.706 12.82 30.509 C 12.82 30.311 13.042 30.163 13.338 30.163 C 13.634 30.163 13.857 30.311 13.857 30.509 Z  M 15.288 31.299 C 15.288 31.496 15.066 31.644 14.77 31.644 C 14.498 31.644 14.252 31.496 14.252 31.299 C 14.252 31.101 14.474 30.953 14.77 30.953 C 15.066 30.953 15.288 31.101 15.288 31.299 Z  M 16.152 32.336 C 16.152 32.533 15.93 32.681 15.634 32.681 C 15.362 32.681 15.116 32.533 15.116 32.336 C 15.116 32.138 15.338 31.99 15.634 31.99 C 15.93 31.965 16.152 32.138 16.152 32.336 Z  M 16.942 33.521 C 16.942 33.718 16.72 33.866 16.424 33.866 C 16.152 33.866 15.905 33.718 15.905 33.521 C 15.905 33.323 16.128 33.175 16.424 33.175 C 16.72 33.15 16.942 33.323 16.942 33.521 Z  M 17.806 34.607 C 17.806 34.804 17.584 34.952 17.288 34.952 C 17.016 34.952 16.769 34.804 16.769 34.607 C 16.769 34.409 16.992 34.261 17.288 34.261 C 17.584 34.261 17.806 34.409 17.806 34.607 Z  M 18.991 35.569 C 18.991 35.767 18.769 35.915 18.473 35.915 C 18.201 35.915 17.954 35.767 17.954 35.569 C 17.954 35.372 18.176 35.224 18.473 35.224 C 18.769 35.199 18.991 35.372 18.991 35.569 Z  M 20.645 36.186 C 20.645 36.384 20.423 36.532 20.127 36.532 C 19.855 36.532 19.608 36.384 19.608 36.186 C 19.608 35.989 19.83 35.841 20.127 35.841 C 20.423 35.841 20.645 35.989 20.645 36.186 Z  M 22.299 36.186 C 22.299 36.384 22.077 36.532 21.78 36.532 C 21.509 36.532 21.262 36.384 21.262 36.186 C 21.262 35.989 21.484 35.841 21.78 35.841 C 22.077 35.841 22.299 35.989 22.299 36.186 Z  M 23.977 35.915 C 23.977 36.112 23.755 36.261 23.459 36.261 C 23.188 36.261 22.941 36.112 22.941 35.915 C 22.941 35.717 23.163 35.569 23.459 35.569 C 23.731 35.569 23.977 35.717 23.977 35.915 Z "
                  fill="rgb(196,229,217)"/>
        </g>
    </g>
</svg>